<svg xmlns="http://www.w3.org/2000/svg" viewBox="0 0 326.98 176.01"><defs><style>.a{fill:#011627;}</style></defs><title>empty_screen_1-01</title><path class="a" d="M246.69,162.41h-15a2.3,2.3,0,1,0,0,4.6h15a2.3,2.3,0,1,0,0-4.6ZM102.74,163H70.35a2.3,2.3,0,1,0,0,4.59h32.39a2.3,2.3,0,1,0,0-4.59Zm23,8.41h-15a2.3,2.3,0,1,0,0,4.6h15a2.3,2.3,0,1,0,0-4.6ZM324.74,142.5H258V105.94h12.19a2.25,2.25,0,0,0,2.25-2.25V76A2.26,2.26,0,0,0,268,76v25.47H258v-33a2.26,2.26,0,0,0-4.51,0v49.15h-9.78V97.85a2.26,2.26,0,0,0-4.51,0v22a2.25,2.25,0,0,0,2.26,2.24h12V142.5H226.29a2.36,2.36,0,0,0,0-.37L224,128.65a2.24,2.24,0,0,0-2-1.87l-24.22-2a2.24,2.24,0,0,0-2.2,1.24l-7.67,15.44a2.21,2.21,0,0,0-.23,1h-7.77l-10.75-27.34a2.25,2.25,0,0,0-2.1-1.43H148.14L141.47,96A2.24,2.24,0,0,0,139,94.59L75.18,106.13a2.24,2.24,0,0,0-1.85,2.21V119l-13.17,7.59a2.24,2.24,0,0,0-1,1.39L55.37,142.5H2.26a2.25,2.25,0,1,0,0,4.5H324.74a2.25,2.25,0,0,0,0-4.5ZM60,142.5,63.25,130l13.47-7.77a2.25,2.25,0,0,0,1.12-1.94V110.21l60.07-10.86,6.56,17.42a2.25,2.25,0,0,0,2.11,1.46h18.91L175,142.5Zm132.39,0,6.49-13.07,20.94,1.69,1.9,11.38Zm-6-66.53a35.51,35.51,0,0,0,26.68-11.42,35.61,35.61,0,0,0,11.52-26.64c0-10.27-3.87-19.28-11.47-26.74A36,36,0,0,0,186.44,0a37.75,37.75,0,0,0-27,11.18,37.16,37.16,0,0,0-11,26.74,36.36,36.36,0,0,0,11,26.61C167.05,72.12,176.14,76,186.44,76ZM162.59,14.34a32.91,32.91,0,0,1,23.85-9.85A31.31,31.31,0,0,1,210,14.33c6.84,6.72,10.16,14.43,10.16,23.58s-3.32,16.89-10.21,23.48a30.87,30.87,0,0,1-23.48,10.08c-9.19,0-17-3.31-23.83-10.13a31.58,31.58,0,0,1-9.72-23.43A32.38,32.38,0,0,1,162.59,14.34Z" transform="translate(-0.01 0.01)"/></svg>