<svg xmlns="http://www.w3.org/2000/svg" viewBox="0 0 326.98 176.01"><path d="M246.68 162.42h-15a2.3 2.3 0 100 4.6h15a2.3 2.3 0 100-4.6zm-143.95.59H70.34a2.3 2.3 0 100 4.59h32.39a2.3 2.3 0 100-4.59zm23 8.41h-15a2.3 2.3 0 100 4.6h15a2.3 2.3 0 100-4.6zm199-28.91h-66.74v-36.56h12.19a2.25 2.25 0 002.25-2.25V76.01a2.26 2.26 0 00-4.44 0v25.47h-10v-33a2.26 2.26 0 00-4.51 0v49.15h-9.78V97.86a2.26 2.26 0 00-4.51 0v22a2.25 2.25 0 002.26 2.24h12v20.41h-27.17a2.36 2.36 0 000-.37l-2.29-13.48a2.24 2.24 0 00-2-1.87l-24.22-2a2.24 2.24 0 00-2.2 1.24l-7.67 15.44a2.21 2.21 0 00-.23 1h-7.77l-10.75-27.34a2.25 2.25 0 00-2.1-1.43h-18.92l-6.67-17.69a2.24 2.24 0 00-2.47-1.41l-63.82 11.54a2.24 2.24 0 00-1.85 2.21v10.66l-13.17 7.59a2.24 2.24 0 00-1 1.39l-3.79 14.52H2.25a2.25 2.25 0 100 4.5h322.48a2.25 2.25 0 000-4.5zm-264.74 0l3.25-12.5 13.47-7.77a2.25 2.25 0 001.12-1.94v-10.08l60.07-10.86 6.56 17.42a2.25 2.25 0 002.11 1.46h18.91l9.51 24.27zm132.39 0l6.49-13.07 20.94 1.69 1.9 11.38zm-6-66.53a35.51 35.51 0 0026.68-11.42 35.61 35.61 0 0011.52-26.64c0-10.27-3.87-19.28-11.47-26.74A36 36 0 00186.43.01a37.75 37.75 0 00-27 11.18 37.16 37.16 0 00-11 26.74 36.36 36.36 0 0011 26.61c7.61 7.59 16.7 11.47 27 11.47zm-23.8-61.63a32.91 32.91 0 0123.85-9.85 31.31 31.31 0 0123.56 9.84c6.84 6.72 10.16 14.43 10.16 23.58s-3.32 16.89-10.21 23.48a30.87 30.87 0 01-23.48 10.08c-9.19 0-17-3.31-23.83-10.13a31.58 31.58 0 01-9.72-23.43 32.38 32.38 0 019.67-23.57z" fill="#011627"/></svg>