<svg xmlns="http://www.w3.org/2000/svg" viewBox="0 0 122 113"><path d="M121.39 9.68l-9-9a.74.74 0 00-.25-.17H112a.79.79 0 00-.22-.05.93.93 0 00-.24.05.78.78 0 00-.24.16l-9 9a.75.75 0 001.07 1.06L111 3c-.26 32.12-9.77 57.81-28.3 76.34-.15.16-.31.31-.46.46-16.82 16.58-38 24.2-52.77 27.67a128.81 128.81 0 01-28.35 3.6.75.75 0 00-.76.74.76.76 0 00.74.77 131.08 131.08 0 0028.72-3.65c15-3.51 36.42-11.24 53.48-28.06l.47-.46C102.63 61.58 112.3 35.53 112.55 3l7.78 7.77a.74.74 0 001.06 0 .75.75 0 000-1.09z" fill="#011627"/></svg>