<svg xmlns="http://www.w3.org/2000/svg" viewBox="0 0 300 168"><defs><style>.a{fill:#011627;}</style></defs><title>empty_screen_2</title><path class="a" d="M148.8,46.69a21.3,21.3,0,0,0,16.38-7,21.89,21.89,0,0,0,7.13-16.4A23,23,0,0,0,165.26,6.8,21.9,21.9,0,0,0,148.8,0a23.76,23.76,0,0,0-16.62,6.84,23.52,23.52,0,0,0-6.74,16.44,22.36,22.36,0,0,0,6.82,16.38A23.15,23.15,0,0,0,148.8,46.69ZM135.36,10A19.08,19.08,0,0,1,148.8,4.46,17.29,17.29,0,0,1,162,9.91c3.9,4,5.8,8.34,5.8,13.35A17.45,17.45,0,0,1,162,36.53a16.85,16.85,0,0,1-13.16,5.69,18.54,18.54,0,0,1-13.39-5.77,17.77,17.77,0,0,1-5.48-13.19A18.83,18.83,0,0,1,135.36,10Zm69.4,58.12a2.21,2.21,0,0,0,1.25.38,2.27,2.27,0,0,0,1.87-1,2,2,0,0,1,.3-.39,17.8,17.8,0,0,1,12.95-5.33,17.51,17.51,0,0,1,12.94,5.3,9.61,9.61,0,0,0,1.14,1,2.28,2.28,0,0,0,1.73.42,2.31,2.31,0,0,0,1.49-1,2.42,2.42,0,0,1,.3-.39,17.8,17.8,0,0,1,13-5.33,17.48,17.48,0,0,1,12.94,5.31,3,3,0,0,0,.34.28,3.78,3.78,0,0,1,.56.46,2.25,2.25,0,0,0,3.18,0,2.22,2.22,0,0,0,0-3.16,8.28,8.28,0,0,0-1.05-.89,22.9,22.9,0,0,0-31.23-.65,22,22,0,0,0-15.29-5.83A22.43,22.43,0,0,0,205,63.91a6.93,6.93,0,0,0-.88,1.09A2.23,2.23,0,0,0,204.76,68.1ZM239.2,38a5.46,5.46,0,0,0,.63-.77,12.48,12.48,0,0,1,8.86-3.5,12.24,12.24,0,0,1,8.87,3.5,4.16,4.16,0,0,0,1.11,1,2.28,2.28,0,0,0,1.25.37A2.22,2.22,0,0,0,261.5,38a4.15,4.15,0,0,0,.64-.77,12.48,12.48,0,0,1,8.86-3.5,12.2,12.2,0,0,1,8.87,3.5,4.2,4.2,0,0,0,1.12,1,2.24,2.24,0,0,0,2.5-3.72,1.64,1.64,0,0,0-.27-.32,16.7,16.7,0,0,0-12.22-5,16.93,16.93,0,0,0-11.14,4,16.68,16.68,0,0,0-11.17-4,17,17,0,0,0-12.19,5,2,2,0,0,0-.43.57l0,.05A2.23,2.23,0,0,0,236,38,2.26,2.26,0,0,0,239.2,38ZM298,111.46H2a2.24,2.24,0,1,0,0,4.47H298a2.24,2.24,0,1,0,0-4.47ZM195.68,146.38H159.13a2.24,2.24,0,1,0,0,4.47h36.55a2.24,2.24,0,1,0,0-4.47Zm21.86-20.6H181.9a2.24,2.24,0,1,0,0,4.48h35.64a2.24,2.24,0,1,0,0-4.48Zm-41.78,37.76H134.58a2.24,2.24,0,1,0,0,4.48h41.18a2.24,2.24,0,0,0,0-4.48Zm-10.93-29.4a2.24,2.24,0,0,0-2.25-2.24H111.51a2.24,2.24,0,1,0,0,4.48h51.07A2.24,2.24,0,0,0,164.83,134.14Z"/></svg>