<svg xmlns="http://www.w3.org/2000/svg" viewBox="0 0 300 168"><path d="M148.8 46.69a21.3 21.3 0 0016.38-7 21.89 21.89 0 007.13-16.4 23 23 0 00-7.05-16.49A21.9 21.9 0 00148.8 0a23.76 23.76 0 00-16.62 6.84 23.52 23.52 0 00-6.74 16.44 22.36 22.36 0 006.82 16.38 23.15 23.15 0 0016.54 7.03zM135.36 10a19.08 19.08 0 0113.44-5.54A17.29 17.29 0 01162 9.91c3.9 4 5.8 8.34 5.8 13.35a17.45 17.45 0 01-5.8 13.27 16.85 16.85 0 01-13.16 5.69 18.54 18.54 0 01-13.39-5.77 17.77 17.77 0 01-5.48-13.19A18.83 18.83 0 01135.36 10zm69.4 58.12a2.21 2.21 0 001.25.38 2.27 2.27 0 001.87-1 2 2 0 01.3-.39 17.8 17.8 0 0112.95-5.33 17.51 17.51 0 0112.94 5.3 9.61 9.61 0 001.14 1 2.28 2.28 0 001.73.42 2.31 2.31 0 001.49-1 2.42 2.42 0 01.3-.39 17.8 17.8 0 0113-5.33 17.48 17.48 0 0112.94 5.31 3 3 0 00.34.28 3.78 3.78 0 01.56.46 2.25 2.25 0 003.18 0 2.22 2.22 0 000-3.16 8.28 8.28 0 00-1.05-.89 22.9 22.9 0 00-31.23-.65 22 22 0 00-15.29-5.83A22.43 22.43 0 00205 63.91a6.93 6.93 0 00-.88 1.09 2.23 2.23 0 00.64 3.1zM239.2 38a5.46 5.46 0 00.63-.77 12.48 12.48 0 018.86-3.5 12.24 12.24 0 018.87 3.5 4.16 4.16 0 001.11 1 2.28 2.28 0 001.25.37 2.22 2.22 0 001.58-.6 4.15 4.15 0 00.64-.77 12.48 12.48 0 018.86-3.5 12.2 12.2 0 018.87 3.5 4.2 4.2 0 001.12 1 2.24 2.24 0 002.5-3.72 1.64 1.64 0 00-.27-.32 16.7 16.7 0 00-12.22-5 16.93 16.93 0 00-11.14 4 16.68 16.68 0 00-11.17-4 17 17 0 00-12.19 5 2 2 0 00-.43.57v.05A2.23 2.23 0 00236 38a2.26 2.26 0 003.2 0zm58.8 73.46H2a2.24 2.24 0 100 4.47h296a2.24 2.24 0 100-4.47zm-102.32 34.92h-36.55a2.24 2.24 0 100 4.47h36.55a2.24 2.24 0 100-4.47zm21.86-20.6H181.9a2.24 2.24 0 100 4.48h35.64a2.24 2.24 0 100-4.48zm-41.78 37.76h-41.18a2.24 2.24 0 100 4.48h41.18a2.24 2.24 0 000-4.48zm-10.93-29.4a2.24 2.24 0 00-2.25-2.24h-51.07a2.24 2.24 0 100 4.48h51.07a2.24 2.24 0 002.25-2.24z" fill="#011627"/></svg>