<svg xmlns="http://www.w3.org/2000/svg" viewBox="0 0 122 113"><defs><style>.a{fill:#011627;}</style></defs><title>empty_screen_3</title><path class="a" d="M121.39,9.68l-9-9h0a.74.74,0,0,0-.25-.17H112a.79.79,0,0,0-.22-.05.93.93,0,0,0-.24.05h0a.78.78,0,0,0-.24.16h0l-9,9a.75.75,0,0,0,1.07,1.06L111,3c-.26,32.12-9.77,57.81-28.3,76.34-.15.16-.31.31-.46.46-16.82,16.58-38,24.2-52.77,27.67a128.81,128.81,0,0,1-28.35,3.6.75.75,0,0,0-.76.74.76.76,0,0,0,.74.77,131.08,131.08,0,0,0,28.72-3.65c15-3.51,36.42-11.24,53.48-28.06l.47-.46C102.63,61.58,112.3,35.53,112.55,3l7.78,7.77a.74.74,0,0,0,1.06,0A.75.75,0,0,0,121.39,9.68Z"/></svg>