<svg xmlns="http://www.w3.org/2000/svg" viewBox="0 0 57.15 64"><g id="Layer_2" data-name="Layer 2"><path d="M10.44 18.26v26.46a5 5 0 004.95 5h.2V60a4 4 0 108 0V49.73h10V60a4 4 0 108 0V49.73h.2a5 5 0 004.95-5v-26a3.54 3.54 0 000-.46zM4 20.57a4 4 0 00-4 4v17.14a4 4 0 008 0V24.57a4 4 0 00-4-4zm49.15 0a4 4 0 00-4 4v17.14a4 4 0 008 0V24.57a4 4 0 00-4-4zm-6.56-4.01a14.52 14.52 0 00-4.42-10.08L45.56.61a.42.42 0 00-.15-.56.42.42 0 00-.56.15l-3.29 5.7a19.08 19.08 0 00-11-4.72h-4a19.06 19.06 0 00-11 4.72L12.3.2a.42.42 0 00-.56-.15.42.42 0 00-.15.56L15 6.48a14.52 14.52 0 00-4.42 10.08zM34.5 9.41a2.07 2.07 0 014.14 0 2.07 2.07 0 01-4.14 0zm-15.43 0a2.07 2.07 0 014.14 0 2.07 2.07 0 01-4.14 0z" fill="#a4c639" id="Layer_1-2" data-name="Layer 1"/></g></svg>