<svg version="1.1" id="Layer_1" xmlns="http://www.w3.org/2000/svg" x="0" y="0" viewBox="0 0 24 24" xml:space="preserve"><path d="M1 2C2.1 1 3.3.3 4.7 0H0v3c.3-.4.7-.7 1-1zm1.3 20.9c-.9-.7-1.7-1.4-2.3-2.2V24h4c-.6-.3-1.1-.7-1.7-1.1zm13.9-8.7c.5-1 3-3.4 3.2-4.1-.2.3-1.3-1.4-1.7-1.9-.3-.1-.7-.2-1.1-.2-.9-.1-1.9-.2-2.8-.4-.7-.1-1.4-.3-2.1-.6-.7 1.6-2.4 2.8-4.2 3-.2.4-.4.8-.7 1.2 0 1.8.1 3 1.9 4.1 2.4 1.4 3.9 1.6 6.7 1.7h.2c0-1 .2-1.9.6-2.8zm4 7.5c0 .8-.1 1.6-.3 2.3H24v-3.6c-1 .9-2.4 1.3-3.8 1.3z" fill="none"/><path d="M16 11H8l4 4z"/></svg>