<svg xmlns="http://www.w3.org/2000/svg" viewBox="0 0 1494 1494">
  <path d="M747 1467c-398.2 0-720-321.8-720-720S348.8 27 747 27s720 321.8 720 720-321.8 720-720 720z" fill="#f2f2f2"/>
  <g stroke="#000">
    <path d="M641.4 447.8l27.6 784.6 580.2-270.8-21.2-604.5-586.6 90.7h0z" fill-rule="evenodd" clip-rule="evenodd" fill="#0084c8" stroke-width="10" stroke-linejoin="round"/>
    <path d="M259.4 349.2l382 98.6 586.4-90.7-491-56.1-477.4 48.2zm0 0l382 98.6 27.6 784.6-391.7-372.2-17.9-511h0z" fill-rule="evenodd" clip-rule="evenodd" fill="#19aeff" stroke-width="10" stroke-linejoin="round"/>
    <path d="M298.8 499.7s49.7-102.2 151.9 3c49.7 51.1 84.7 108 131.4 32.2m-283.3 99.6s49.7-102.2 151.9 3c49.7 51.1 84.7 108 131.4 32.2M298.8 567.1s49.7-102.2 151.9 3c49.7 51.1 84.7 108 131.4 32.2" fill="none" stroke-width="10"/>
  </g>
</svg>
