<svg xmlns="http://www.w3.org/2000/svg" viewBox="0 0 64 64">
    <defs>
        <style>
            .b{fill:#f90;fill-rule:evenodd}
        </style>
    </defs>
    <circle cx="32" cy="32" r="32" fill="#f2f2f2"/>
    <path d="M31.4 52.89l-8.86-3.17V36.73l8.86 3.02v13.14zM20.86 34.76L12 31.58V18.6l8.86 3.02v13.14zM22.48 34.76l8.86-3.18V18.6l-8.86 3.02v13.14zM12.91 17.63l8.96-2.52 8.31 2.68-8.31 2.82-8.96-2.98zM41.52 34.76l-8.86-3.18V18.6l8.86 3.02v13.14zM43.14 34.76L52 31.58V18.6l-8.86 3.02v13.14zM33.57 17.63l8.97-2.52 8.31 2.68-8.31 2.82-8.97-2.98z" class="b"/>
    <path d="M41 46.42a1.51 1.51 0 0 0-.58-1.28 8 8 0 0 0-2.11-.93 16.27 16.27 0 0 1-2.42-1 4 4 0 0 1-2.42-3.53 3.48 3.48 0 0 1 .65-2.06A4.26 4.26 0 0 1 36 36.24a7 7 0 0 1 2.73-.5 6.34 6.34 0 0 1 2.71.55 4.23 4.23 0 0 1 1.85 1.55 4.12 4.12 0 0 1 .66 2.29H41a1.92 1.92 0 0 0-.61-1.52 2.54 2.54 0 0 0-1.73-.54 2.72 2.72 0 0 0-1.67.45 1.44 1.44 0 0 0-.6 1.2 1.36 1.36 0 0 0 .7 1.16 7.88 7.88 0 0 0 2.06.88 8.79 8.79 0 0 1 3.64 1.87 3.7 3.7 0 0 1 1.14 2.77 3.39 3.39 0 0 1-1.4 2.89 6.09 6.09 0 0 1-3.75 1.05 7.26 7.26 0 0 1-3-.6 4.76 4.76 0 0 1-2.06-1.64 4.25 4.25 0 0 1-.72-2.42h3c0 1.57.94 2.35 2.82 2.35a2.77 2.77 0 0 0 1.63-.42 1.39 1.39 0 0 0 .55-1.19z"/>
    <path d="M32.89 36.78a5.7 5.7 0 0 1 2.51-1.92 6.63 6.63 0 0 1 1-.33l-4-1.29-9 2.52 8.64 2.87a4.92 4.92 0 0 1 .85-1.85zM35.18 51.11a6.52 6.52 0 0 1-2.18-1.5v3.28l3.62-1.3a7.14 7.14 0 0 1-1.44-.48z" class="b"/>
    <path d="M49 41.79h1.51a2.12 2.12 0 0 0 1.59-.54 2 2 0 0 0 .52-1.42 1.75 1.75 0 0 0-.52-1.34 2 2 0 0 0-1.43-.49 2.13 2.13 0 0 0-1.36.44 1.45 1.45 0 0 0-.54 1.16H46a3.49 3.49 0 0 1 .6-2 4.12 4.12 0 0 1 1.68-1.38 5.62 5.62 0 0 1 2.37-.49 5.31 5.31 0 0 1 3.54 1.07 3.71 3.71 0 0 1 1.28 3 3 3 0 0 1-.6 1.79 3.86 3.86 0 0 1-1.56 1.26 3.55 3.55 0 0 1 1.79 1.29 3.47 3.47 0 0 1 .59 2 3.74 3.74 0 0 1-1.38 3 5.56 5.56 0 0 1-3.66 1.14 5.25 5.25 0 0 1-3.48-1.12 3.68 3.68 0 0 1-1.35-3h2.82a1.63 1.63 0 0 0 .6 1.31 2.22 2.22 0 0 0 1.48.51 2.25 2.25 0 0 0 1.58-.53 1.85 1.85 0 0 0 .57-1.41q0-2.13-2.34-2.13H49z"/>
</svg>
