<svg xmlns="http://www.w3.org/2000/svg" viewBox="0 0 64 64">
    <defs>
        <style>
            .a{fill:none}.b{fill:#f2f2f2}.c{clip-path:url(#a)}.d{fill:#fbbc05}.e{fill:#ea4335}.f{fill:#34a853}.g{fill:#4285f4}
        </style>
        <clipPath id="a">
            <path d="M49.18 28.73H32.41v7h9.65c-.9 4.42-4.66 7-9.65 7a10.64 10.64 0 1 1 0-21.28A10.37 10.37 0 0 1 39 23.74l5.23-5.24A18 18 0 1 0 32.41 50c9 0 17.18-6.55 17.18-18a14.64 14.64 0 0 0-.41-3.27z" class="a"/>
        </clipPath>
    </defs>
    <circle cx="32" cy="32" r="32" class="b"/>
    <g class="c">
        <path d="M12.77 42.64V21.36L26.68 32z" class="d"/>
    </g>
    <g class="c">
        <path d="M12.77 21.36L26.68 32l5.73-5 19.64-3.19V12.36H12.77z" class="e"/>
    </g>
    <g class="c">
        <path d="M12.77 42.64l24.55-18.82 6.46.82 8.27-12.28v39.28H12.77z" class="f"/>
    </g>
    <g class="c">
        <path d="M52.05 51.64L26.68 32l-3.27-2.45 28.64-8.19z" class="g"/>
    </g>
</svg>
