<svg xmlns="http://www.w3.org/2000/svg" id="Layer_1" viewBox="0 0 64 64"><style>.st1{fill:#d33833}.st1,.st5,.st6{fill-rule:evenodd;clip-rule:evenodd}.st5{fill:#dcd9d8}.st6{fill:#49728b}.st7{fill:#335061}.st7,.st8{fill-rule:evenodd;clip-rule:evenodd}.st8,.st9{fill:#fff}.st10{fill:none;stroke:#d33833;stroke-width:2}.st11{fill:#231f20}.st11,.st12,.st13,.st14{fill-rule:evenodd;clip-rule:evenodd}.st12{fill:#f0d6b7}.st13{fill:#81b0c4}.st14{fill:#ef3d3a}.st15{fill:#1d1919}.st15,.st16{fill-rule:evenodd;clip-rule:evenodd}.st16,.st17{fill:#f7e4cd}</style><circle cx="32" cy="32" r="32" fill="#f2f2f2"/><g id="g3393"><path id="path22" d="M48.8 31.1c0 9.5-7.5 17.2-16.8 17.2s-16.8-7.7-16.8-17.2S22.7 13.9 32 13.9s16.8 7.7 16.8 17.2" class="st1"/><path id="path24" fill="#ef3d3a" d="M15.9 35.4s-1.2-18 15.3-18.5L30 15l-9 3-2.6 3-2.2 4.3-1.3 5 .4 3.3"/><path id="path26" fill="#231f20" d="M20.5 19.4c-3 3-4.8 7.2-4.8 11.8 0 4.6 1.8 8.8 4.8 11.8s7 4.9 11.5 4.9S40.6 46 43.5 43c3-3 4.8-7.2 4.8-11.8 0-4.6-1.8-8.8-4.8-11.8s-7-4.9-11.5-4.9-8.6 1.9-11.5 4.9zm-.8 24.3c-3.1-3.2-5.1-7.6-5.1-12.5s1.9-9.3 5.1-12.5c3.1-3.2 7.5-5.2 12.3-5.2 4.8 0 9.1 2 12.3 5.2 3.1 3.2 5.1 7.6 5.1 12.5s-1.9 9.3-5.1 12.5c-3.1 3.2-7.5 5.2-12.3 5.2-4.8 0-9.1-2-12.3-5.2"/><path id="path32" fill="#6d6b6d" fill-rule="evenodd" d="M21.7 19.9l1.7-.6 1.3.6.6 1.4.8-.1.2-.8-.4-1.4.4-3.5-.3-1.9 1.2-1.3 2.5-2-.7-1-3.6 1.7-1.4 1.2-.9 1.8-1.3 1.7-.4 2.1.3 2.1" clip-rule="evenodd"/><path id="path34" d="M24.3 13.9s1-2.4 4.8-3.5.2-.8.2-.8l-4.2 1.6-1.6 1.6-.6 1.2 1.4-.1" class="st5"/><path id="path36" d="M22.4 19.5s-1.3-4.5 3.8-5.1l-.2-.8-3.5.8-1 3.3.3 2.2.6-.4" class="st5"/><path id="path58" d="M27.6 43l-2.9.1.8.6 2.1.3" class="st6"/><path id="path60" d="M37.5 42.4l2.4-.1.6 5.9-2.5.3-.5-6.1" class="st7"/><path id="path64" d="M39.7 41.9l-2.2.4.3 1.8c.8.4 2.2-.6 2.2-.6" class="st6"/><path id="path68" d="M29.8 55l-1.3-5.4-.7-4-.1-3 6-.3h3.7l-.3 6.7.6 5.2-.1 1-4.9.4-2.9-.6" class="st8"/><path id="path70" d="M36.6 42.3s-.3 6.7.6 11.4c0 0-1.9 1.2-4.7 1.5l5.4-.2.6-.4-.8-10.5-.2-2.2" class="st5"/><path id="path72" d="M40.5 47.7L43 47l4.7-.3.7-2.2-1.3-3.8-1.5-.2-2.1.6-2 1-1-.2-.8.3" class="st8"/><path id="path74" d="M40.5 46.4s1.7-.8 1.9-.7l-.7-3.5.8-.3s.6 3.3.6 3.7c0 0 3.6.2 3.9.2 0 0 .8-1.5.6-3l.7 2.1.1 1.2-1 1.5-1.2.3-1.9-.1-.6-.8-2.2.3-.7.3" class="st5"/><path id="path76" d="M38 41.9l-1.4-3.6-1.5-2.1s.3-.9.8-.9h1.5l1.4.5-.1 2.4-.7 3.7" class="st9"/><path id="path86" d="M40.5 35.5c-1.1 0-2.1-.2-2.9-.4.1-.4-.1-.7 0-1 .2-.2.6-.2 1-.2-.3-.2-.8-.2-1.1-.1 0-.2-.1-.4-.2-.6.6-.2 2.1-1.6 2.9-1.2.4.2.6 1.5.6 2.1 0 .6-.1 1.1-.3 1.4z" class="st10"/><path id="path90" d="M35.3 33.7v.2c-.3.2-.9.2-1.3.4.5 0 1 .2 1.4.3v.6c-.6.4-1.2 1.1-1.9 1.5-.3.2-1.6.7-1.9.6-.2 0-.2-.3-.3-.6-.2-.5-.6-1.4-.6-2.1 0-1-.1-2.7.9-2.5.9.2 1.9.6 2.5.9.4.4.6.7 1.2.7z" class="st10"/><path id="path92" d="M36 34.9c-.1-.5-.2-.7-.2-1.2 1.4-.9 1.7 1.7.2 1.2" class="st1"/><path id="path94" d="M36 34.9c-.1-.5-.2-.7-.2-1.2 1.4-.9 1.7 1.7.2 1.2z" class="st10"/><path id="path118" d="M45.9 42.3c-1 .2-1.7 1.2-2.7 1.1.6-.8 1.5-1.1 2.7-1.1" class="st11"/><path id="path120" d="M46.3 43.8c-.8.1-1.8.2-2.6.1.4-.5 1.9-.3 2.6-.1" class="st11"/><path id="path122" d="M46.6 45.1c-.9 0-2 0-2.9-.1.5-.5 2.3-.1 2.9.1" class="st11"/><path id="path124" d="M39.4 48.8c.1 1.1.6 2.3.5 3.5-.5.2-.8.3-1.5.3 0-1.1-.2-2.7-.1-3.7.3.1.8-.2 1.1-.1" class="st5"/><path id="path126" d="M37.9 32c-.5.3-.8.7-1.3 1-1 0-1.5-.1-2.2-.6 0 0 .1 0 .1-.1 1.1.4 2.4-.2 3.4-.3" class="st12"/><path id="path128" d="M32.5 39.1c.3-1.2 1.4-1.9 2.4-2.6 1.1 1.3 1.7 3 2.4 4.7-1.7-.5-3.4-1.3-4.8-2.1" class="st13"/><path id="path62" d="M38.1 42.4l3.6-.2s1.5-3.7 1.5-3.9c0-.2 1.3-5.4 1.3-5.4l-2.9-3-.6-.5-1.5 1.5v6l-1.4 5.5" class="st7"/><path id="path66" d="M39.8 30.7l4.5 3.3.1-1.5-3.4-3.1-1.2 1.3" class="st6"/><path id="path84" d="M40.5 35.5c-1.1 0-2.1-.2-2.9-.4.1-.4-.1-.7 0-1 .2-.2.6-.2 1-.2-.3-.2-.8-.2-1.1-.1 0-.2-.1-.4-.2-.6.6-.2 2.1-1.6 2.9-1.2.4.2.6 1.5.6 2.1 0 .6-.1 1.1-.3 1.4" class="st1"/><path id="path96" d="M38 35.3s-.4-.6-.1-.8c.3-.2.6 0 .8-.3s0-.5.1-.9.4-.4.7-.5c.3-.1 1.2-.2 1.3.1l-.4-1.2-.8-.3-2.4 1.4-.1.7V35" class="st14"/><path id="path116" d="M41.1 36.8c-.9 1.5-1.7 3.1-2.8 4.4.4-1.3.6-3.5.7-5.1.9-.4 1.7.1 2.1.7" class="st13"/><path id="path30" d="M36.9 42.3l-9.2.4v1.5l.8 5.4-.4.4-6.4-2.2-.4-.8-.6-7.2-1.5-4.4-.3-1L24 31l1.6-.6 1.4 1.7 1.2 1.1 1.4.4.6.2.8 3.3.6.7 1.5-.5-1 2 5.6 2.6-.8.4" class="st7"/><path id="path54" d="M27 32.1l-6 2.7s2.5 9.9 1.2 13l-.9-.3-.1-3.8-1.7-7.2-.7-2 6.3-4.2 1.9 1.8" class="st6"/><path id="path56" d="M27.6 37.6l.9 1v3.8h-1s-.1-2.7-.1-3c0-.3.1-1.5.1-1.5" class="st6"/><path id="path88" d="M35.3 33.7v.2c-.3.2-.9.2-1.3.4.5 0 1 .2 1.4.3v.6c-.6.4-1.2 1.1-1.9 1.5-.3.2-1.6.7-1.9.6-.2 0-.2-.3-.3-.6-.2-.5-.6-1.4-.6-2.1 0-1-.1-2.7.9-2.5.9.2 1.9.6 2.5.9.4.4.6.7 1.2.7" class="st1"/><path id="path98" d="M31.3 37.4c-.1-1-.2-2-.2-3-.1-1.5.4-1.2 1.7-1.2.2 0 1.2.2 1.3.4.3.7-.6.6.4 1.1.8.5 2.3-.3 2-1.3-.2-.2-1-.1-1.3-.2-.5-.3-1-.5-1.5-.8-.6-.3-2.1-.8-2.8-.4-1.7 1.2.1 4.1.7 5.3" class="st14"/><path id="path78" d="M38.3 40.7s-1.8-3.5-1.8-4c0 0 .3-.8.8-.6l1.4.7v-1.2l-2.2-.4-1.3.6 2.3 5.5.5.1" class="st5"/><path id="path134" d="M37.7 36.8c0 .2-.2.4-.4.4s-.4-.2-.4-.4.2-.4.4-.4.4.2.4.4" class="st15"/><path id="path136" d="M38 38.4c0 .2-.2.4-.4.4s-.4-.2-.4-.4.2-.4.4-.4c.3.1.4.2.4.4" class="st15"/><path id="path80" d="M30.4 32.2l-1.8-.2-1.6-.5v.6l.8.9 2.6 1.2" class="st9"/><path id="path82" d="M27.5 32.4s2 .8 2.6.6l.1.8-1.8-.4-1.1-.8.2-.2" class="st5"/><path id="path28" d="M39.1 31.2l-2.6.4-3.4.4-2.2.1-2.3-.1-1.6-.5-1.5-1.6-1.2-3.3-.3-.7-1.5-.5-.9-1.5-.6-2.1.7-1.9 1.7-.6 1.3.6.6 1.4.8-.1.3-.3-.3-1.5-.1-1.9.4-2.6v-1.5l1.2-1.9 2.1-1.5 3.6-1.5 4 .6 3.5 2.5 1.6 2.6 1 1.9.3 4.6-.8 4-1.4 3.5-1.5 2" class="st12"/><path id="path38" d="M24.5 25.5l.8-.8s.4 0 .4.5c.1.4.3 4.5 3 6.7.3.2-2.1-.3-2.1-.3l-2.1-3.2" class="st16"/><path id="path40" d="M36.3 24.2s.1-1.9.7-1.8c.5.1.5.7.5.7s-1.3.8-1.2 1.1" class="st16"/><path id="path42" d="M41.6 17.1s-1.1.2-1.2 1.2c-.1.9 1.2.2 1.3.1" class="st17"/><path id="path44" d="M33.8 17.2s-1.4.2-1.4 1.1c0 .9 1.6.8 2.1.4" class="st17"/><path id="path46" d="M25.1 21.3s-2.4-1.5-2.7-.1c-.3 1.4-.8 2.4.4 3.9l-.8-.2-.8-2-.3-1.9 1.5-1.5 1.7.1 1 .8v.9" class="st16"/><path id="path48" d="M26.3 17.3s1.1-5.6 6.6-6.7c4.5-.9 6.9.2 7.8 1.2 0 0-4-4.8-7.9-3.3-3.8 1.5-6.7 4.2-6.6 5.9l.1 2.9" class="st16"/><path id="path50" d="M41.1 12.4s-1.9-.1-1.9 1.6c0 0 0 .3.1.5 0 0 1.5-1.7 2.4-.8" class="st16"/><path id="path52" d="M33 14.7s-.3-2.6-2.5-1.1c-1.4 1-1.3 2.3-1 2.6.3.3.2.8.4.4s.1-1.5.8-1.8c.7-.3 1.8-.7 2.3-.1" class="st16"/><path id="path100" d="M33 14.7c-1.7-.4-2.6.7-3.1 1.9-.5-.1-.3-.8-.2-1.1.3-.9 1.6-2 2.6-1.9.4.2 1 .6.7 1.1" class="st11"/><path id="path102" d="M41.5 16.7s.1 0 0 0c.5.8.8 1.7 1.3 2.4-.3.8-2.5 1.5-2.5.1.5-.2 1.3 0 1.7-.3-.2-.7-.5-1.2-.5-2.2" class="st11"/><path id="path104" d="M33.9 16.7c.4.7.5 1.4 1 1.9.2.2.7.5.5 1.2-.1.2-.4.5-.7.6-.8.2-2.8.1-2.1-1 .7 0 1.6.4 2.1-.1-.4-.6-1.1-1.8-.8-2.6" class="st11"/><path id="path106" d="M41.2 23.7c-1.3.8-2.7 1.7-4.7 1.5-.4-.4-.6-1.2-.2-1.8.2.4.1 1.1.7 1.2 1.2.2 2.5-.7 3.4-1 .5-.9 0-1.2-.5-1.8-1-1.2-2.2-2.6-2.2-4.3.4-.3.4.4.5.6.5 1.2 1.8 2.7 2.7 3.7.2.2.6.5.6.6.1.4-.4 1-.3 1.3" class="st11"/><path id="path108" d="M24.7 22.9c-.4-.2-.5-1.2-.9-1.2-.7 0-.5 1.3-.5 2.1-.5-.4-.5-1.7-.2-2.3-.4-.2-.5.2-.8.3.2-2.1 2.8-1 2.4 1.1" class="st11"/><path id="path110" d="M42 24.5c-.6 1.1-1.4 2.3-3.1 2.4 0-.4-.1-.9 0-1.1 1.3-.1 2.1-.8 3.1-1.3" class="st11"/><path id="path112" d="M33.8 25.3c1.1.6 3.1.6 4.6.6.1.3.1.7.1 1.1-2 .1-4.2-.4-4.7-1.7" class="st11"/><path id="path114" d="M33.6 26.3c.8 1.9 3.4 1.7 5.5 1.6-.1.2-.3.5-.6.6-.7.3-2.6.5-3.6 0-.6-.3-1-1.1-1.4-1.5-.1-.1-.9-.7.1-.7" class="st11"/><path id="path132" d="M32.1 25.7c.1-.1.5-.3 1.2 0 0 0-.8.1-.7 1.4l-.3-.1c-.1.1-.4-1-.2-1.3" class="st16"/><path id="path130" d="M38.3 49c0 1 .1 2.6.1 3.7.7 0 1-.1 1.5-.3.1-1.3-.4-2.4-.5-3.5-.3-.2-.8.1-1.1.1zm-10.5-5.8c.4 4.1 1.1 7.5 2.3 11.1 2.6.8 5.8.9 8.1.1-.4-2-.2-4.5-.5-6.7-.2-1.6-.1-3.3-.3-5-2.9-.4-6.8 0-9.6.5zm10.2-.3c0 1.8.1 3.5.2 5.2.7-.1 1.1-.2 1.8-.3-.2-1.7-.2-3.6-.6-5.1-.5 0-.9 0-1.4.2zm3.4-.3c-.3-.1-.7 0-1 0 .1 1.4.5 3 .6 4.5.5 0 .7-.2 1.1-.3.1-1.3 0-3.1-.7-4.2zm5.2 4.7c1-.2 1.6-1.5 1.4-2.7-.2-.8-.5-2.4-.9-3-.3-.4-1-.9-1.6-.6-.9.6-2.6.8-3.3 1.5.3 1.1.4 2.7.6 4.1 1.2.1 2.6-.3 3.6.1-.7.2-1.6.2-2.1.5.4.3 1.6.3 2.3.1zm-9.3-6.1c-.7-1.7-1.3-3.4-2.4-4.7-1 .7-2.1 1.3-2.4 2.6 1.4.8 3.1 1.6 4.8 2.1zm1.7-5.1c-.1 1.7-.3 3.8-.7 5.1 1.1-1.3 1.9-2.9 2.8-4.4-.4-.6-1.2-1.1-2.1-.7zm-1.9-.7c-.4 0-.7.5-1.3.2-.1.1-.2.3-.3.4 1.1 1.4 1.7 3.3 2.5 5 .5-1.6.4-3.3.5-5-.6.1-1-.6-1.4-.6zm-1.3-1.7c0 .5.1.6.2 1.2 1.5.5 1.2-2.1-.2-1.2zm-1.7-.5c-.7-.4-1.7-.8-2.5-.9-1.1-.2-1 1.5-.9 2.5 0 .8.4 1.6.6 2.1.1.2.1.5.3.6.4.1 1.6-.4 1.9-.6.7-.4 1.3-1 1.9-1.5v-.6c-.4-.2-.8-.3-1.4-.3.4-.2.9-.2 1.3-.4v-.2c-.6-.2-.8-.5-1.2-.7zM27.7 32c-.6.6 1.6 1.3 2.2 1.4 0-.4.2-.7.2-.9-.8-.2-1.9-.1-2.4-.5zm6.8.3s-.1 0 0 0c.6.6 1.2.8 2.1.7.4-.3.8-.7 1.3-1-1 .1-2.3.7-3.4.3zm6.3 1.9c0-.6-.2-1.9-.6-2.1-.8-.5-2.3 1-2.9 1.2.1.2.2.3.2.6.4-.1.8 0 1.1.1-.4 0-.8 0-1 .2-.1.3 0 .6 0 1 .9.2 1.8.4 2.9.4.2-.4.3-.9.3-1.4zm-14.1-1.7c-.2-.1-1.4-1.7-1.5-1.6-2.1.8-4.1 2.3-5.9 3.7 1.7 3.6 2.4 8.1 2.5 12.4 1.9.9 3.7 2.2 6.3 2.4-.3-2.2-.6-4.1-.8-6.1-.7-.3-1.6 0-2.2-.1 0-.7.9-.3 1-.8.1-.4-.5-.4-.3-1 .5.2.7.6 1.3.7.5-1 0-2.9.1-3.7 0-.2.1-.9.4-.8.3.1 0 2 0 2.8 0 .8-.1 1.5.2 2 2.6-.3 5.1-.6 7.9-.6-.6-.3-1.3-.5-2.1-1-.4-.2-1.8-.7-1.9-1.2-.2-.6.5-1 .6-1.6-1.3.7-1.5-.7-1.8-1.6-.3-.9-.4-1.5-.5-2.1-1.1-.5-2.3-1.1-3.3-1.8zm13-1.4c1.8-.9 2.1 3.2 1.4 4.5.1.4.5.5.6.9-1 1.8-2.1 3.4-3.1 5.2.8-.5 1.8-.1 2.7-.4.3-.1.6-.9.8-1.5.7-1.6 1.4-3.7 1.7-5.2.1-.4.3-1.1.2-1.4-.1-.6-.8-1-1.2-1.3-.7-.6-1.2-1.2-1.9-1.8-.3.4-1 .7-1.2 1zm-17-15.7c-.8.9-.7 2.7-.6 3.9 1.5-1 3.6.1 3.5 1.7.7 0 .3-.9.1-1.5-.4-1.9.7-3.9.1-5.6-1.3.1-2.3.6-3.1 1.5zm6-5.4c-1.9.5-4.4 1.9-5.2 3.7.6-.1 1-.4 1.6-.4.2 0 .5.1.8 0 .5-.1 1-1.3 1.4-1.7.4-.4.8-.6 1.2-1 .2-.1.5-.1.5-.4-.1-.2-.2-.3-.3-.2zm10 .5c-2-1.1-5.4-2-7.5-.9-1.7.9-4 2.3-4.8 4 .7 1.7-.2 3.3-.3 5.1 0 .9.4 1.7.5 2.8-.3.4-1 .5-1.6.4-.2-.9-.5-1.9-1.4-2-1.3-.1-2.3.9-2.3 2.1-.1 1.3 1 3.5 2.6 3.4.6-.1.7-.7 1.4-.7.4.7-.5.9-.6 1.4 0 .1.1.6.1.9.3 1.2.9 2.7 1.5 3.5.8 1.1 2.3 1.3 4 1.4.3-.6 1.4-.6 2.1-.4-.8-.3-1.6-1.2-2.3-1.9-.8-.8-1.5-1.7-1.6-2.8 1.4 2 2.6 3.7 5.2 4.6 2 .7 4.2-.3 5.7-1.4.6-.4 1-1.1 1.4-1.8 1.7-2.4 2.4-5.8 2.3-9.1-.1-1.4-.1-2.7-.5-3.6-.5-1-2.1-1.8-3-.9-.2-.9.8-1.5 1.9-1.2-.8-1-1.6-2.3-2.8-2.9zm3.7 30.7c1.6-.8 4.5-2.1 5.4 0 .4.8.8 2.1 1 2.9.3 1.1-.3 3.5-1.4 3.8-1 .3-2.2.3-3.4.1-.1-.1-.3-.3-.4-.5-.9 0-1.7 0-2.4.4.1.6-.4.7-.8.9-.3 1.2.6 2.8.4 3.9-.2.8-1.1.9-1.8 1 0 .4 0 .8.1 1.2-.2.6-.9.9-1.6 1-2.3.3-5.7.4-7.9-.4-.6-1.5-1.1-3.3-1.6-5-2.1.2-3.8-.9-5.5-1.7-.6-.3-1.3-.4-1.5-.8-.2-.4-.1-1.3-.2-2-.1-2-.2-3.9-.8-6-.2-.9-.6-1.7-.9-2.6-.3-.8-.7-1.8-.9-2.6-.2-1.2 1-1.3 1.7-1.8 1.1-.8 2-1.3 3.2-2 .4-.2 1.5-.8 1.6-1 .2-.5-.4-1.2-.6-1.6-.3-.6-.4-1.1-.5-1.8-1-.2-1.8-.8-2.3-1.5-.8-1.1-1.3-3.2-.6-4.8.1-.1.3-.4.4-.6.1-.4-.1-.9-.2-1.3-.1-2.1.4-3.9 1.8-4.5.6-2.3 2.6-3 4.5-4.1.7-.4 1.5-.7 2.3-1 2.9-1.1 7.4-.9 9.8 1 1 .8 2.7 2.4 3.3 3.6 1.6 3.1 1.4 8.4.4 12.2-.1.5-.4 1.3-.7 1.9-.2.4-.8 1.3-.8 1.7.1.4 1.5 1.4 1.8 1.7.5.5 1.5 1.2 1.6 1.8.1.7-.3 1.6-.5 2.3-.6 2.1-1.2 4.2-2 6.2" class="st11"/></g></svg>