<svg xmlns="http://www.w3.org/2000/svg" xmlns:sodipodi="https://sodipodi.sourceforge.net/DTD/sodipodi-0.dtd" xmlns:inkscape="https://www.inkscape.org/namespaces/inkscape" id="svg2" version="1.1" inkscape:version="0.48.0 r9654" xml:space="preserve" sodipodi:docname="jenkins.svg" viewBox="0 0 64 64">
  <defs>
    <style>
      .cls-2{fill:#d33833}.cls-3{fill:#ef3d3a}.cls-4{fill:#231f20}.cls-5{fill:#f0d6b7}.cls-6{fill:#335061}.cls-8{fill:#dcd9d8}.cls-9{fill:#f7e4cd}.cls-10{fill:#49728b}.cls-11{fill:#fff}.cls-12{fill:none;stroke:#d33833;stroke-width:2px}.cls-13{fill:#81b0c4}.cls-14{fill:#1d1919}
    </style>
  </defs>
    <circle cx="32" cy="32" r="32" fill="#f2f2f2"/>
    <path class="cls-2" d="M50 31.73A18 18 0 0132.23 49.9a18 18 0 01-17.77-18.17 18 18 0 0117.77-18.17A18 18 0 0150 31.73"/>
    <path class="cls-3" d="M15.19 36.23S13.9 17.28 31.36 16.74l-1.22-2-9.47 3.18L18 21l-2.37 4.53-1.35 5.28.41 3.52"/>
    <path class="cls-4" d="M20.06 19.34A17.77 17.77 0 0015 31.8a17.77 17.77 0 005 12.46 17 17 0 0012.17 5.16 17 17 0 0012.17-5.16 17.77 17.77 0 005-12.46 17.77 17.77 0 00-5-12.46 17 17 0 00-12.17-5.16A17 17 0 0020 19.34zM19.27 45a18.88 18.88 0 01-5.36-13.2 18.88 18.88 0 015.36-13.23 18.06 18.06 0 0113-5.49 18.06 18.06 0 0113 5.49 18.87 18.87 0 015.27 13.23A18.87 18.87 0 0145.18 45a18.06 18.06 0 01-13 5.49 18.07 18.07 0 01-13-5.49"/>
    <path class="cls-5" d="M39.7 31.83l-2.7.41-3.65.41-2.35.06-2.3-.07-1.76-.54-1.56-1.69L24.14 27l-.27-.74-1.62-.54-.95-1.56-.68-2.23.74-2 1.76-.61 1.42.68.68 1.49.81-.14.27-.35-.3-1.55-.07-2 .41-2.71v-1.55l1.23-2 2.19-1.49 3.79-1.62 4.2.61 3.65 2.64L43.09 14l1.08 2 .27 4.87-.81 4.2-1.49 3.72-1.42 2"/>
    <path class="cls-6" d="M37.4 43.54l-9.68.41v1.62l.81 5.68-.41.47-6.77-2.3-.47-.81-.67-7.61-1.56-4.6-.34-1.08 5.41-3.72 1.69-.68 1.49 1.83 1.29 1.15 1.49.47.68.2.81 3.52.61.74 1.56-.54-1.08 2.1 5.89 2.77-.74.41"/>
    <path d="M21.36 19.92l1.76-.61 1.42.68.68 1.49.81-.14.2-.81-.4-1.53.41-3.72-.34-2 1.22-1.42 2.64-2.1-.74-1-3.72 1.83-1.56 1.22-.88 1.89-1.36 1.76-.41 2.17.27 2.3" fill="#6d6b6d"/>
    <path class="cls-8" d="M24.14 13.56s1-2.5 5.08-3.72.2-.88.2-.88L25 10.65l-1.69 1.69-.74 1.35 1.56-.14M22.11 19.45s-1.42-4.74 4-5.41l-.2-.81-3.72.88-1.08 3.52.27 2.3.74-.47"/>
    <path class="cls-9" d="M24.27 25.74l.89-.86a.57.57 0 01.47.52c.07.47.27 4.74 3.18 7 .27.21-2.17-.34-2.17-.34l-2.17-3.38M36.73 24.46s.16-2.05.71-1.89a.76.76 0 01.55.71s-1.34.87-1.26 1.18M42.34 16.95s-1.12.24-1.22 1.22 1.22.2 1.42.14M34.15 17s-1.49.2-1.49 1.15 1.69.88 2.17.47M25 21.41s-2.57-1.56-2.84-.07-.88 2.57.41 4.13l-.88-.27-.81-2.1-.27-2 1.56-1.62 1.76.14 1 .81.07 1M26.17 17.15s1.15-6 7-7.11c4.79-.95 7.31.2 8.26 1.29 0 0-4.26-5.07-8.32-3.52s-7 4.4-7 6.23a29.74 29.74 0 01.07 3.11M41.87 12s-2-.07-2 1.69a1.35 1.35 0 00.14.54s1.56-1.76 2.5-.81"/>
    <path class="cls-9" d="M33.28 14.42s-.34-2.7-2.64-1.13c-1.49 1-1.35 2.44-1.08 2.71s.2.82.4.44.14-1.59.88-1.93 2-.72 2.44-.09"/>
    <path class="cls-10" d="M26.91 32.71l-6.36 2.84S23.19 46 21.84 49.29l-.95-.29-.07-4-1.76-7.58-.74-2.1 6.68-4.5 2 1.89M27.57 38.51l.9 1.1v4.06h-1.08s-.14-2.84-.14-3.18.14-1.56.14-1.56M27.59 44.28l-3 .14.88.61 2.17.34"/>
    <path class="cls-6" d="M38 43.61l2.5-.07.61 6.23-2.57.34-.54-6.5"/>
    <path class="cls-6" d="M38.69 43.61l3.79-.2S44 39.48 44 39.28s1.35-5.68 1.35-5.68l-3-3.18-.61-.54-1.62 1.62v6.29l-1.42 5.82"/>
    <path class="cls-10" d="M40.38 43.13l-2.38.48.34 1.89c.88.41 2.37-.68 2.37-.68M40.45 31.29l4.74 3.52.14-1.62-3.59-3.32-1.29 1.42"/>
    <path class="cls-11" d="M29.94 56.94l-1.4-5.69-.7-4.19-.12-3.11 6.34-.34H38l-.36 7.11.61 5.48-.07 1-5.14.41-3.11-.68"/>
    <path class="cls-8" d="M37.13 43.54a59.85 59.85 0 00.68 12 12.93 12.93 0 01-5 1.62l5.68-.2.68-.41-.81-11.1-.2-2.37"/>
    <path class="cls-11" d="M41.24 49.22l2.64-.74 5-.27.74-2.3-1.35-4-1.56-.2-2.17.68-2.08 1-1.1-.2-.86.34"/>
    <path class="cls-8" d="M41.19 47.87a9.91 9.91 0 012-.74l-.74-3.72.88-.34S44 46.58 44 47c0 0 3.79.2 4.13.2a6.15 6.15 0 00.57-3.2l.74 2.17.07 1.22L48.43 49l-1.22.27-2-.07-.68-.88-2.37.34-.74.27"/>
    <path class="cls-11" d="M38.53 43.07L37 39.28 35.49 37s.34-.95.81-.95h1.56l1.49.54-.14 2.5-.68 3.92"/>
    <path class="cls-8" d="M38.82 41.78a31.54 31.54 0 01-1.89-4.2s.34-.81.81-.61 1.49.74 1.49.74v-1.28l-2.3-.43-1.56.2L38 42.39l.54.07"/>
    <path class="cls-11" d="M30.55 32.85l-1.87-.2-1.76-.54v.61l.86.95 2.71 1.22"/>
    <path class="cls-8" d="M27.52 33.05s2.1.88 2.77.68l.07.81-1.89-.41-1.15-.81.2-.27"/>
    <path class="cls-2" d="M41.23 36.33a12.86 12.86 0 01-3.09-.43 9.58 9.58 0 010-1 2.42 2.42 0 011.06-.22 1.84 1.84 0 00-1.18-.13 1.88 1.88 0 00-.2-.62c.65-.23 2.17-1.74 3-1.24.41.24.58 1.6.61 2.26a2.3 2.3 0 01-.27 1.39"/>
    <path class="cls-12" d="M41.23 36.33a12.86 12.86 0 01-3.09-.43 9.58 9.58 0 010-1 2.42 2.42 0 011.06-.22 1.84 1.84 0 00-1.18-.13 1.88 1.88 0 00-.2-.62c.65-.23 2.17-1.74 3-1.24.41.24.58 1.6.61 2.26a2.3 2.3 0 01-.2 1.38z"/>
    <path class="cls-2" d="M35.74 34.45v.26c-.36.24-.94.23-1.33.43a3.46 3.46 0 011.43.36v.66a23.37 23.37 0 01-2 1.54 5.38 5.38 0 01-2 .62c-.22-.05-.24-.32-.33-.58a8.33 8.33 0 01-.66-2.26c0-1-.15-2.81 1-2.59a10.1 10.1 0 012.68 1 2.76 2.76 0 001.34.58"/>
    <path class="cls-12" d="M35.74 34.45v.26c-.36.24-.94.23-1.33.43a3.46 3.46 0 011.43.36v.66a23.37 23.37 0 01-2 1.54 5.38 5.38 0 01-2 .62c-.22-.05-.24-.32-.33-.58a8.33 8.33 0 01-.66-2.26c0-1-.15-2.81 1-2.59a10.1 10.1 0 012.68 1 2.76 2.76 0 001.21.56z"/>
    <path class="cls-2" d="M36.39 35.7a3.87 3.87 0 01-.17-1.23c1.52-1 1.81 1.74.17 1.23"/>
    <path class="cls-12" d="M36.39 35.7a3.87 3.87 0 01-.17-1.23c1.53-1.02 1.78 1.74.17 1.23z"/>
    <path class="cls-3" d="M38.6 36.16s-.47-.68-.14-.88.68 0 .88-.34 0-.54.07-.95.41-.47.74-.54 1.29-.2 1.42.14l-.41-1.22-.81-.27-2.57 1.49-.14.74v1.49M31.49 38.4q-.12-1.58-.26-3.17c-.14-1.58.38-1.3 1.74-1.3a3.6 3.6 0 011.36.41c.37.75-.62.59.43 1.15.88.48 2.43-.29 2.08-1.36-.2-.24-1-.07-1.34-.23l-1.59-.82c-.67-.35-2.23-.86-2.94-.37-1.82 1.24.11 4.32.76 5.61"/>
    <path class="cls-4" d="M33.28 14.42c-1.84-.43-2.76.77-3.32 2-.5-.12-.3-.8-.17-1.15.33-.91 1.66-2.12 2.75-2 .47.07 1.1.5.75 1.08M42.26 16.52h.09a19.07 19.07 0 001.3 2.55c-.35.82-2.67 1.55-2.63.07.5-.22 1.36 0 1.81-.32a5 5 0 01-.57-2.3M34.22 16.54a7.73 7.73 0 001.09 2c.25.25.75.55.5 1.23a1.56 1.56 0 01-.71.59c-.88.26-2.93.05-2.23-1 .73 0 1.7.47 2.25-.06-.42-.67-1.16-2-.89-2.76M41.93 23.91a7.33 7.33 0 01-5 1.56 1.47 1.47 0 01-.19-1.89c.23.4.09 1.14.74 1.25 1.23.21 2.66-.75 3.55-1.09.55-.93 0-1.27-.54-1.86-1-1.22-2.37-2.73-2.32-4.56.41-.3.44.45.5.59a16.69 16.69 0 002.83 3.88c.24.26.63.51.67.68.13.5-.33 1.1-.27 1.44M24.49 23c-.41-.24-.51-1.28-1-1.31-.7 0-.57 1.35-.57 2.17a2.55 2.55 0 01-.21-2.46c-.4-.2-.58.22-.8.36.29-2.08 3-1 2.58 1.24M42.77 24.78c-.62 1.17-1.49 2.46-3.29 2.5a4.46 4.46 0 010-1.18 9.5 9.5 0 003.29-1.32M34.12 25.54a11.44 11.44 0 004.84.63 5.49 5.49 0 01.04 1.18c-2 .1-4.4-.4-4.92-1.81M33.9 26.67c.8 2 3.54 1.77 5.85 1.72a1.24 1.24 0 01-.6.68 5.86 5.86 0 01-3.81 0 5.21 5.21 0 01-1.43-1.59c-.17-.22-1-.79 0-.79"/>
    <path class="cls-13" d="M41.84 37.71a40.81 40.81 0 01-2.94 4.66 22.45 22.45 0 00.73-5.4 1.7 1.7 0 012.21.74"/>
    <path class="cls-4" d="M46.87 43.47c-1 .21-1.78 1.23-2.8 1.16a3.35 3.35 0 012.8-1.16M47.33 45.11a15.35 15.35 0 01-2.72.16c.41-.63 2-.41 2.72-.16M47.63 46.52c-1 0-2.15 0-3.06-.07.54-.58 2.44-.21 3.06.07"/>
    <path class="cls-8" d="M40 50.39a22.55 22.55 0 01.56 3.75 3.92 3.92 0 01-1.55.33c-.05-1.12-.2-2.84-.16-3.9.35 0 .87-.25 1.15-.17"/>
    <path class="cls-5" d="M38.48 32.63c-.48.31-.89.71-1.35 1a3 3 0 01-2.34-.63s.09 0 .09-.08c1.1.49 2.49-.2 3.6-.3"/>
    <path class="cls-13" d="M32.72 40.11c.3-1.31 1.48-2 2.56-2.7a21.6 21.6 0 012.52 5 25.87 25.87 0 01-5.08-2.26"/>
    <path class="cls-4" d="M38.88 50.56c0 1.07.11 2.78.16 3.9a3.92 3.92 0 001.55-.33 22.55 22.55 0 00-.59-3.74c-.25-.08-.77.19-1.12.17zm-11.06-6.08a55.88 55.88 0 002.39 11.75 15.57 15.57 0 008.54.16c-.45-2.15-.25-4.77-.51-7.07-.2-1.73-.1-3.46-.37-5.23-2.96-.62-7.15-.15-10.05.39zm10.75-.37c0 1.85.08 3.68.22 5.53.71-.11 1.19-.18 1.85-.32a39.83 39.83 0 00-.64-5.37 4.4 4.4 0 00-1.44.16zm3.6-.3a4.43 4.43 0 00-1.05 0c.15 1.51.52 3.17.65 4.76a4.41 4.41 0 001.19-.3 9.57 9.57 0 00-.79-4.46zm5.46 5a2.35 2.35 0 001.43-2.88 13.62 13.62 0 00-.93-3.15c-.28-.42-1-1-1.64-.59-1 .63-2.72.81-3.43 1.58a25.42 25.42 0 01.62 4.36c1.23.08 2.74-.34 3.76.1a14.31 14.31 0 00-2.26.57 4.71 4.71 0 002.45 0zm-9.83-6.44a21.6 21.6 0 00-2.52-5c-1.07.72-2.26 1.4-2.56 2.7a25.87 25.87 0 005.08 2.3zM39.63 37a22.45 22.45 0 01-.73 5.4 40.81 40.81 0 002.94-4.66 1.7 1.7 0 00-2.21-.74zm-2.07-.74c-.42 0-.78.48-1.32.25-.13.14-.24.29-.37.42 1.21 1.46 1.76 3.52 2.69 5.23a23 23 0 00.55-5.24c-.69.02-1.11-.64-1.55-.69zm-1.33-1.76a3.87 3.87 0 00.17 1.23c1.6.48 1.35-2.28-.18-1.26zm-1.82-.6a10.1 10.1 0 00-2.68-1c-1.13-.22-1 1.54-1 2.59a8.33 8.33 0 00.66 2.26c.09.26.11.53.33.58a5.38 5.38 0 002-.62 23.37 23.37 0 002-1.54v-.66a3.46 3.46 0 00-1.43-.36c.39-.2 1-.2 1.33-.43v-.26a2.76 2.76 0 01-1.21-.59zm-6.74-1.22c-.59.59 1.64 1.41 2.35 1.45 0-.38.21-.73.17-1-.85-.18-1.95-.13-2.53-.48zm7.22.28c0 .06-.08 0-.09.08a3 3 0 002.34.66c.46-.34.87-.73 1.35-1-1.12.03-2.49.72-3.61.23zm6.62 2c0-.66-.21-2-.61-2.26-.86-.5-2.38 1-3 1.24a1.88 1.88 0 01.2.62 1.84 1.84 0 011.18.13 2.42 2.42 0 00-1.06.22 9.58 9.58 0 000 1 12.86 12.86 0 003.09.43 2.3 2.3 0 00.2-1.4zm-14.83-1.74c-.18-.13-1.43-1.75-1.6-1.68a26.78 26.78 0 00-6.24 3.88 34 34 0 012.65 13.11c2.06 1 3.86 2.35 6.65 2.49-.32-2.28-.62-4.32-.8-6.47-.7-.3-1.71 0-2.36-.09 0-.79 1-.35 1.09-.88s-.55-.43-.35-1.07c.51.19.78.6 1.33.75.5-1.09 0-3 .07-3.94 0-.17.09-1 .47-.81s0 2.07 0 2.94a4.54 4.54 0 00.23 2.07 77 77 0 018.35-.68 20.2 20.2 0 01-2.24-1c-.45-.26-1.88-.79-2-1.22-.21-.69.55-1.05.68-1.64-1.36.74-1.63-.71-1.95-1.74a13.53 13.53 0 01-.53-2.17 23.44 23.44 0 01-3.43-1.84zm13.64-1.49c1.88-.91 2.21 3.4 1.48 4.79.11.41.5.57.66.95-1 1.88-2.21 3.63-3.28 5.48.79-.49 1.93-.09 2.87-.46.34-.14.59-.92.85-1.54a33.58 33.58 0 001.79-5.54 7 7 0 00.23-1.52c-.08-.6-.89-1-1.3-1.41-.76-.68-1.24-1.28-2-1.92-.32.47-1 .79-1.27 1.18zM22.39 15.09c-.89 1-.71 2.83-.6 4.14A2.4 2.4 0 0125.53 21c.77 0 .29-1 .15-1.57-.46-2 .77-4.14.06-6a4.9 4.9 0 00-3.35 1.58zm6.4-5.71c-2 .57-4.62 2-5.45 3.86.64-.09 1.09-.42 1.73-.46a4.25 4.25 0 00.83 0c.55-.14 1-1.37 1.43-1.83s.89-.64 1.22-1c.21-.1.53-.1.54-.42-.09-.1-.2-.18-.31-.14zm10.54.54c-2.1-1.19-5.66-2.08-7.89-1-1.8.9-4.24 2.39-5.07 4.27.78 1.82-.23 3.49-.29 5.33 0 1 .46 1.84.5 2.91-.27.44-1.08.49-1.64.46-.19-.95-.52-2-1.49-2.12A2.26 2.26 0 0021 22c-.07 1.4 1.08 3.73 2.71 3.57.63-.06.79-.69 1.47-.69.37.74-.57 1-.67 1.51a4.27 4.27 0 00.14.93 12.63 12.63 0 001.61 3.74c.83 1.18 2.45 1.36 4.19 1.48.31-.67 1.46-.62 2.21-.44a7.39 7.39 0 01-2.42-2 5 5 0 01-1.64-3c1.5 2.08 2.74 3.9 5.46 4.81 2.06.69 4.47-.32 6.06-1.43a7 7 0 001.52-1.87A15.84 15.84 0 0044 19.09a10.64 10.64 0 00-.55-3.83c-.5-1-2.21-1.91-3.2-1-.18-1 .83-1.59 2-1.24a11.26 11.26 0 00-2.95-3.09zm3.91 32.39c1.64-.82 4.71-2.2 5.74 0a18.65 18.65 0 011 3c.28 1.18-.3 3.66-1.52 4.06a7.2 7.2 0 01-3.61.07 2 2 0 01-.44-.58 5 5 0 00-2.51.43c.07.68-.39.79-.82.93-.32 1.27.64 2.93.41 4.09-.16.83-1.18 1-1.93 1.11a6.34 6.34 0 00.08 1.23 1.86 1.86 0 01-1.64 1.1c-2.39.29-6 .42-8.31-.41-.69-1.57-1.15-3.48-1.69-5.27-2.24.24-4.05-1-5.76-1.76-.59-.27-1.41-.43-1.63-.9a8.06 8.06 0 01-.18-2.15 32.72 32.72 0 00-.81-6.3c-.25-1-.69-1.82-1-2.75a19.87 19.87 0 01-.9-2.79c-.19-1.28 1-1.35 1.78-1.9 1.19-.86 2.12-1.33 3.41-2.1a7.77 7.77 0 001.66-1.07c.26-.53-.45-1.27-.64-1.69a5.08 5.08 0 01-.5-1.86 3.59 3.59 0 01-2.39-1.54 5.9 5.9 0 01-.68-5.11c.06-.13.33-.39.37-.6a6.92 6.92 0 00-.17-1.36c-.07-2.19.37-4.09 1.85-4.75.59-2.44 2.79-3.19 4.81-4.38a15 15 0 012.45-1c3.09-1.14 7.82-.92 10.39 1a14 14 0 013.44 3.81c1.64 3.32 1.52 8.86.38 12.89a13 13 0 01-.69 2c-.22.45-.89 1.36-.81 1.76s1.54 1.52 1.86 1.82c.56.54 1.63 1.26 1.72 2a6.9 6.9 0 01-.53 2.43c-.7 2.35-1.39 4.52-2.18 6.62"/>
    <path class="cls-9" d="M32.28 26c.09-.12.58-.3 1.26 0 0 0-.81.14-.74 1.49l-.34-.07s-.35-1.23-.18-1.45"/>
    <path class="cls-14" d="M38.21 37.69a.37.37 0 11-.37-.37.37.37 0 01.37.37M38.59 39.41a.37.37 0 11-.37-.37.37.37 0 01.37.37"/>
</svg>
