<svg xmlns="http://www.w3.org/2000/svg" id="Layer_1" viewBox="0 0 64 64">
    <style>
        .st1{fill:#fff}
    </style>
    <linearGradient id="SVGID_1_" x2="64" y1="32" y2="32" gradientTransform="matrix(1 0 0 -1 0 64)" gradientUnits="userSpaceOnUse">
        <stop offset=".18" stop-color="#0052cc"/>
        <stop offset="1" stop-color="#2684ff"/>
    </linearGradient>
    <circle cx="32" cy="32" r="32" fill="url(#SVGID_1_)"/>
    <path d="M46.6 16H30c0 4.1 3.3 7.4 7.4 7.5h3.1v2.9c0 4.1 3.3 7.4 7.4 7.4V17.4c.1-.8-.5-1.4-1.3-1.4z" class="st1"/>
    <path d="M37.5 25.1H21c0 4.1 3.3 7.5 7.4 7.5h3v2.9c0 4.1 3.3 7.4 7.4 7.4V26.5c.2-.8-.5-1.4-1.3-1.4z" class="st1"/>
    <path d="M28.5 34.1H12c0 4.1 3.3 7.4 7.5 7.5h3v3c0 4.1 3.3 7.4 7.4 7.4V35.6c0-.8-.6-1.5-1.4-1.5z" class="st1"/>
</svg>
