<?xml version="1.0" encoding="utf-8"?>
<!-- Generator: Adobe Illustrator 23.1.1, SVG Export Plug-In . SVG Version: 6.00 Build 0)  -->
<svg version="1.1" id="Layer_1" xmlns="http://www.w3.org/2000/svg" xmlns:xlink="http://www.w3.org/1999/xlink" x="0px" y="0px"
	 viewBox="0 0 200 200" style="enable-background:new 0 0 200 200;" xml:space="preserve">
<style type="text/css">
	.st0{fill:#8DC63F;}
	.st1{fill:#4E9A10;}
</style>
<g>
	<g>
		<g>
			<g>
				<path d="M78.3,147.1l0-5.9l-2.9,4.8H74l-2.9-4.7v5.8h-2.9v-11.2h2.6l3.9,6.5l3.8-6.5h2.6l0,11.2H78.3z"/>
				<path d="M86.1,146.6c-0.9-0.5-1.7-1.2-2.2-2.1c-0.5-0.9-0.8-1.9-0.8-3c0-1.1,0.3-2.1,0.8-3c0.5-0.9,1.3-1.6,2.2-2.1
					c0.9-0.5,2-0.7,3.2-0.7c1,0,1.9,0.2,2.8,0.5c0.8,0.4,1.5,0.9,2,1.6l-2,1.8c-0.7-0.9-1.6-1.3-2.6-1.3c-0.6,0-1.1,0.1-1.6,0.4
					c-0.5,0.3-0.8,0.6-1.1,1.1c-0.3,0.5-0.4,1-0.4,1.7c0,0.6,0.1,1.2,0.4,1.7c0.3,0.5,0.6,0.9,1.1,1.1c0.5,0.3,1,0.4,1.6,0.4
					c1,0,1.9-0.4,2.6-1.3l2,1.8c-0.5,0.7-1.2,1.2-2,1.6c-0.8,0.4-1.7,0.5-2.8,0.5C88.1,147.3,87.1,147.1,86.1,146.6z"/>
				<path d="M95.6,135.3h3v11.9h-3V135.3z"/>
				<path d="M102.7,146.7c-0.7-0.4-1.3-0.9-1.8-1.6c-0.4-0.7-0.6-1.5-0.6-2.3c0-0.9,0.2-1.6,0.6-2.3c0.4-0.7,1-1.2,1.7-1.6
					c0.7-0.4,1.6-0.6,2.5-0.6s1.8,0.2,2.5,0.6c0.7,0.4,1.3,0.9,1.7,1.6c0.4,0.7,0.6,1.4,0.6,2.3c0,0.9-0.2,1.6-0.6,2.3
					c-0.4,0.7-1,1.2-1.7,1.6c-0.7,0.4-1.6,0.6-2.5,0.6C104.3,147.3,103.5,147.1,102.7,146.7z M106.5,144.3c0.3-0.4,0.5-0.9,0.5-1.5
					c0-0.6-0.2-1.1-0.5-1.5c-0.3-0.4-0.8-0.5-1.3-0.5s-1,0.2-1.3,0.5c-0.3,0.4-0.5,0.9-0.5,1.5c0,0.7,0.2,1.2,0.5,1.5
					c0.3,0.4,0.8,0.6,1.3,0.6S106.2,144.7,106.5,144.3z"/>
				<path d="M120.9,138.5v8.7H118v-0.9c-0.3,0.4-0.7,0.6-1.2,0.8c-0.4,0.2-0.9,0.3-1.4,0.3c-1.1,0-2-0.3-2.7-1c-0.7-0.7-1-1.7-1-3
					v-4.8h3v4.4c0,0.7,0.1,1.1,0.4,1.4c0.2,0.3,0.6,0.4,1.1,0.4c0.5,0,0.9-0.2,1.2-0.5c0.3-0.3,0.5-0.9,0.5-1.5v-4.2H120.9z"/>
				<path d="M132.3,135.3v11.9h-2.9v-0.9c-0.6,0.7-1.4,1-2.5,1c-0.8,0-1.5-0.2-2.2-0.6c-0.7-0.4-1.2-0.9-1.5-1.6
					c-0.4-0.7-0.6-1.5-0.6-2.4c0-0.9,0.2-1.7,0.6-2.4c0.4-0.7,0.9-1.2,1.5-1.6c0.7-0.4,1.4-0.5,2.2-0.5c1,0,1.8,0.3,2.4,0.9v-4
					H132.3z M128.8,144.3c0.3-0.4,0.5-0.9,0.5-1.5c0-0.6-0.2-1.1-0.5-1.5c-0.3-0.4-0.8-0.5-1.3-0.5s-1,0.2-1.3,0.5
					c-0.3,0.4-0.5,0.9-0.5,1.5c0,0.7,0.2,1.2,0.5,1.5c0.3,0.4,0.8,0.6,1.3,0.6C128,144.9,128.4,144.7,128.8,144.3z"/>
			</g>
		</g>
		<g>
			<polygon class="st0" points="100.1,84 66.1,50 66.1,118 134.1,118 134.1,50 			"/>
			<polygon class="st1" points="66.1,118 134.1,118 100.1,84 			"/>
		</g>
	</g>
</g>
</svg>
