<svg xmlns="http://www.w3.org/2000/svg" viewBox="0 0 200 200"><path d="M78.3 147.1v-5.9l-2.9 4.8H74l-2.9-4.7v5.8h-2.9v-11.2h2.6l3.9 6.5 3.8-6.5h2.6v11.2h-2.8zM86.1 146.6c-.9-.5-1.7-1.2-2.2-2.1-.5-.9-.8-1.9-.8-3s.3-2.1.8-3c.5-.9 1.3-1.6 2.2-2.1.9-.5 2-.7 3.2-.7 1 0 1.9.2 2.8.5.8.4 1.5.9 2 1.6l-2 1.8c-.7-.9-1.6-1.3-2.6-1.3-.6 0-1.1.1-1.6.4-.5.3-.8.6-1.1 1.1-.3.5-.4 1-.4 1.7 0 .6.1 1.2.4 1.7.3.5.6.9 1.1 1.1.5.3 1 .4 1.6.4 1 0 1.9-.4 2.6-1.3l2 1.8c-.5.7-1.2 1.2-2 1.6-.8.4-1.7.5-2.8.5-1.2 0-2.2-.2-3.2-.7zM95.6 135.3h3v11.9h-3v-11.9zM102.7 146.7c-.7-.4-1.3-.9-1.8-1.6-.4-.7-.6-1.5-.6-2.3 0-.9.2-1.6.6-2.3.4-.7 1-1.2 1.7-1.6.7-.4 1.6-.6 2.5-.6s1.8.2 2.5.6c.7.4 1.3.9 1.7 1.6.4.7.6 1.4.6 2.3 0 .9-.2 1.6-.6 2.3-.4.7-1 1.2-1.7 1.6-.7.4-1.6.6-2.5.6-.8 0-1.6-.2-2.4-.6zm3.8-2.4c.3-.4.5-.9.5-1.5s-.2-1.1-.5-1.5c-.3-.4-.8-.5-1.3-.5s-1 .2-1.3.5c-.3.4-.5.9-.5 1.5 0 .7.2 1.2.5 1.5.3.4.8.6 1.3.6s1-.2 1.3-.6zM120.9 138.5v8.7H118v-.9c-.3.4-.7.6-1.2.8-.4.2-.9.3-1.4.3-1.1 0-2-.3-2.7-1-.7-.7-1-1.7-1-3v-4.8h3v4.4c0 .7.1 1.1.4 1.4.2.3.6.4 1.1.4.5 0 .9-.2 1.2-.5.3-.3.5-.9.5-1.5v-4.2h3zM132.3 135.3v11.9h-2.9v-.9c-.6.7-1.4 1-2.5 1-.8 0-1.5-.2-2.2-.6-.7-.4-1.2-.9-1.5-1.6-.4-.7-.6-1.5-.6-2.4 0-.9.2-1.7.6-2.4.4-.7.9-1.2 1.5-1.6.7-.4 1.4-.5 2.2-.5 1 0 1.8.3 2.4.9v-4h3zm-3.5 9c.3-.4.5-.9.5-1.5s-.2-1.1-.5-1.5c-.3-.4-.8-.5-1.3-.5s-1 .2-1.3.5c-.3.4-.5.9-.5 1.5 0 .7.2 1.2.5 1.5.3.4.8.6 1.3.6s.9-.2 1.3-.6z"/><g><path fill="#8dc63f" d="M100.1 84l-34-34v68h68V50z"/><path fill="#4e9a10" d="M66.1 118h68l-34-34z"/></g></svg>