<svg xmlns="http://www.w3.org/2000/svg" xmlns:xlink="http://www.w3.org/1999/xlink" viewBox="0 0 32 30"><defs><clipPath id="b"><path d="M0 0h32v30H0z"/></clipPath><clipPath id="c"><path d="M0 0h32v30H0z"/></clipPath><clipPath id="d"><path d="M0 0h32v30H0z"/></clipPath><clipPath id="e"><path d="M0 0h32v30H0z"/></clipPath><clipPath id="f"><path d="M0 0h32v30H0z"/></clipPath><clipPath id="g"><path d="M0 0h32v30H0z"/></clipPath><clipPath id="h"><path d="M0 0h32v30H0z"/></clipPath><clipPath id="i"><path d="M0 0h32v30H0z"/></clipPath><mask id="k"><g filter="url(#a)"><path fill-opacity=".102" d="M0 0h32v30H0z"/></g></mask><mask id="m"><g filter="url(#a)"><path fill-opacity=".2" d="M0 0h32v30H0z"/></g></mask><mask id="o"><g filter="url(#a)"><path fill-opacity=".2" d="M0 0h32v30H0z"/></g></mask><mask id="q"><g filter="url(#a)"><path fill-opacity=".2" d="M0 0h32v30H0z"/></g></mask><mask id="s"><g filter="url(#a)"><path fill-opacity=".102" d="M0 0h32v30H0z"/></g></mask><mask id="u"><g filter="url(#a)"><path fill-opacity=".2" d="M0 0h32v30H0z"/></g></mask><mask id="w"><g filter="url(#a)"><path fill-opacity=".2" d="M0 0h32v30H0z"/></g></mask><mask id="y"><g filter="url(#a)"><path fill-opacity=".2" d="M0 0h32v30H0z"/></g></mask><g id="j" clip-path="url(#b)"><path d="M17.86 11.25v12.129a1.376 1.376 0 01-1.36 1.371H9.586a8.491 8.491 0 01-.258-.75 9.114 9.114 0 01-.394-2.656V12.69a1.401 1.401 0 011.359-1.441zm0 0"/></g><g id="l" clip-path="url(#c)"><path d="M17.117 11.25v12.879c0 .176-.035.351-.105.516a1.37 1.37 0 01-1.258.855H9.938a9.325 9.325 0 01-.352-.75 8.112 8.112 0 01-.258-.75 9.114 9.114 0 01-.394-2.656V12.69a1.401 1.401 0 011.359-1.441zm0 0"/></g><g id="n" clip-path="url(#d)"><path d="M17.117 11.25v11.379A1.379 1.379 0 0115.754 24H9.328a9.114 9.114 0 01-.394-2.656V12.69a1.401 1.401 0 011.359-1.441zm0 0"/></g><g id="p" clip-path="url(#e)"><path d="M16.371 11.25v11.379A1.373 1.373 0 0115.011 24H9.329a9.114 9.114 0 01-.394-2.656V12.69a1.401 1.401 0 011.359-1.441zm0 0"/></g><g id="r" clip-path="url(#f)"><path d="M17.86 7.371v2.363c-.126.008-.247.016-.372.016s-.246-.008-.37-.016a3.716 3.716 0 01-.747-.12A4.848 4.848 0 0112.785 6H16.5c.75.004 1.355.617 1.36 1.371zm0 0"/></g><g id="t" clip-path="url(#g)"><path d="M17.117 8.121v1.613a3.716 3.716 0 01-.746-.12 4.848 4.848 0 01-3.348-2.864h2.73c.75.004 1.36.617 1.364 1.371zm0 0"/></g><g id="v" clip-path="url(#h)"><path d="M17.117 8.121v1.613a3.716 3.716 0 01-.746-.12 4.848 4.848 0 01-3.348-2.864h2.73c.75.004 1.36.617 1.364 1.371zm0 0"/></g><g id="x" clip-path="url(#i)"><path d="M16.371 8.121v1.492a4.848 4.848 0 01-3.348-2.863h1.989a1.37 1.37 0 011.36 1.371zm0 0"/></g><linearGradient id="z" gradientUnits="userSpaceOnUse" x1="198.099" y1="1683.073" x2="942.234" y2="394.261" gradientTransform="matrix(.01435 0 0 -.01447 .004 30.029)"><stop offset="0" stop-color="#5a62c3"/><stop offset=".5" stop-color="#4d55bd"/><stop offset="1" stop-color="#3940ab"/></linearGradient><filter id="a" filterUnits="objectBoundingBox" x="0%" y="0%" width="100%" height="100%"><feColorMatrix in="SourceGraphic" values="0 0 0 0 1 0 0 0 0 1 0 0 0 0 1 0 0 0 1 0"/></filter></defs><path d="M22.32 11.25h8.262c.781 0 1.414.637 1.414 1.426v7.586c0 2.894-2.324 5.238-5.195 5.238h-.024c-2.87 0-5.195-2.344-5.199-5.238v-8.266a.745.745 0 01.742-.746zm0 0M31.254 6.375c0 1.863-1.5 3.375-3.352 3.375-1.847 0-3.347-1.512-3.347-3.375S26.055 3 27.902 3c1.852 0 3.352 1.512 3.352 3.375zm0 0" fill="#5059c9"/><path d="M22.324 4.875c0 2.691-2.164 4.875-4.836 4.875s-4.836-2.184-4.836-4.875S14.816 0 17.488 0s4.836 2.184 4.836 4.875zm0 0M23.938 11.25H10.296a1.402 1.402 0 00-1.363 1.441v8.657c-.11 4.664 3.554 8.539 8.183 8.652 4.63-.113 8.29-3.988 8.184-8.652V12.69a1.407 1.407 0 00-1.363-1.441zm0 0" fill="#7b83eb"/><use xlink:href="#j" mask="url(#k)"/><use xlink:href="#l" mask="url(#m)"/><use xlink:href="#n" mask="url(#o)"/><use xlink:href="#p" mask="url(#q)"/><use xlink:href="#r" mask="url(#s)"/><use xlink:href="#t" mask="url(#u)"/><use xlink:href="#v" mask="url(#w)"/><use xlink:href="#x" mask="url(#y)"/><path d="M1.367 6.75h13.64a1.37 1.37 0 011.364 1.375v13.75a1.37 1.37 0 01-1.363 1.375H1.368a1.37 1.37 0 01-1.364-1.375V8.125c0-.758.61-1.375 1.363-1.375zm0 0" fill="url(#z)"/><path d="M11.777 11.984H9.051v7.485H7.312v-7.485H4.598v-1.453h7.18zm0 0" fill="#fff"/></svg>