<?xml version="1.0" encoding="utf-8"?>
<!-- Generator: Adobe Illustrator 23.0.4, SVG Export Plug-In . SVG Version: 6.00 Build 0)  -->
<svg version="1.1" id="Layer_1" xmlns="http://www.w3.org/2000/svg" xmlns:xlink="http://www.w3.org/1999/xlink" x="0px" y="0px"
	 viewBox="0 0 64 64" style="enable-background:new 0 0 64 64;" xml:space="preserve">
<style type="text/css">
	.st0{fill:#F2F2F2;}
	.st1{fill:#1E63AF;}
</style>
<title>amazon_s3</title>
<circle class="st0" cx="32" cy="32" r="32"/>
<g>
	<path class="st1" d="M19.5,16.5c-0.6,0.3-1.3,0.6-1.8,1.1C16,19.2,16,19.7,16,32c0,12.2,0,12.5,1.6,14.1C19.2,48,19.5,48,32.2,48
		c11.5,0,11.5,0,13-0.8c1-0.5,1.8-1.3,2.1-2.2c1.4-2.7,2.2-2.6-11-2.6c-13.1,0-13.6,0-14.6-1.9c-0.5-1-0.6-2.1-0.6-8.6
		c0.2-11-0.2-10.7,11-10.7c11,0,10.9-0.2,10.9,9.6v6.4H48v-8.3c0-8.8,0-9.3-1.6-11C44.8,16,44.5,16,31.8,16
		C23.7,16,20,16.2,19.5,16.5z"/>
	<path class="st1" d="M27.5,26.7c-0.5,0.3-0.6,1-0.6,4.8c0,5.6-0.3,5.4,5.6,5.4c3.8,0,4.5,0,4.8-0.6c0.6-0.8,0.6-9,0-9.6
		S28.3,26.1,27.5,26.7z"/>
</g>
</svg>
