<?xml version="1.0" encoding="utf-8"?>
<!-- Generator: Adobe Illustrator 23.0.4, SVG Export Plug-In . SVG Version: 6.00 Build 0)  -->
<svg version="1.1" id="Layer_1" xmlns="http://www.w3.org/2000/svg" xmlns:xlink="http://www.w3.org/1999/xlink" x="0px" y="0px"
	 viewBox="0 0 20 20" style="enable-background:new 0 0 20 20;" xml:space="preserve">
<style type="text/css">
	.st0{fill:#1E63AF;}
</style>
<title>Asset 7</title>
<g>
	<path class="st0" d="M2.2,0.3C1.8,0.5,1.4,0.7,1.1,1C0,2,0,2.3,0,10c0,7.6,0,7.8,1,8.8C2,20,2.2,20,10.1,20c7.2,0,7.2,0,8.1-0.5
		c0.6-0.3,1.1-0.8,1.3-1.4c0.9-1.7,1.4-1.6-6.9-1.6c-8.2,0-8.5,0-9.1-1.2c-0.3-0.6-0.4-1.3-0.4-5.4C3.2,3,3,3.2,10,3.2
		c6.9,0,6.8-0.1,6.8,6v4H20V8c0-5.5,0-5.8-1-6.9C18,0,17.8,0,9.9,0C4.8,0,2.5,0.1,2.2,0.3z"/>
	<path class="st0" d="M7.2,6.7c-0.3,0.2-0.4,0.6-0.4,3c0,3.5-0.2,3.4,3.5,3.4c2.4,0,2.8,0,3-0.4c0.4-0.5,0.4-5.6,0-6
		S7.7,6.3,7.2,6.7z"/>
</g>
</svg>
