<svg xmlns="http://www.w3.org/2000/svg" viewBox="0 0 64 64">
    <circle cx="32" cy="32" r="32" fill="#f60"/>
    <path fill="#fff" d="M45.88 28.8H35.82a.91.91 0 0 1-.91-.91V17.41A1.41 1.41 0 0 0 33.5 16h-3.59a1.41 1.41 0 0 0-1.4 1.41v10.41a1 1 0 0 1-1 1h-3.29a1 1 0 0 1-1-1V17.39A1.41 1.41 0 0 0 21.86 16h-3.58a1.41 1.41 0 0 0-1.41 1.41v29.34A1.25 1.25 0 0 0 18.12 48h27.76a1.25 1.25 0 0 0 1.25-1.25v-16.7a1.25 1.25 0 0 0-1.25-1.25zm-4.72 11a1.63 1.63 0 0 1-1.63 1.63h-2.84a1.64 1.64 0 0 1-1.64-1.63V37a1.64 1.64 0 0 1 1.64-1.63h2.84A1.63 1.63 0 0 1 41.16 37v2.84z"/>
</svg>
