<svg xmlns="http://www.w3.org/2000/svg" viewBox="0 0 64 64"><defs><linearGradient id="a" x1="14.33" y1="33.05" x2="46.89" y2="33.05" gradientUnits="userSpaceOnUse"><stop offset="0" stop-color="#3c3c3c"/><stop offset="1" stop-color="#838383"/></linearGradient><linearGradient id="b" x1="16.24" y1="28.91" x2="45.67" y2="28.91" gradientUnits="userSpaceOnUse"><stop offset=".12" stop-color="#fff"/><stop offset=".69" stop-color="#fff" stop-opacity=".2"/></linearGradient><linearGradient id="c" x1="29.19" y1="23.28" x2="49.6" y2="23.28" gradientUnits="userSpaceOnUse"><stop offset="0" stop-color="#227716"/><stop offset="1" stop-color="#20b228"/></linearGradient><style>.c{fill:#231f20}.d{fill:#fff}</style></defs><circle cx="32" cy="32" r="32" fill="#f2f2f2"/><path d="M14.33 20.56A3.73 3.73 0 0118 16.83l25.06-.06a3.71 3.71 0 013.73 3.69l.06 25.07a3.73 3.73 0 01-3.7 3.73l-25.07.06a3.72 3.72 0 01-3.73-3.69z" fill="url(#a)"/><path class="c" d="M18.1 49.66a4.05 4.05 0 01-4-4l-.1-25.1a4.07 4.07 0 014-4.06l25.07-.06a4 4 0 014 4l.06 25.07a4.08 4.08 0 01-4 4.06l-25.07.06zm-3.44-29.1l.06 25.08A3.4 3.4 0 0018.1 49l25.06-.06a3.41 3.41 0 003.38-3.4l-.04-25.08a3.4 3.4 0 00-3.38-3.36L18 17.16a3.41 3.41 0 00-3.38 3.4z"/><path class="d" d="M25.2 42.08a1.3 1.3 0 00-.49-1.08 6.05 6.05 0 00-1.7-.79 16.44 16.44 0 01-2-.79c-1.68-.83-2.52-2-2.52-3.4a3 3 0 01.63-1.89 4 4 0 011.77-1.28 6.85 6.85 0 012.58-.46 5.91 5.91 0 012.5.5 4 4 0 011.72 1.41 3.73 3.73 0 01.62 2.1H25.2a1.57 1.57 0 00-.48-1.22 1.89 1.89 0 00-1.31-.44 2.16 2.16 0 00-1.32.37 1.14 1.14 0 00-.48.94 1.12 1.12 0 00.53.9 6.71 6.71 0 001.86.85 10.64 10.64 0 012.21.93 3.69 3.69 0 012.1 3.33A3.18 3.18 0 0127 44.73a5.76 5.76 0 01-3.51 1 6.91 6.91 0 01-2.85-.56 4.3 4.3 0 01-1.92-1.55 4 4 0 01-.65-2.26h3.13a2 2 0 00.54 1.53 2.54 2.54 0 001.75.5 2 2 0 001.26-.39 1.09 1.09 0 00.45-.92z"/><path class="c" d="M23.53 45.9a7.18 7.18 0 01-2.94-.58 4.57 4.57 0 01-2-1.62 4.27 4.27 0 01-.67-2.38v-.21h3.54v.21a1.8 1.8 0 00.47 1.38 2.38 2.38 0 001.61.44 1.83 1.83 0 001.09-.29.89.89 0 00.37-.77 1.07 1.07 0 00-.41-.91 5.67 5.67 0 00-1.64-.75 17.28 17.28 0 01-2-.81c-1.75-.85-2.63-2.06-2.63-3.58A3.21 3.21 0 0119 34a4.19 4.19 0 011.86-1.35 7.15 7.15 0 012.65-.47 6.15 6.15 0 012.59.52 4 4 0 011.8 1.49 3.9 3.9 0 01.65 2.21v.21H25v-.21a1.35 1.35 0 00-.42-1.07 1.7 1.7 0 00-1.17-.33 1.94 1.94 0 00-1.2.33.92.92 0 00-.4.77 1 1 0 00.45.74 6.88 6.88 0 001.82.8 11.49 11.49 0 012.24.95 3.91 3.91 0 012.2 3.51 3.38 3.38 0 01-1.36 2.83 5.92 5.92 0 01-3.63.97zm-5.21-4.37a3.87 3.87 0 00.61 1.94 4.07 4.07 0 001.83 1.47 6.85 6.85 0 002.77.55 5.47 5.47 0 003.38-.93 2.93 2.93 0 001.2-2.5 3.47 3.47 0 00-2-3.15A11.39 11.39 0 0024 38a6.84 6.84 0 01-2-.87 1.36 1.36 0 01-.61-1.07A1.32 1.32 0 0122 35a2.31 2.31 0 011.45-.41 2.11 2.11 0 011.45.48 1.72 1.72 0 01.54 1.18h2.7a3.42 3.42 0 00-.57-1.78 3.77 3.77 0 00-1.63-1.35 6 6 0 00-2.42-.48 6.63 6.63 0 00-2.5.45 3.94 3.94 0 00-1.69 1.21 2.91 2.91 0 00-.62 1.7c0 1.37.78 2.42 2.4 3.21a16.83 16.83 0 002 .78 6.45 6.45 0 011.76.83 1.49 1.49 0 01.56 1.23 1.3 1.3 0 01-.53 1.1 2.19 2.19 0 01-1.34.37 2.75 2.75 0 01-1.92-.52 2.08 2.08 0 01-.6-1.48z"/><path class="d" d="M34.89 45.69a5 5 0 01-3.59-1.32 4.55 4.55 0 01-1.36-3.43v-.25a6 6 0 01.54-2.6 4 4 0 011.6-1.75 4.84 4.84 0 012.49-.62 4.17 4.17 0 013.2 1.28 5 5 0 011.17 3.51v1.16H33a2.14 2.14 0 00.71 1.27 2.07 2.07 0 001.4.46 2.69 2.69 0 002.22-1l1.35 1.6a3.86 3.86 0 01-1.59 1.23 5.41 5.41 0 01-2.2.46zM34.55 38c-.88 0-1.4.58-1.57 1.74h3v-.23a1.45 1.45 0 00-.37-1.11 1.42 1.42 0 00-1.06-.4z"/><path class="c" d="M34.89 45.9a5.15 5.15 0 01-3.73-1.38 4.76 4.76 0 01-1.43-3.58v-.25A6 6 0 0130.3 38a4.2 4.2 0 011.7-1.84 5 5 0 012.6-.65 4.38 4.38 0 013.35 1.33 5.18 5.18 0 011.23 3.65v1.37h-5.9a1.8 1.8 0 00.57.9 1.87 1.87 0 001.27.42 2.46 2.46 0 002.06-.92l.16-.2 1.6 1.94-.09.13a4.1 4.1 0 01-1.67 1.3 5.69 5.69 0 01-2.29.47zm-.32-10a4.68 4.68 0 00-2.39.59 3.74 3.74 0 00-1.51 1.66 5.69 5.69 0 00-.53 2.51v.25a4.39 4.39 0 001.31 3.29 4.79 4.79 0 003.44 1.26 5.19 5.19 0 002.11-.41 3.82 3.82 0 001.41-1l-1.11-1.3a3 3 0 01-2.22.88 2.31 2.31 0 01-1.54-.51 2.45 2.45 0 01-.77-1.39l-.05-.25h6v-.95a4.75 4.75 0 00-1.12-3.37 4 4 0 00-3.03-1.23zm1.64 4h-3.46v-.23c.12-.88.53-1.92 1.77-1.92a1.66 1.66 0 011.24.45 1.69 1.69 0 01.42 1.27zm-3-.41h2.59a1.28 1.28 0 00-.31-1 1.24 1.24 0 00-.94-.33c-.27.08-1.05.08-1.32 1.41z"/><path d="M15.9 21.76a3.37 3.37 0 013.35-3.37l22.65-.05a3.35 3.35 0 013.37 3.33v14.38A3.37 3.37 0 0142 39.43H19.36A3.34 3.34 0 0116 36.15z" opacity=".5" fill="url(#b)"/><path fill="url(#c)" d="M29.19 24.24l2.78-2.79 4.21 4.18 11.56-10.72 1.86 4.64-13.89 12.1-6.52-7.41z"/><path d="M35.68 32.11l-6.94-7.89L32 21l4.22 4.19 11.64-10.85 2.14 5.3zm-6-7.86l6.09 6.93 13.44-11.73-1.6-4-11.44 10.64L32 21.91z" fill="#0c0000"/></svg>