<svg xmlns="http://www.w3.org/2000/svg" viewBox="0 0 64 64">
    <defs>
        <style>
            .b{fill:#e01e5a}.c{fill:#36c5f0}.d{fill:#2eb67d}.e{fill:#ecb22e}
        </style>
    </defs>
    <circle cx="32" cy="32" r="32" fill="#f2f2f2"/>
    <path d="M21.56 36.75A3.78 3.78 0 1 1 17.78 33h3.78zM23.47 36.75a3.78 3.78 0 0 1 7.56 0v9.47a3.78 3.78 0 0 1-7.56 0z" class="b"/>
    <path d="M27.25 21.56A3.78 3.78 0 1 1 31 17.78v3.78zM27.25 23.47a3.78 3.78 0 0 1 0 7.56h-9.47a3.78 3.78 0 0 1 0-7.56z" class="c"/>
    <path d="M42.44 27.25A3.78 3.78 0 1 1 46.22 31h-3.78zM40.53 27.25a3.78 3.78 0 0 1-7.56 0v-9.47a3.78 3.78 0 0 1 7.56 0z" class="d"/>
    <path d="M36.75 42.44A3.78 3.78 0 1 1 33 46.22v-3.78zM36.75 40.53a3.78 3.78 0 0 1 0-7.56h9.47a3.78 3.78 0 0 1 0 7.56z" class="e"/>
</svg>
