<svg width="16" height="16" xmlns="http://www.w3.org/2000/svg"><style>.st0{fill:#21ca88}</style><path fill="none" id="canvas_background" d="M-1-1h582v402H-1z"/><g><circle stroke="#000" id="svg_10" cy="7.995" cx="8" stroke-opacity="null" stroke-width="0" fill="#f2f2f2" r="7.895"/><g stroke="null" id="svg_1"><g id="svg_2"><path stroke="null" id="svg_3" d="M6.53 10.563H2.685V9.52l2.723-3.043H3.806c-.8 0-1.361-.561-1.361-1.362H7.65c0 .64-.24 1.201-.64 1.682L4.927 9.121H7.89c0 .8-.56 1.442-1.361 1.442z" class="st0"/></g><g id="svg_4"><path stroke="null" id="svg_5" d="M10.214 5.116h3.444c0 .72-.56 1.282-1.281 1.282H8.853h0c0-.641.64-1.282 1.361-1.282z" class="st0"/></g><g id="svg_6"><path stroke="null" id="svg_7" d="M10.214 9.201h3.444c0 .72-.56 1.282-1.281 1.282H8.853h0c0-.641.64-1.282 1.361-1.282z" class="st0"/></g><g id="svg_8"><path stroke="null" id="svg_9" d="M10.214 7.199h3.444c0 .72-.56 1.281-1.281 1.281H8.853h0c0-.72.64-1.281 1.361-1.281z" class="st0"/></g></g></g></svg>