<svg xmlns="http://www.w3.org/2000/svg" id="Layer_1" viewBox="0 0 33 20"><path d="M25.7 10.3h-2.2v5.9H22v-5.9h-2.1V9.1h5.8v1.2zm4.1 4.1l1.6-5.3H33l-2.5 7.1H29l-2.5-7.1h1.6l1.7 5.3z"/><path d="M3.3 5.7V14c0 .9.7 1.6 1.5 1.6h.1v3.2c0 .7.6 1.2 1.2 1.2s1.2-.6 1.2-1.2v-3.2h3.1v3.2c0 .7.6 1.2 1.2 1.2.7 0 1.2-.6 1.2-1.2v-3.2h.1c.9 0 1.5-.7 1.5-1.6V5.8L3.3 5.7zm-2.1.7C.6 6.4 0 7 0 7.7V13c0 .7.6 1.2 1.2 1.2s1.2-.6 1.2-1.2V7.7c.1-.7-.5-1.3-1.2-1.3zm15.4 0c-.7 0-1.2.6-1.2 1.2V13c0 .7.6 1.2 1.2 1.2s1.2-.6 1.2-1.2V7.7c.1-.7-.5-1.3-1.2-1.3zm-2-1.2C14.5 4 14 2.9 13.2 2L14.3.2V0h-.2l-1 1.8C12 1 10.8.5 9.5.4H8.3C7 .5 5.8 1 4.9 1.8L3.9 0h-.2c-.1 0-.1.1 0 .2l1 1.8c-.9.9-1.4 2-1.4 3.2h11.3zm-3.8-2.3c0-.4.3-.6.6-.6.4 0 .6.3.6.6 0 .4-.3.6-.6.6-.3.1-.6-.2-.6-.6zM6 2.9c0-.4.3-.6.6-.6.4 0 .6.3.6.6 0 .4-.3.6-.6.6-.4.1-.6-.2-.6-.6z" fill="#a4c639" id="Layer_1-2_1_"/></svg>