<svg xmlns="http://www.w3.org/2000/svg" id="Layer_1" viewBox="0 0 20 20"><path d="M4.3 5.7V14c0 .9.7 1.6 1.5 1.6h.1v3.2c0 .7.6 1.2 1.2 1.2s1.2-.6 1.2-1.2v-3.2h3.1v3.2c0 .7.6 1.2 1.2 1.2.7 0 1.2-.6 1.2-1.2v-3.2h.1c.9 0 1.5-.7 1.5-1.6V5.8L4.3 5.7zm-2 .7c-.7 0-1.2.6-1.2 1.3V13c0 .7.6 1.2 1.2 1.2s1.2-.6 1.2-1.2V7.7C3.6 7 3 6.4 2.3 6.4zm15.4 0c-.7 0-1.2.6-1.2 1.2V13c0 .7.6 1.2 1.2 1.2s1.2-.6 1.2-1.2V7.7c0-.7-.5-1.3-1.2-1.3zm-2.1-1.2c0-1.2-.5-2.3-1.4-3.1L15.3.3V.1h-.2l-1 1.8c-1-.8-2.2-1.4-3.4-1.5H9.4C8.1.5 6.9 1 5.9 1.8L4.9 0h-.2c-.1 0-.1.1 0 .2L5.8 2c-.9.9-1.4 2-1.4 3.2h11.2zm-3.7-2.3c0-.4.3-.6.6-.6.4 0 .6.3.6.6 0 .4-.3.6-.6.6-.4.1-.6-.2-.6-.6zM7 2.9c0-.4.3-.6.6-.6.4 0 .6.3.6.6 0 .4-.3.6-.6.6-.3.1-.6-.2-.6-.6z" fill="#a4c639" id="Layer_1-2"/></svg>