<svg xmlns="http://www.w3.org/2000/svg" id="Layer_1" viewBox="0 0 31 20">
    <style>
        .st0{fill:#ccc}
    </style>
    <path d="M23.7 10.3h-2.2v5.9H20v-5.9h-2.1V9.1h5.8v1.2zM27.8 14.4l1.6-5.3H31l-2.5 7.1H27l-2.5-7.1h1.6l1.7 5.3z"/>
    <g>
        <path id="XMLID_4_" d="M9 1.5C9.7.6 11 0 12 0c.1 1.2-.3 2.4-1.1 3.2-.7.9-1.9 1.5-3 1.4-.2-1.1.4-2.3 1.1-3.1z" class="st0"/>
        <path id="XMLID_3_" d="M14.5 17.6c-.8 1.2-1.6 2.4-3 2.4-1.3 0-1.7-.8-3.2-.8-1.5 0-2 .7-3.2.8-1.3 0-2.3-1.3-3.1-2.5C.3 15.1-.9 10.7.8 7.7c.9-1.5 2.4-2.4 4-2.4 1.3 0 2.4.8 3.2.8.8 0 2.1-1 3.7-.9.6 0 2.4.2 3.6 1.9-.1.1-2.1 1.2-2.1 3.7 0 2.9 2.6 3.9 2.6 3.9 0 .2-.4 1.5-1.3 2.9z" class="st0"/>
    </g>
</svg>
