<svg xmlns="http://www.w3.org/2000/svg" xmlns:xlink="http://www.w3.org/1999/xlink" id="Layer_1" viewBox="0 0 20 20"><style>.st1{fill:#db4437}.st4{fill:#3e2723;fill-opacity:.15}.st6{fill:#0f9d58}.st12{fill:#ffcd40}.st35{fill:#fff;fill-opacity:.2}</style><g id="Layer_1-2"><defs><circle id="SVGID_1_" cx="10" cy="10" r="10"/></defs><clipPath id="SVGID_2_"><use overflow="visible" xlink:href="#SVGID_1_"/></clipPath><g clip-path="url(#SVGID_2_)"><path d="M1.6 0v12.3h4.5L10 5.5h10V0H1.6z" class="st1"/><linearGradient id="SVGID_3_" x1="9.425" x2="15.39" y1="-1653.925" y2="-1657.409" gradientTransform="translate(-7 1661.54)" gradientUnits="userSpaceOnUse"><stop offset="0" stop-color="#a52714" stop-opacity=".6"/><stop offset=".66" stop-color="#a52714" stop-opacity="0"/></linearGradient><path fill="url(#SVGID_3_)" d="M1.6 0v12.3h4.5L10 5.5h10V0H1.6z"/></g><defs><circle id="SVGID_4_" cx="10" cy="10" r="10"/></defs><clipPath id="SVGID_5_"><use overflow="visible" xlink:href="#SVGID_4_"/></clipPath><g clip-path="url(#SVGID_5_)"><path d="M6.2 12.2L1.6 4.5v.1l4.6 7.6z" class="st4"/></g><defs><circle id="SVGID_6_" cx="10" cy="10" r="10"/></defs><clipPath id="SVGID_7_"><use overflow="visible" xlink:href="#SVGID_6_"/></clipPath><g clip-path="url(#SVGID_7_)"><path d="M0 20h9.5l4.4-4.4v-3.3H6.1L0 1.9V20z" class="st6"/><linearGradient id="SVGID_8_" x1="18.689" x2="12.061" y1="-1643.752" y2="-1647.637" gradientTransform="translate(-7 1661.54)" gradientUnits="userSpaceOnUse"><stop offset="0" stop-color="#055524" stop-opacity=".4"/><stop offset=".33" stop-color="#055524" stop-opacity="0"/></linearGradient><path fill="url(#SVGID_8_)" d="M0 20h9.5l4.4-4.4v-3.3H6.1L0 1.9V20z"/></g><defs><circle id="SVGID_9_" cx="10" cy="10" r="10"/></defs><clipPath id="SVGID_10_"><use overflow="visible" xlink:href="#SVGID_9_"/></clipPath><g clip-path="url(#SVGID_10_)"><path fill="#263238" fill-opacity=".15" d="M13.8 12.4L9.4 20h.1l4.3-7.6z"/></g><defs><circle id="SVGID_11_" cx="10" cy="10" r="10"/></defs><clipPath id="SVGID_12_"><use overflow="visible" xlink:href="#SVGID_11_"/></clipPath><g clip-path="url(#SVGID_12_)"><defs><path id="SVGID_13_" d="M0 20h9.5l4.4-4.4v-3.3H6.1L0 1.9z"/></defs><clipPath id="SVGID_14_"><use overflow="visible" xlink:href="#SVGID_13_"/></clipPath><g clip-path="url(#SVGID_14_)"><path d="M10 5.5l3.9 6.8L9.5 20H20V5.5H10z" class="st12"/><linearGradient id="SVGID_15_" x1="19.938" x2="21.607" y1="-1656.79" y2="-1649.481" gradientTransform="translate(-7 1661.54)" gradientUnits="userSpaceOnUse"><stop offset="0" stop-color="#ea6100" stop-opacity=".3"/><stop offset=".66" stop-color="#ea6100" stop-opacity="0"/></linearGradient><path fill="url(#SVGID_15_)" d="M10 5.5l3.9 6.8L9.5 20H20V5.5H10z"/></g></g><defs><circle id="SVGID_16_" cx="10" cy="10" r="10"/></defs><clipPath id="SVGID_17_"><use overflow="visible" xlink:href="#SVGID_16_"/></clipPath><g clip-path="url(#SVGID_17_)"><path d="M10 5.5l3.9 6.8L9.5 20H20V5.5H10z" class="st12"/><linearGradient id="SVGID_18_" x1="19.938" x2="21.607" y1="-1656.79" y2="-1649.481" gradientTransform="translate(-7 1661.54)" gradientUnits="userSpaceOnUse"><stop offset="0" stop-color="#ea6100" stop-opacity=".3"/><stop offset=".66" stop-color="#ea6100" stop-opacity="0"/></linearGradient><path fill="url(#SVGID_18_)" d="M10 5.5l3.9 6.8L9.5 20H20V5.5H10z"/></g><defs><circle id="SVGID_19_" cx="10" cy="10" r="10"/></defs><clipPath id="SVGID_20_"><use overflow="visible" xlink:href="#SVGID_19_"/></clipPath><g clip-path="url(#SVGID_20_)"><defs><path id="SVGID_21_" d="M10 5.5l3.9 6.8L9.5 20H20V5.5z"/></defs><clipPath id="SVGID_22_"><use overflow="visible" xlink:href="#SVGID_21_"/></clipPath><g clip-path="url(#SVGID_22_)"><path d="M1.6 0v12.3h4.5L10 5.5h10V0H1.6z" class="st1"/><linearGradient id="SVGID_23_" x1="9.425" x2="15.39" y1="-1653.925" y2="-1657.409" gradientTransform="translate(-7 1661.54)" gradientUnits="userSpaceOnUse"><stop offset="0" stop-color="#a52714" stop-opacity=".6"/><stop offset=".66" stop-color="#a52714" stop-opacity="0"/></linearGradient><path fill="url(#SVGID_23_)" d="M1.6 0v12.3h4.5L10 5.5h10V0H1.6z"/></g></g><defs><circle id="SVGID_24_" cx="10" cy="10" r="10"/></defs><clipPath id="SVGID_25_"><use overflow="visible" xlink:href="#SVGID_24_"/></clipPath><g clip-path="url(#SVGID_25_)"><radialGradient id="SVGID_26_" cx="592.566" cy="-1656.09" r="9.553" gradientTransform="translate(-583 1661.54)" gradientUnits="userSpaceOnUse"><stop offset="0" stop-color="#3e2723" stop-opacity=".2"/><stop offset="1" stop-color="#3e2723" stop-opacity="0"/></radialGradient><path fill="url(#SVGID_26_)" d="M10 5.5v2.4l8.9-2.4H10z"/></g><defs><circle id="SVGID_27_" cx="10" cy="10" r="10"/></defs><clipPath id="SVGID_28_"><use overflow="visible" xlink:href="#SVGID_27_"/></clipPath><g clip-path="url(#SVGID_28_)"><defs><path id="SVGID_29_" d="M1.6 0v4.6l4.5 7.7L10 5.5h10V0z"/></defs><clipPath id="SVGID_30_"><use overflow="visible" xlink:href="#SVGID_29_"/></clipPath><g clip-path="url(#SVGID_30_)"><path d="M0 20h9.5l4.4-4.4v-3.3H6.1L0 1.9V20z" class="st6"/><linearGradient id="SVGID_31_" x1="18.689" x2="12.061" y1="-1643.752" y2="-1647.637" gradientTransform="translate(-7 1661.54)" gradientUnits="userSpaceOnUse"><stop offset="0" stop-color="#055524" stop-opacity=".4"/><stop offset=".33" stop-color="#055524" stop-opacity="0"/></linearGradient><path fill="url(#SVGID_31_)" d="M0 20h9.5l4.4-4.4v-3.3H6.1L0 1.9V20z"/></g></g><defs><circle id="SVGID_32_" cx="10" cy="10" r="10"/></defs><clipPath id="SVGID_33_"><use overflow="visible" xlink:href="#SVGID_32_"/></clipPath><g clip-path="url(#SVGID_33_)"><radialGradient id="SVGID_34_" cx="183.766" cy="-500.878" r="8.869" gradientTransform="matrix(1 0 0 -1 0 20)" gradientUnits="userSpaceOnUse"><stop offset="0" stop-color="#3e2723" stop-opacity=".2"/><stop offset="1" stop-color="#3e2723" stop-opacity="0"/></radialGradient><path fill="url(#SVGID_34_)" d="M1.6 4.6l6.5 6.5-2 1.2-4.5-7.7z"/></g><defs><circle id="SVGID_35_" cx="10" cy="10" r="10"/></defs><clipPath id="SVGID_36_"><use overflow="visible" xlink:href="#SVGID_35_"/></clipPath><g clip-path="url(#SVGID_36_)"><radialGradient id="SVGID_37_" cx="592.981" cy="-1651.524" r="9.984" gradientTransform="translate(-583 1661.54)" gradientUnits="userSpaceOnUse"><stop offset="0" stop-color="#263238" stop-opacity=".2"/><stop offset="1" stop-color="#263238" stop-opacity="0"/></radialGradient><path fill="url(#SVGID_37_)" d="M9.5 20l2.4-8.9 2 1.2L9.5 20z"/></g><defs><circle id="SVGID_38_" cx="10" cy="10" r="10"/></defs><clipPath id="SVGID_39_"><use overflow="visible" xlink:href="#SVGID_38_"/></clipPath><g clip-path="url(#SVGID_39_)"><circle cx="10" cy="10" r="4.5" fill="#f1f1f1"/><circle cx="10" cy="10" r="3.6" fill="#4285f4"/></g><defs><circle id="SVGID_40_" cx="10" cy="10" r="10"/></defs><clipPath id="SVGID_41_"><use overflow="visible" xlink:href="#SVGID_40_"/></clipPath><g clip-path="url(#SVGID_41_)"><path fill="#3e2723" fill-opacity=".2" d="M10 5.3c-2.5 0-4.5 2-4.5 4.5v.2c0-2.5 2-4.5 4.5-4.5h10v-.2H10z"/><path fill="#fff" fill-opacity=".1" d="M13.9 12.3c-1.2 2.2-4 2.9-6.2 1.7-.7-.4-1.3-1-1.7-1.7L0 1.9V2l6.1 10.4c1.3 2.2 4 2.9 6.2 1.7.7-.4 1.3-1 1.7-1.7l-.1-.1z"/><path fill="#3e2723" d="M10.1 5.5c2.5 0 4.5 2 4.5 4.5s-2 4.5-4.5 4.5h.1c2.5 0 4.5-2 4.5-4.5s-2.1-4.6-4.6-4.5z" opacity=".1"/><path d="M14 12.4c.6-1.1.8-2.4.4-3.6.3 1.2.2 2.4-.4 3.5L9.5 20h.1l4.4-7.6z" class="st35"/></g><defs><circle id="SVGID_42_" cx="10" cy="10" r="10"/></defs><clipPath id="SVGID_43_"><use overflow="visible" xlink:href="#SVGID_42_"/></clipPath><g clip-path="url(#SVGID_43_)"><path d="M10 .1c5.5 0 10 4.4 10 9.9 0-5.5-4.5-10-10-10S0 4.5 0 10v.1C0 4.6 4.5.1 10 .1z" class="st35"/><path d="M10 19.9c5.5 0 10-4.4 10-9.9 0 5.5-4.5 10-10 10S0 15.5 0 10v-.1c0 5.5 4.5 10 10 10z" class="st4"/></g><radialGradient id="SVGID_44_" cx="9.988" cy="-1658.812" r="20.084" gradientTransform="translate(-7 1661.54)" gradientUnits="userSpaceOnUse"><stop offset="0" stop-color="#fff" stop-opacity=".1"/><stop offset="1" stop-color="#fff" stop-opacity="0"/></radialGradient><circle cx="10" cy="10" r="10" fill="url(#SVGID_44_)"/></g></svg>