<svg fill="none" xmlns="http://www.w3.org/2000/svg" viewBox="0 0 74 74">
  <path d="M70.323 22.814H36.501c-7.559-.007-13.692 6.115-13.7 13.674-.002 2.348.6 4.657 1.747 6.705L7.638 14.177C19.953-1.765 42.862-4.703 58.804 7.614a36.478 36.478 0 0111.518 15.2z" fill="#F44336"/>
  <path d="M73 36.501C72.983 56.651 56.652 72.983 36.5 73a32.546 32.546 0 01-4.562-.304l16.424-29.351c3.765-6.553 1.52-14.917-5.018-18.706a13.559 13.559 0 00-6.813-1.825h33.791A35.984 35.984 0 0173 36.502z" fill="#FFC107"/>
  <path d="M48.363 43.345L31.94 72.695h-.03C11.922 70.17-2.234 51.922.292 31.935a36.477 36.477 0 017.345-17.758l16.911 29.017.091.152c3.771 6.551 12.14 8.805 18.69 5.034a13.686 13.686 0 005.034-5.034z" fill="#4CAF50"/>
  <path d="M48.363 43.345c-3.77 6.551-12.139 8.805-18.69 5.034a13.688 13.688 0 01-5.034-5.034l-.09-.152c-3.697-6.594-1.347-14.936 5.248-18.631a13.688 13.688 0 016.704-1.748h.03a13.56 13.56 0 016.814 1.825c6.539 3.79 8.783 12.153 5.018 18.706z" fill="#F44336"/>
  <path d="M48.363 43.345c-3.77 6.551-12.139 8.805-18.69 5.034a13.688 13.688 0 01-5.034-5.034l-.09-.152c-3.697-6.594-1.347-14.936 5.248-18.631a13.688 13.688 0 016.704-1.748h.03a13.56 13.56 0 016.814 1.825c6.539 3.79 8.783 12.153 5.018 18.706z" fill="#2196F3"/>
  <path d="M36.45 51.709c-2.652 0-5.257-.699-7.552-2.026a15.263 15.263 0 01-5.575-5.578c-4.2-7.273-1.708-16.574 5.566-20.774a15.21 15.21 0 017.613-2.037C44.9 21.287 51.713 28.09 51.72 36.49c.002 2.673-.7 5.3-2.038 7.615A15.293 15.293 0 0136.45 51.71zm.079-27.374a12.133 12.133 0 00-10.582 6.083c-3.36 5.826-1.36 13.272 4.465 16.632 5.826 3.36 13.272 1.36 16.631-4.465 3.36-5.82 1.366-13.26-4.453-16.62a12.167 12.167 0 00-6.058-1.63h-.003z" fill="#FAFAFA"/>
  <rect x="43.75" y="37" width="22.5" height="36" rx="4" fill="#fff"/>
  <path d="M61.907 39.25H48.093c-1.151 0-2.093.957-2.093 2.128V68.62c0 1.171.942 2.129 2.093 2.129h13.814c1.151 0 2.093-.956 2.093-2.128V41.378c0-1.171-.942-2.128-2.093-2.128zm-1.744 25.16H49.838V45.026h10.325V64.41z" fill="#0A0A0A"/>
  <rect x="51.625" y="41.5" width="6.75" height="1.125" rx=".563" fill="#fff"/>
  <rect x="52.75" y="66.25" width="4.5" height="3.375" rx="1.688" fill="#fff"/>
</svg>