<svg xmlns="http://www.w3.org/2000/svg" viewBox="0 0 20 20"><path d="M20 10c0 5.523-4.477 10-10 10S0 15.523 0 10 4.477 0 10 0s10 4.477 10 10zm0 0" fill-rule="evenodd" fill="#2b2e3a"/><path d="M7.852 5.602c-2.032-.372-3.637.015-4.278 1.125-.48.828-.344 1.925.332 3.097.035.067.106.11.18.11s.144-.04.184-.106a.214.214 0 00-.004-.21c-.606-1.056-.723-2.005-.332-2.684.53-.918 1.964-1.266 3.843-.922a.208.208 0 00.239-.168.206.206 0 00-.164-.242zM4.96 11.25c.82.902 1.89 1.75 3.105 2.453 2.95 1.7 6.086 2.156 7.633 1.102a.213.213 0 00.094-.188.207.207 0 00-.328-.156c-1.387.941-4.367.512-7.188-1.121-1.183-.68-2.214-1.5-3.007-2.371a.21.21 0 00-.2-.063.2.2 0 00-.152.14.204.204 0 00.043.204zm0 0" fill="#9feaf9"/><path d="M15.203 10.996C16.535 9.426 17 7.844 16.36 6.738c-.468-.816-1.46-1.246-2.785-1.261a.208.208 0 00-.207.207c0 .113.09.207.203.21 1.188.016 2.043.383 2.43 1.051.531.918.117 2.328-1.113 3.782a.211.211 0 00-.04.207c.024.07.087.12.16.136a.207.207 0 00.196-.074zm-3.418-5.324c-1.203.258-2.48.762-3.71 1.469-3.044 1.757-5.028 4.347-4.755 6.226a.215.215 0 00.13.164c.07.028.152.016.21-.031a.207.207 0 00.074-.195c-.246-1.668 1.637-4.121 4.547-5.801 1.192-.691 2.434-1.18 3.594-1.426a.21.21 0 00.156-.14.204.204 0 00-.043-.204.2.2 0 00-.203-.062zm0 0" fill="#9feaf9"/><path d="M6.855 14.668c.696 1.941 1.836 3.137 3.114 3.137.933 0 1.797-.633 2.472-1.754a.214.214 0 00.004-.211.214.214 0 00-.18-.11.213.213 0 00-.183.106c-.605 1.008-1.348 1.555-2.113 1.555-1.063 0-2.078-1.067-2.719-2.864a.205.205 0 00-.16-.136.206.206 0 00-.2.07.22.22 0 00-.035.207zm6.356-.379c.36-1.152.555-2.48.555-3.863 0-3.45-1.211-6.426-2.93-7.192a.215.215 0 00-.274.11.21.21 0 00.106.273c1.531.68 2.68 3.504 2.68 6.809 0 1.344-.188 2.629-.536 3.738a.213.213 0 00.043.207c.051.055.13.078.204.063a.226.226 0 00.152-.145zm3.922-.203c0-.55-.445-1-.996-1a.999.999 0 000 1.996c.55 0 .996-.445.996-.996zm-.414 0a.58.58 0 01-.582.578.58.58 0 110-1.16c.32 0 .582.258.582.582zm-12.93.996a.999.999 0 000-1.996.999.999 0 000 1.996zm0-.418a.58.58 0 110-1.16.581.581 0 110 1.16zm0 0" fill="#9feaf9"/><path d="M9.969 4.254a.999.999 0 10.003-1.997.999.999 0 00-.003 1.997zm0-.418a.58.58 0 11.004-1.16.58.58 0 01-.004 1.16zm.152 7.297a.722.722 0 11-.3-1.412.722.722 0 01.3 1.412zm0 0" fill="#9feaf9"/></svg>