<svg fill="none" xmlns="http://www.w3.org/2000/svg" viewBox="0 0 74 74">
  <g clip-path="url(#clip0)">
    <path d="M65.649 14.326A36.017 36.017 0 0037.949.008c-8.475-.17-14.33 2.377-17.642 4.425C24.739 1.863 31.153.404 36.768.476c14.445.183 29.96 10.02 32.263 27.752 2.647 20.354-11.53 37.342-31.474 37.394-21.941.056-35.287-19.371-31.798-36.82.065-.856.19-1.706.377-2.544a34.506 34.506 0 013.826-12.791C7.435 14.774 4.218 18.91 2.63 22.74A37.736 37.736 0 00.26 41.154c.054.472.103.944.165 1.413a36.556 36.556 0 1065.224-28.24z" fill="url(#paint0_radial)"/>
    <path opacity=".67" d="M65.649 14.326A36.017 36.017 0 0037.949.008c-8.475-.17-14.33 2.377-17.642 4.425C24.739 1.863 31.153.404 36.768.476c14.445.183 29.96 10.02 32.263 27.752 2.647 20.354-11.53 37.342-31.474 37.394-21.941.056-35.287-19.371-31.798-36.82.065-.856.19-1.706.377-2.544a34.506 34.506 0 013.826-12.791C7.435 14.774 4.218 18.91 2.63 22.74A37.736 37.736 0 00.26 41.154c.054.472.103.944.165 1.413a36.556 36.556 0 1065.224-28.24z" fill="url(#paint1_radial)"/>
    <path d="M65.649 14.326A36.017 36.017 0 0037.949.008c-8.475-.17-14.33 2.377-17.642 4.425C24.739 1.863 31.153.404 36.768.476c14.445.183 29.96 10.02 32.263 27.752 2.647 20.354-11.53 37.342-31.474 37.394-21.941.056-35.287-19.371-31.798-36.82.065-.856.19-1.706.377-2.544a34.506 34.506 0 013.826-12.791C7.435 14.774 4.218 18.91 2.63 22.74A37.736 37.736 0 00.26 41.154c.054.472.103.944.165 1.413a36.556 36.556 0 1065.224-28.24z" fill="url(#paint2_radial)"/>
    <path d="M65.649 14.326A36.017 36.017 0 0037.949.008c-8.475-.17-14.33 2.377-17.642 4.425C24.739 1.863 31.153.404 36.768.476c14.445.183 29.96 10.02 32.263 27.752 2.647 20.354-11.53 37.342-31.474 37.394-21.941.056-35.287-19.371-31.798-36.82.065-.856.19-1.706.377-2.544a34.506 34.506 0 013.826-12.791C7.435 14.774 4.218 18.91 2.63 22.74A37.736 37.736 0 00.26 41.154c.054.472.103.944.165 1.413a36.556 36.556 0 1065.224-28.24z" fill="url(#paint3_radial)"/>
    <path d="M65.649 14.326A36.017 36.017 0 0037.949.008c-8.475-.17-14.33 2.377-17.642 4.425C24.739 1.863 31.153.404 36.768.476c14.445.183 29.96 10.02 32.263 27.752 2.647 20.354-11.53 37.342-31.474 37.394-21.941.056-35.287-19.371-31.798-36.82.065-.856.19-1.706.377-2.544a34.506 34.506 0 013.826-12.791C7.435 14.774 4.218 18.91 2.63 22.74A37.736 37.736 0 00.26 41.154c.054.472.103.944.165 1.413a36.556 36.556 0 1065.224-28.24z" fill="url(#paint4_radial)"/>
    <path d="M69.031 28.228c.287 2.192.378 4.405.274 6.613a105.2 105.2 0 013.638-.484 36.509 36.509 0 00-7.294-20.03A36.018 36.018 0 0037.949.007c-8.475-.17-14.33 2.377-17.642 4.425C24.739 1.863 31.153.404 36.768.476c14.445.185 29.96 10.018 32.263 27.752z" fill="url(#paint5_linear)"/>
    <path d="M69.92 27.216C67.866 8.686 51.34.356 36.768.476c-5.616.046-12.03 1.386-16.461 3.957a17.975 17.975 0 00-3.249 2.464c.118-.098.47-.387 1.052-.787l.057-.04.051-.034a24.324 24.324 0 017.019-3.26 39.694 39.694 0 0112.03-1.407 30.344 30.344 0 0128.515 29.193c.335 12.052-9.528 21.66-20.898 22.217-8.269.405-16.06-3.596-19.865-11.6a19.783 19.783 0 01-1.792-5.78c-1.803-12.181 6.377-22.57 13.879-25.142C33.059 6.72 22.918 6.96 15.37 12.514c-5.435 3.999-8.96 10.082-10.129 17.338a30.062 30.062 0 002.136 16.424 32.212 32.212 0 0027.456 19.567c.906.07 1.813.104 2.723.103 24.146 0 34.622-18.329 32.363-38.73z" fill="url(#paint6_radial)"/>
    <path d="M69.92 27.216C67.866 8.686 51.34.356 36.768.476c-5.616.046-12.03 1.386-16.461 3.957a17.975 17.975 0 00-3.249 2.464c.118-.098.47-.387 1.052-.787l.057-.04.051-.034a24.324 24.324 0 017.019-3.26 39.694 39.694 0 0112.03-1.407 30.344 30.344 0 0128.515 29.193c.335 12.052-9.528 21.66-20.898 22.217-8.269.405-16.06-3.596-19.865-11.6a19.783 19.783 0 01-1.792-5.78c-1.803-12.181 6.377-22.57 13.879-25.142C33.059 6.72 22.918 6.96 15.37 12.514c-5.435 3.999-8.96 10.082-10.129 17.338a30.062 30.062 0 002.136 16.424 32.212 32.212 0 0027.456 19.567c.906.07 1.813.104 2.723.103 24.146 0 34.622-18.329 32.363-38.73z" fill="url(#paint7_radial)"/>
    <path style="mix-blend-mode:multiply" opacity=".53" d="M69.92 27.216C67.866 8.686 51.34.356 36.768.476c-5.616.046-12.03 1.386-16.461 3.957a17.975 17.975 0 00-3.249 2.464c.118-.098.47-.387 1.052-.787l.057-.04.051-.034a24.324 24.324 0 017.019-3.26 39.694 39.694 0 0112.03-1.407 30.344 30.344 0 0128.515 29.193c.335 12.052-9.528 21.66-20.898 22.217-8.269.405-16.06-3.596-19.865-11.6a19.783 19.783 0 01-1.792-5.78c-1.803-12.181 6.377-22.57 13.879-25.142C33.059 6.72 22.918 6.96 15.37 12.514c-5.435 3.999-8.96 10.082-10.129 17.338a30.062 30.062 0 002.136 16.424 32.212 32.212 0 0027.456 19.567c.906.07 1.813.104 2.723.103 24.146 0 34.622-18.329 32.363-38.73z" fill="url(#paint8_radial)"/>
    <path style="mix-blend-mode:multiply" opacity=".53" d="M69.92 27.216C67.866 8.686 51.34.356 36.768.476c-5.616.046-12.03 1.386-16.461 3.957a17.975 17.975 0 00-3.249 2.464c.118-.098.47-.387 1.052-.787l.057-.04.051-.034a24.324 24.324 0 017.019-3.26 39.694 39.694 0 0112.03-1.407 30.344 30.344 0 0128.515 29.193c.335 12.052-9.528 21.66-20.898 22.217-8.269.405-16.06-3.596-19.865-11.6a19.783 19.783 0 01-1.792-5.78c-1.803-12.181 6.377-22.57 13.879-25.142C33.059 6.72 22.918 6.96 15.37 12.514c-5.435 3.999-8.96 10.082-10.129 17.338a30.062 30.062 0 002.136 16.424 32.212 32.212 0 0027.456 19.567c.906.07 1.813.104 2.723.103 24.146 0 34.622-18.329 32.363-38.73z" fill="url(#paint9_radial)"/>
    <path d="M44.884 52.779c15.604-.949 22.283-13.87 22.702-23.036.654-14.322-7.843-29.761-30.32-28.374a39.694 39.694 0 00-12.029 1.41 26.33 26.33 0 00-7.019 3.26l-.051.035-.058.039c-.349.243-.69.5-1.024.768A30.553 30.553 0 0136.226 3.29C49.131 4.983 60.93 15.022 60.93 28.267c0 10.192-7.875 17.977-17.098 17.417-13.701-.82-17.155-14.873-10.027-20.945-1.922-.414-5.534.397-8.049 4.156-2.256 3.377-2.128 8.587-.736 12.283A20.183 20.183 0 0044.884 52.78z" fill="url(#paint10_radial)"/>
    <path d="M65.649 14.326a36.459 36.459 0 00-3.177-3.633 28.597 28.597 0 00-2.9-2.67c.591.514 1.154 1.06 1.688 1.633a20.5 20.5 0 014.455 7.431c1.906 5.776 1.782 13.004-1.858 18.68a21.48 21.48 0 01-19.03 9.942c-.33 0-.662 0-.996-.025-13.701-.82-17.155-14.873-10.027-20.945-1.922-.414-5.534.397-8.049 4.156-2.256 3.377-2.129 8.587-.736 12.283a19.783 19.783 0 01-1.791-5.778c-1.804-12.182 6.376-22.571 13.878-25.143C33.059 6.72 22.918 6.96 15.37 12.514a25.409 25.409 0 00-9.204 13.323 35.132 35.132 0 013.795-12.368c-2.527 1.308-5.744 5.444-7.332 9.274a37.736 37.736 0 00-2.37 18.41c.054.473.103.945.165 1.414a36.556 36.556 0 1065.224-28.24z" fill="url(#paint11_linear)"/>
    <path d="M65.715 17.087a20.493 20.493 0 00-4.455-7.43 27.58 27.58 0 00-8.298-5.926A36.97 36.97 0 0044.803.84 36.349 36.349 0 0029.688.75c-5.185 1.094-9.745 3.338-12.63 6.143a29.29 29.29 0 017.329-2.92 30.628 30.628 0 0128.445 7.391 24.645 24.645 0 013.95 4.837c4.467 7.262 4.044 16.393.561 21.777-2.587 4-8.127 7.757-13.297 7.713a21.561 21.561 0 0019.81-9.92c3.64-5.68 3.765-12.907 1.859-18.683z" fill="url(#paint12_linear)"/>
    <path d="M65.715 17.087a20.493 20.493 0 00-4.455-7.43 27.58 27.58 0 00-8.298-5.926A36.97 36.97 0 0044.803.84 36.349 36.349 0 0029.688.75c-5.185 1.094-9.745 3.338-12.63 6.143a29.29 29.29 0 017.329-2.92 30.628 30.628 0 0128.445 7.391 24.645 24.645 0 013.95 4.837c4.467 7.262 4.044 16.393.561 21.777-2.587 4-8.127 7.757-13.297 7.713a21.561 21.561 0 0019.81-9.92c3.64-5.68 3.765-12.907 1.859-18.683z" fill="url(#paint13_linear)"/>
    <rect x="43.75" y="37" width="22.5" height="36" rx="4" fill="#fff"/>
    <path d="M61.907 39.25H48.093c-1.151 0-2.093.957-2.093 2.128V68.62c0 1.171.942 2.129 2.093 2.129h13.814c1.151 0 2.093-.956 2.093-2.128V41.378c0-1.171-.942-2.128-2.093-2.128zm-1.744 25.16H49.838V45.026h10.325V64.41z" fill="#0A0A0A"/>
    <rect x="51.625" y="41.5" width="6.75" height="1.125" rx=".563" fill="#fff"/>
    <rect x="52.75" y="66.25" width="4.5" height="3.375" rx="1.688" fill="#fff"/>
  </g>
  <defs>
    <radialGradient id="paint0_radial" cx="0" cy="0" r="1" gradientUnits="userSpaceOnUse" gradientTransform="translate(65.272 14.951) scale(82.8367)">
      <stop stop-color="#FFF36E"/>
      <stop offset=".5" stop-color="#FC4055"/>
      <stop offset="1" stop-color="#E31587"/>
    </radialGradient>
    <radialGradient id="paint1_radial" cx="0" cy="0" r="1" gradientUnits="userSpaceOnUse" gradientTransform="translate(6.049 18.378) scale(49.025)">
      <stop offset=".001" stop-color="#C60084"/>
      <stop offset="1" stop-color="#FC4055" stop-opacity="0"/>
    </radialGradient>
    <radialGradient id="paint2_radial" cx="0" cy="0" r="1" gradientUnits="userSpaceOnUse" gradientTransform="translate(72.353 10.237) scale(97.2716)">
      <stop stop-color="#FFDE67" stop-opacity=".6"/>
      <stop offset=".093" stop-color="#FFD966" stop-opacity=".581"/>
      <stop offset=".203" stop-color="#FFCA65" stop-opacity=".525"/>
      <stop offset=".321" stop-color="#FEB262" stop-opacity=".432"/>
      <stop offset=".446" stop-color="#FE8F5E" stop-opacity=".302"/>
      <stop offset=".573" stop-color="#FD6459" stop-opacity=".137"/>
      <stop offset=".664" stop-color="#FC4055" stop-opacity="0"/>
    </radialGradient>
    <radialGradient id="paint3_radial" cx="0" cy="0" r="1" gradientUnits="userSpaceOnUse" gradientTransform="translate(38.585 40.519) scale(125.488)">
      <stop offset=".153" stop-color="#810220"/>
      <stop offset=".167" stop-color="#920B27" stop-opacity=".861"/>
      <stop offset=".216" stop-color="#CB2740" stop-opacity=".398"/>
      <stop offset=".253" stop-color="#EF394F" stop-opacity=".11"/>
      <stop offset=".272" stop-color="#FC4055" stop-opacity="0"/>
    </radialGradient>
    <radialGradient id="paint4_radial" cx="0" cy="0" r="1" gradientUnits="userSpaceOnUse" gradientTransform="translate(29.089 38.94) scale(125.488)">
      <stop offset=".113" stop-color="#810220"/>
      <stop offset=".133" stop-color="#920B27" stop-opacity=".861"/>
      <stop offset=".204" stop-color="#CB2740" stop-opacity=".398"/>
      <stop offset=".257" stop-color="#EF394F" stop-opacity=".11"/>
      <stop offset=".284" stop-color="#FC4055" stop-opacity="0"/>
    </radialGradient>
    <radialGradient id="paint6_radial" cx="0" cy="0" r="1" gradientUnits="userSpaceOnUse" gradientTransform="matrix(77.7629 0 0 77.9251 63.379 11.033)">
      <stop stop-color="#FF9640"/>
      <stop offset=".8" stop-color="#FC4055"/>
    </radialGradient>
    <radialGradient id="paint7_radial" cx="0" cy="0" r="1" gradientUnits="userSpaceOnUse" gradientTransform="matrix(77.7629 0 0 77.9251 63.379 11.033)">
      <stop offset=".084" stop-color="#FFDE67"/>
      <stop offset=".147" stop-color="#FFDC66" stop-opacity=".968"/>
      <stop offset=".246" stop-color="#FFD562" stop-opacity=".879"/>
      <stop offset=".369" stop-color="#FFCB5D" stop-opacity=".734"/>
      <stop offset=".511" stop-color="#FFBC55" stop-opacity=".533"/>
      <stop offset=".667" stop-color="#FFAA4B" stop-opacity=".28"/>
      <stop offset=".822" stop-color="#FF9640" stop-opacity="0"/>
    </radialGradient>
    <radialGradient id="paint8_radial" cx="0" cy="0" r="1" gradientUnits="userSpaceOnUse" gradientTransform="rotate(75.728 .1 46.94) scale(38.2067 39.7978)">
      <stop offset=".363" stop-color="#FC4055"/>
      <stop offset=".443" stop-color="#FD604D" stop-opacity=".633"/>
      <stop offset=".545" stop-color="#FE8644" stop-opacity=".181"/>
      <stop offset=".59" stop-color="#FF9640" stop-opacity="0"/>
    </radialGradient>
    <radialGradient id="paint9_radial" cx="0" cy="0" r="1" gradientUnits="userSpaceOnUse" gradientTransform="translate(38.998 38.414) scale(38.1334)">
      <stop offset=".216" stop-color="#FC4055" stop-opacity=".8"/>
      <stop offset=".267" stop-color="#FD5251" stop-opacity=".633"/>
      <stop offset=".41" stop-color="#FE8345" stop-opacity=".181"/>
      <stop offset=".474" stop-color="#FF9640" stop-opacity="0"/>
    </radialGradient>
    <radialGradient id="paint10_radial" cx="0" cy="0" r="1" gradientUnits="userSpaceOnUse" gradientTransform="matrix(131.434 0 0 131.708 78.898 2.231)">
      <stop offset=".054" stop-color="#FFF36E"/>
      <stop offset=".457" stop-color="#FF9640"/>
      <stop offset=".639" stop-color="#FF9640"/>
    </radialGradient>
    <linearGradient id="paint5_linear" x1="41.821" y1="7.106" x2="63.318" y2="44.339" gradientUnits="userSpaceOnUse">
      <stop stop-color="#FFBD4F"/>
      <stop offset=".508" stop-color="#FF9640" stop-opacity="0"/>
    </linearGradient>
    <linearGradient id="paint11_linear" x1="53.885" y1="6.463" x2="16.566" y2="71.102" gradientUnits="userSpaceOnUse">
      <stop stop-color="#FFF36E" stop-opacity=".8"/>
      <stop offset=".094" stop-color="#FFF36E" stop-opacity=".699"/>
      <stop offset=".752" stop-color="#FFF36E" stop-opacity="0"/>
    </linearGradient>
    <linearGradient id="paint12_linear" x1="37.034" y1="-.611" x2="56.849" y2="56.76" gradientUnits="userSpaceOnUse">
      <stop stop-color="#B833E1"/>
      <stop offset=".371" stop-color="#9059FF"/>
      <stop offset=".614" stop-color="#5B6DF8"/>
      <stop offset="1" stop-color="#0090ED"/>
    </linearGradient>
    <linearGradient id="paint13_linear" x1="25.285" y1=".296" x2="62.115" y2="37.125" gradientUnits="userSpaceOnUse">
      <stop offset=".805" stop-color="#722291" stop-opacity="0"/>
      <stop offset="1" stop-color="#592ACB" stop-opacity=".5"/>
    </linearGradient>
    <clipPath id="clip0">
      <path fill="#fff" d="M0 0h74v74H0z"/>
    </clipPath>
  </defs>
</svg>