<svg xmlns="http://www.w3.org/2000/svg" viewBox="0 0 20 20"><radialGradient id="a" cx="-15714.288" cy="-9507.079" r="9.164" fx="-15714.873" fy="-9507.079" gradientTransform="matrix(.76 .03 -.05 1.12 11486.865 11125.541)" gradientUnits="userSpaceOnUse"><stop offset=".1" stop-color="#ffea00"/><stop offset=".17" stop-color="#ffde00"/><stop offset=".28" stop-color="#ffbf00"/><stop offset=".43" stop-color="#ff8e00"/><stop offset=".77" stop-color="#ff272d"/><stop offset=".87" stop-color="#e0255a"/><stop offset=".95" stop-color="#cc2477"/><stop offset="1" stop-color="#c42482"/></radialGradient><path fill="url(#a)" d="M16 1.9c-.5.6-.7 1.8-.2 3.1s1.3 1 1.7 2.3c.6 1.7.3 4.1.3 4.1s.7 2.2 1.3-.1C20.2 6.9 16 2.9 16 1.9z"/><radialGradient id="b" cx="-8085.217" cy="-8965.637" r="16.082" gradientTransform="matrix(1.23 0 0 1.23 9957.838 11030.85)" gradientUnits="userSpaceOnUse"><stop offset="0" stop-color="#00ccda"/><stop offset=".22" stop-color="#0083ff"/><stop offset=".26" stop-color="#007af9"/><stop offset=".33" stop-color="#0060e8"/><stop offset=".33" stop-color="#005fe7"/><stop offset=".44" stop-color="#2639ad"/><stop offset=".52" stop-color="#401e84"/><stop offset=".57" stop-color="#4a1475"/></radialGradient><path fill="url(#b)" d="M10 19.8c5 0 9-4.1 9-9.1s-4-9.1-9-9.1-9 4.1-9 9.1c0 5.1 4 9.1 9 9.1z"/><linearGradient id="c" x1="11.3" x2="7.409" y1="-949.179" y2="-961.907" gradientTransform="translate(0 964)" gradientUnits="userSpaceOnUse"><stop offset="0" stop-color="#000f43" stop-opacity=".4"/><stop offset=".48" stop-color="#001962" stop-opacity=".17"/><stop offset="1" stop-color="#002079" stop-opacity="0"/></linearGradient><path fill="url(#c)" d="M16.8 16.3c-.2.1-.4.3-.6.4.3-.4.5-.8.8-1.3.2-.2.4-.4.5-.6.1-.1.1-.2.2-.4.5-.9 1.1-2.4 1.1-3.9v-.1c0-.4 0-.8-.1-1.1v.1c.1.9 0 1.7-.3 2.4.2-1 .3-2 0-3.1 0 0-.1-.5-.7-2.1-.4-.9-1-1.6-1.6-2.2-.5-.6-1-1-1.2-1.3-.5-.6-.7-1-.8-1.2-.1 0-1.1-1-1.2-1-.4.7-1.8 2.8-1.2 4.8.3.9 1 1.8 1.8 2.4 0 0 .5.5.7 1.6.2 1.1.1 1.9-.3 3.2-.5 1.1-1.8 2.2-3.1 2.3-2.6.2-3.6-1.3-3.6-1.3.9.4 2 .3 2.6-.1.6-.4 1-.7 1.3-.6.3.1.6-.2.3-.6-.3-.5-1-.8-1.6-.7-.6.1-1.2.6-2.1.1-.1 0-.1-.1-.2-.1s.2.1.1 0c-.2-.1-.5-.3-.5-.3h.1c-.8-.6-.7-1.1-.7-1.4 0-.2.2-.5.4-.6.1.1.2.1.2.1s0-.1-.1-.2c.1 0 .3.2.4.2l.2.2v-.1s-.1-.2-.2-.3c.1 0 .2.1.2.2.4-.1.4-.3.4-.6v-.3c0-.1 0-.1.1 0v-.2c.1-.2 1.4-.8 1.5-.9.2-.1.3-.3.4-.4-.1-.1 0-.2 0-.5 0-.2-.1-.3-1.4-.4-.4-.1-.6-.3-.7-.6 0-.1 0-.1-.1-.1 0-.1 0-.1-.1-.2.3-.6.7-1.2 1.2-1.6h-.1l.3-.1c.1 0-.2-.1-.5-.1-.2 0-.3.1-.4.1.1-.1.2-.1.2-.1-.2 0-.6.2-.9.3v-.1c-.1.1-.4.3-.5.5v-.1c-.1.1-.2.2-.2.3-.8-.3-1.5-.3-2-.2-.1-.1-.2 0-.5-.7 0-.1 0 .2 0 0-.5.4-1.1.8-1.4 1.1 0 0 .3-.1 0 0-.1 0-.1.1-.1.8v.2c-.3.3-.4.5-.5.6-.3.6-.7 1.4-1 2.7.1-.4.3-.7.5-1-.3.7-.5 1.8-.6 3.5.1-.3.2-.7.3-1-.1 1.4.2 2.8.7 4.1.2.5.5 1.2 1 1.9 1.7 1.8 4 2.9 6.7 2.9 2.7-.1 5.2-1.3 6.9-3.2z"/><radialGradient id="d" cx="-9155.963" cy="-7892.392" r="5.425" gradientTransform="matrix(1.22 .12 -.12 1.22 10243.111 10740.723)" gradientUnits="userSpaceOnUse"><stop offset="0" stop-color="#ffea00"/><stop offset=".5" stop-color="#ff272d"/><stop offset="1" stop-color="#c42482"/></radialGradient><path fill="url(#d)" d="M14.8 17.6c3.3-.4 4.8-3.8 2.9-3.9-1.7 0-4.5 4.1-2.9 3.9z"/><radialGradient id="e" cx="-9156.454" cy="-7897.593" r="9.059" gradientTransform="matrix(1.22 .12 -.12 1.22 10243.111 10740.723)" gradientUnits="userSpaceOnUse"><stop offset="0" stop-color="#ffe900"/><stop offset=".16" stop-color="#ffaf0e"/><stop offset=".32" stop-color="#ff7a1b"/><stop offset=".47" stop-color="#ff4e26"/><stop offset=".62" stop-color="#ff2c2e"/><stop offset=".76" stop-color="#ff1434"/><stop offset=".89" stop-color="#ff0538"/><stop offset="1" stop-color="#ff0039"/></radialGradient><path fill="url(#e)" d="M17.9 13.1c2.3-1.3 1.7-4.2 1.7-4.2s-.9 1-1.5 2.6-1.6 2.4-.2 1.6z"/><radialGradient id="f" cx="-9155.173" cy="-7889.196" r="8.312" gradientTransform="matrix(1.22 .12 -.12 1.22 10243.111 10740.723)" gradientUnits="userSpaceOnUse"><stop offset="0" stop-color="#ff272d"/><stop offset=".5" stop-color="#c42482"/><stop offset=".99" stop-color="#620700"/></radialGradient><path fill="url(#f)" d="M10.7 19.3c3.2 1 5.9-1.5 4.2-2.3-1.5-.8-5.7 1.8-4.2 2.3z"/><radialGradient id="g" cx="14.848" cy="-955.991" r="15.898" fx="15.416" fy="-956.272" gradientTransform="translate(0 964)" gradientUnits="userSpaceOnUse"><stop offset=".16" stop-color="#ffea00"/><stop offset=".23" stop-color="#ffde00"/><stop offset=".37" stop-color="#ffbf00"/><stop offset=".54" stop-color="#ff8e00"/><stop offset=".76" stop-color="#ff272d"/><stop offset=".8" stop-color="#f92433"/><stop offset=".84" stop-color="#e91c45"/><stop offset=".89" stop-color="#cf0e62"/><stop offset=".94" stop-color="#b5007f"/></radialGradient><path fill="url(#g)" d="M18.1 14.3c.1-.1.2-.5.3-.6.6-.9.6-1.7.6-1.7.3-1.7.3-2.4.1-3.7-.2-1-.9-2.5-1.5-3.2-.7-.7-.2-.5-.8-1-.6-.6-1.1-1.2-1.4-1.5C13.3.8 13.3.5 13.4.4V.2S12.2 1.4 12 3.3c-.2 1.3.3 2.6 1 3.4.2.5.6.9 1 1.3.5.7.8 1.7.8 2.6 0 2.5-2 4.5-4.5 4.5-.3 0-.7 0-1-.1-1.2-.2-1.8-.8-2.2-1.2-.2-.2-.3-.4-.3-.4 1 .4 2.2.3 2.9-.1.7-.4 1.1-.7 1.5-.6.3.1.6-.2.4-.6-.2-.3-.9-.8-1.8-.7-.7.1-1.4.6-2.3.1-.1 0-.1-.1-.2-.1s.2.1.1 0c0 0-.4-.2-.4-.3h.1c-.9-.6-.8-1.1-.7-1.3 0-.2.2-.5.4-.6.1.1.2.1.2.1s0-.1-.1-.1c.1 0 .3.2.5.2.2.1.2.2.2.2v-.1s-.1-.2-.2-.3c.1 0 .2.1.3.2 0-.1.1-.3.1-.6v-.3c0-.1 0-.1.1 0v-.1c.1-.2 1.5-.8 1.6-.9.1-.2.2-.3.4-.5 0-.1.1-.3.1-.5 0-.1 0-.2-.4-.3-.2 0-.6-.1-1.1-.1-.5-.1-.7-.3-.8-.6 0-.1 0-.1-.1-.1 0-.1 0-.1-.1-.2.3-.6.7-1.2 1.3-1.5h-.1l.3-.1c.1 0-.2-.1-.5-.1-.3-.1-.3-.1-.5 0 .1-.1.3-.1.2-.1-.3 0-.7.2-1 .4v-.1s-.4.2-.5.4V4l-.3.3C5.6 4 4.8 4 4.2 4.1c-.1-.1-.4-.3-.7-.9 0 0 0 .1 0 0-.1-.3-.2-.7-.2-1 0 0-.3.1-.5.6 0 .1-.1.1-.1.2v-.1c0 .1-.1.1-.2.3 0 .1-.1.1-.1.2v-.1c0 .1-.1.3-.2.5-.1.3-.2.8-.2 1.5v.1c-.3.3-.5.6-.5.7-.4.6-.7 1.4-1.1 2.7.2-.4.4-.7.6-1-.3.7-.6 1.8-.7 3.4.1-.3.2-.7.3-1-.1 1.1.1 2.5.8 4.1.4.9 1.4 2.8 3.7 4.2 0 0 .8.6 2.2 1 .1 0 .2.1.3.1h-.1c.9.3 1.9.4 2.8.4 3.6 0 4.6-1.4 4.6-1.4.1 0 .1-.1.1-.1-.5.5-1.8.5-2.3.5.8-.2 1.4-.4 2.4-.8.1 0 .2-.1.4-.2h.1c.5-.2 1-.5 1.4-.9 1.1-.8 1.3-1.7 1.4-2.2 0 .1-.1.2-.1.3-.3.6-.9.9-1.5 1.2.3-.4.6-.8.9-1.3.2-.3.3-.6.4-.8z"/><radialGradient id="h" cx="13.936" cy="-963.364" r="18.119" gradientTransform="translate(0 964)" gradientUnits="userSpaceOnUse"><stop offset=".28" stop-color="#ffea00"/><stop offset=".4" stop-color="#fd0"/><stop offset=".63" stop-color="#ffba00"/><stop offset=".86" stop-color="#ff9100"/><stop offset=".93" stop-color="#ff6711"/><stop offset=".99" stop-color="#ff4a1d"/></radialGradient><path fill="url(#h)" d="M16.9 16.3c.4-.5.8-1 1.1-1.6.8-1.6 1.9-4.2 1-6.9-.7-2.2-1.7-3.3-3-4.5C14 1.4 13.4.6 13.4.1c0 0-2.4 2.6-1.3 5.4s3.1 2.6 4.5 5.5c1.6 3.4-1.3 7-3.8 8.1.1 0 5.4-1.2 5.7-4.2 0-.1-.1.7-1.6 1.4z"/><linearGradient id="i" x1="-9169.9" x2="-9163.66" y1="-7895.827" y2="-7897.418" gradientTransform="matrix(1.22 .12 -.12 1.22 10243.111 10740.723)" gradientUnits="userSpaceOnUse"><stop offset="0" stop-color="#c42482" stop-opacity=".5"/><stop offset=".47" stop-color="#ff272d" stop-opacity=".5"/><stop offset=".49" stop-color="#ff2c2c" stop-opacity=".51"/><stop offset=".68" stop-color="#ff7a1a" stop-opacity=".72"/><stop offset=".83" stop-color="#ffb20d" stop-opacity=".87"/><stop offset=".94" stop-color="#ffd605" stop-opacity=".96"/><stop offset="1" stop-color="#ffe302"/></linearGradient><path fill="url(#i)" d="M10 6.5c0-.2-.1-.3-1.6-.4-.5-.1-.8-.7-.8-.9-.3.6-.4 1.2-.3 1.9 0 .5.3 1 .5 1.3v-.1c.3-.3 1.5-.8 1.6-.8.1-.1.6-.5.6-1z"/><linearGradient id="j" x1="20.946" x2="19.837" y1="-2306.095" y2="-2308.938" gradientTransform="matrix(.99 .1 -.1 .99 -248.087 2286.318)" gradientUnits="userSpaceOnUse"><stop offset="0" stop-color="#891551" stop-opacity=".6"/><stop offset="1" stop-color="#c42482" stop-opacity="0"/></linearGradient><path fill="url(#j)" d="M3.5 3.2c0-.1 0 .1 0 0-.2-.2-.2-.7-.2-1 0 0-.3.1-.5.6 0 .1-.1.1-.1.2v-.1c0 .1-.1.1-.2.3 0 .1-.1.1-.1.2v-.1c-.4.8-.5 2.2-.4 2.1C3 4.3 4.2 4 4.2 4c-.1 0-.4-.3-.7-.8z"/><linearGradient id="k" x1="-298.62" x2="-296.708" y1="-693.497" y2="-691.325" gradientTransform="matrix(.99 .1 -.1 .99 231.043 725.909)" gradientUnits="userSpaceOnUse"><stop offset=".01" stop-color="#891551" stop-opacity=".5"/><stop offset=".48" stop-color="#ff272d" stop-opacity=".5"/><stop offset="1" stop-color="#ff272d" stop-opacity="0"/></linearGradient><path fill="url(#k)" d="M7.4 14.6c-1.4-.6-3-1.5-3-3.4.1-2.6 2.4-2 2.4-2-.1 0-.3.2-.4.4-.1.2-.2.7.2 1.2.8.8-1.5 1.9 2 4.1.2 0-.8-.1-1.2-.3z"/><linearGradient id="l" x1="-294.944" x2="-294.942" y1="-689.75" y2="-691.27" gradientTransform="matrix(.99 .1 -.1 .99 231.043 725.909)" gradientUnits="userSpaceOnUse"><stop offset="0" stop-color="#c42482"/><stop offset=".08" stop-color="#c42482" stop-opacity=".81"/><stop offset=".21" stop-color="#c42482" stop-opacity=".57"/><stop offset=".33" stop-color="#c42482" stop-opacity=".36"/><stop offset=".45" stop-color="#c42482" stop-opacity=".2"/><stop offset=".56" stop-color="#c42482" stop-opacity=".09"/><stop offset=".67" stop-color="#c42482" stop-opacity=".02"/><stop offset=".77" stop-color="#c42482" stop-opacity="0"/></linearGradient><path fill="url(#l)" d="M6.9 13.4c1 .3 2.2.3 2.9-.1.5-.3 1.1-.7 1.4-.6-.3-.1-.6-.2-.9-.2h-.5c-.2 0-.4.1-.6.1l.2-.1h-.5c-2.1.2-3.9-1.1-3.9-1.1 0 .6.8 1.6 1.9 2z"/><linearGradient id="m" x1="12.924" x2="19.136" y1="-963.266" y2="-949.374" gradientTransform="translate(0 964)" gradientUnits="userSpaceOnUse"><stop offset="0" stop-color="#fff14f"/><stop offset=".27" stop-color="#ffee4c"/><stop offset=".45" stop-color="#ffe643"/><stop offset=".61" stop-color="#ffd834"/><stop offset=".76" stop-color="#ffc41e"/><stop offset=".89" stop-color="#ffab02"/><stop offset=".9" stop-color="#ffa900"/><stop offset=".95" stop-color="#ffa000"/><stop offset="1" stop-color="#ff9100"/></linearGradient><path fill="url(#m)" d="M16.9 16.3c2.1-2.1 3.2-4.6 2.7-7.4 0 0 .2 1.5-.5 2.9.3-1.5.4-3.3-.5-5.1-1.2-2.5-3.1-3.8-3.8-4.4-1.1-.8-1.6-1.7-1.6-1.8-.3.7-1.3 3-.1 5 1.2 1.9 3 2.4 4.2 4.2 2.3 3.1-.4 6.6-.4 6.6z"/><linearGradient id="n" x1="14.15" x2="11.208" y1="-955.276" y2="-947.375" gradientTransform="translate(0 964)" gradientUnits="userSpaceOnUse"><stop offset="0" stop-color="#ff8e00"/><stop offset=".04" stop-color="#ff8e00" stop-opacity=".86"/><stop offset=".08" stop-color="#ff8e00" stop-opacity=".73"/><stop offset=".13" stop-color="#ff8e00" stop-opacity=".63"/><stop offset=".18" stop-color="#ff8e00" stop-opacity=".56"/><stop offset=".23" stop-color="#ff8e00" stop-opacity=".51"/><stop offset=".28" stop-color="#ff8e00" stop-opacity=".5"/><stop offset=".39" stop-color="#ff8e00" stop-opacity=".48"/><stop offset=".52" stop-color="#ff8e00" stop-opacity=".42"/><stop offset=".68" stop-color="#ff8e00" stop-opacity=".31"/><stop offset=".84" stop-color="#ff8e00" stop-opacity=".17"/><stop offset="1" stop-color="#ff8e00" stop-opacity="0"/></linearGradient><path fill="url(#n)" d="M16.5 10.9C15.8 9.4 14.9 8.7 14 8c.1.1.1.2.2.3.8.8 1.9 2.8 1.1 5.3-1.5 4.7-7.7 2.5-8.4 1.9.3 2.7 4.8 4 7.8 2.3 1.7-1.7 3.1-4.4 1.8-6.9z"/></svg>