<svg xmlns="http://www.w3.org/2000/svg" id="Layer_1" viewBox="0 0 20 20"><path d="M18.9.5c-1.6-1.4-5.1.3-7.1 1.4-.6-.1-1.2-.1-1.8-.1-2.5 0-4.5.7-6 2.1-1.7 1.5-2.7 3.7-2.7 6v.1c2.4-3.8 6.2-5.7 7.1-6.2.4-.1.4.1.3.2C7 5 3.9 7.8 2 12c-1.3 2.6-2.3 6.3-.2 7.6 1.6 1 4.5-.2 6.9-1.7.5.1 1.1.1 1.7.1 4.3 0 7.3-2.4 8.4-5.8h-5.9c-.2 1.2-1.1 1.9-2.4 1.9-1.6 0-2.8-.9-2.8-3h11.2V10c0-3.9-2.3-6.9-6.1-7.9 1.5-1 4.4-2.4 5.8-1.2 1 .8.5 2.6.2 3.3 0 .2.2.2.2 0 .5-1.2.7-3-.1-3.7zM8.1 17.8c-1.8 1.1-4.3 1.9-5.6.9-.9-.7-.5-2.6.3-4.4.5.7 1.1 1.4 1.8 1.9 1 .9 2.2 1.4 3.5 1.6zm-.4-9.3c0-1.8 1.3-2.6 2.7-2.6 1.4 0 2.6.8 2.6 2.6H7.7zm1-4.6z" fill-rule="evenodd" clip-rule="evenodd" fill="#668fca" id="Layer_1-2"/></svg>