<svg xmlns="http://www.w3.org/2000/svg" id="Layer_1" viewBox="0 0 20 20"><style>.st0{fill:#3b73b8}.st0,.st1,.st2{fill-rule:evenodd;clip-rule:evenodd}.st1{fill:#ecb731}.st2{fill:#43ad9c}</style><g id="Layer_1-2"><path d="M10.5 11.5l-2.9-.9-1.6.6 2.9.9 1.6-.6z" class="st0"/><path d="M7.5 16.6l3.3 1.1 2.9-1.1-3.3-1-2.9 1z" class="st1"/><path d="M15.3 14.1l-4.9 1.6 3.3 1 4.7-1.7-3.1-.9zm-4.6-1.5c-.1 0-.2.1-.3.1-.4.2-3.3 1.1-3.3 1.1s-.5.3-1.1.5l2.9.9 4.8-1.7-3-.9z" class="st2"/><path d="M19.4 12.7c-1.7-1-4.3-1-5.2-1-.7 0-2.7.6-3.5.9l3 .9 1.1-.4c.6-.2 1.3-.3 1.9-.1 1 .3-.7.8-1.4 1l3 .9.2-.1c.1.1 2.6-1.1.9-2.1z" class="st0"/><path d="M5.6 14.5c-.8.3-1.5.5-2.1.3-1-.4.1-.8.7-1l-2.8-.9c-.9.5-3.1 2 1.2 2.9 3.5.7 4.7 0 5.5-.3l.8-.3-2.9-.9-.4.2z" class="st1"/><path d="M4.6 13.6L9 12l-3-.8-4.4 1.6s-.1.1-.3.2l2.8.9.5-.3z" class="st2"/><path fill="#cc2229" fill-rule="evenodd" d="M7.5 2.3v14.4l3.3 1.1V5.5c0-.5 1.2-.8 1.2.3V11s1.6.8 2.7 0 2-4-.1-6c0 0-.9-1.1-4.4-2l-2.7-.7z" clip-rule="evenodd"/></g></svg>