<svg xmlns="http://www.w3.org/2000/svg" id="Layer_1" viewBox="0 0 32.2 10"><style>.st0{fill:#6c3c97}</style><path d="M5.1 3.3c0-.9-.7-1.7-1.6-1.7h-.9v3.3h.8c.9 0 1.7-.7 1.7-1.6m3.7 6.5h-3L3.4 6.6h-.8v3.3H0V0h3.8C6 0 7.7 1.5 7.7 3.3 7.7 4.4 7 5.4 6 6l2.8 3.8" class="st0"/><path d="M11.7 3.9c-.7 0-1.3.9-1.3 2.1s.6 2.1 1.3 2.1c.7 0 1.3-.9 1.3-2.1 0-1.2-.6-2.1-1.3-2.1M15.8 6c0 2.2-1.8 4-4 4s-4-1.8-4-4 1.8-4 4-4 4 1.8 4 4m6.1-3.9l-3 3v-3h-2.6v7.7h2.6V6.7l3.2 3.1h3.3l-4-4 3.3-3.3v4.6c0 1.5.9 2.9 3.2 2.9 1.1 0 2.1-.6 2.6-1.2l1.2 1h.6V2.1h-2.6v5c-.4.5-.8.9-1.5.9-.6 0-.9-.4-.9-1.6V2.1h-5.4z" class="st0"/></svg>