<svg xmlns="http://www.w3.org/2000/svg" id="Layer_1" viewBox="0 0 20 20"><style>.st2{fill:#f3f3f3}.st3{fill:#fff}</style><g id="Layer_1-2"><linearGradient id="SVGID_1_" x1="-566.063" x2="-566.063" y1="-1324.409" y2="-1324.418" gradientTransform="translate(1370946.625 3207580.25) scale(2421.8799)" gradientUnits="userSpaceOnUse"><stop offset=".25" stop-color="#dbdbda"/><stop offset="1" stop-color="#fff"/></linearGradient><circle cx="10" cy="10" r="10" fill="url(#SVGID_1_)"/><radialGradient id="SVGID_2_" cx="-566.088" cy="-1324.471" r=".006" gradientTransform="translate(1268176.875 2967129.75) scale(2240.23)" gradientUnits="userSpaceOnUse"><stop offset="0" stop-color="#2abce1"/><stop offset=".11" stop-color="#2abbe1"/><stop offset="1" stop-color="#3375f8"/></radialGradient><circle cx="10" cy="10" r="9.2" fill="url(#SVGID_2_)"/><path d="M10 3s-.1 0-.1-.1V1.2c0-.1.1-.1.1-.1.1 0 .1 0 .1.1v1.6c0 .2 0 .2-.1.2z" class="st2"/><path d="M10 3c-.1 0-.1 0-.1-.1V1.2c0-.1.1-.1.1-.1.1 0 .1.1.1.1v1.6c0 .2 0 .2-.1.2zm0-1.8c-.1 0-.1 0-.1.1v1.6l.1.1c.1 0 .1 0 .1-.1V1.2H10z" class="st3"/><path d="M10.8 2.1c-.1 0-.1-.1-.1-.1l.1-.7c0-.1.1-.1.1-.1.1 0 .1.1.1.1V2c-.1.1-.1.1-.2.1z" class="st2"/><path d="M10.8 2.1c-.1 0-.1-.1-.1-.1l.1-.7c0-.1.1-.1.1-.1s.1 0 .1.1V2c-.1.1-.1.1-.2.1zm.1-.9c-.1 0-.1 0-.1.1l-.1.7c0 .1 0 .1.1.1s.1 0 .1-.1l.1-.7c0-.1-.1-.1-.1-.1z" class="st3"/><path d="M11.4 3.1c-.1 0-.1-.1-.1-.1l.3-1.6c0-.1.1-.1.1-.1.1 0 .1.1.1.1L11.5 3c0 .1-.1.2-.1.1z" class="st2"/><path d="M11.4 3.2c-.1 0-.1-.1-.1-.1l.3-1.6c0-.1.1-.1.1-.1.1 0 .1.1.1.1l-.3 1.6-.1.1zm.4-1.9c-.1 0-.1 0-.1.1L11.3 3c0 .1 0 .1.1.1s.1 0 .1-.1l.3-1.6v-.1z" class="st3"/><path d="M12.3 2.4c-.1 0-.1-.1-.1-.1l.2-.7c0-.1.1-.1.1-.1.1 0 .1.1.1.1l-.2.7c0 .1 0 .2-.1.1z" class="st2"/><path d="M12.3 2.4c-.1 0-.1-.1-.1-.2l.2-.7c0-.1.1-.1.2-.1s.1.1.1.1l-.2.7c0 .2-.1.3-.2.2zm.3-.9c-.1 0-.1 0-.1.1l-.2.7c0 .1 0 .1.1.1s.1 0 .1-.1l.2-.7-.1-.1z" class="st3"/><path d="M12.7 3.5c-.1 0-.1-.1-.1-.2l.6-1.5c0-.1.1-.1.1-.1.1 0 .1.1.1.1l-.6 1.5c0 .2 0 .3-.1.2z" class="st2"/><path d="M12.7 3.5c-.1 0-.1-.1-.1-.2l.6-1.5c0-.1.1-.1.2-.1s.1.1.1.2l-.6 1.5c-.1.1-.1.2-.2.1zm.7-1.7h-.1l-.6 1.5s0 .1.1.1.1 0 .1-.1l.6-1.3c0-.1 0-.1-.1-.2z" class="st3"/><path d="M13.8 3c-.1 0-.1-.1-.1-.1l.3-.7c0-.1.1-.1.1-.1h.1c.1 0 .1.1.1.1l-.4.8s-.1.1-.1 0z" class="st2"/><path d="M13.8 3c-.1 0-.1-.1-.1-.2l.3-.6c0-.1.1-.1.2-.1s.1.1.1.2l-.4.7c0 .1-.1.1-.1 0zm.4-.8h-.1l-.3.7V3h.1l.3-.6v-.2z" class="st3"/><path d="M13.9 4.2c-.1 0-.1-.1 0-.1l.9-1.4c0-.1.1-.1.2 0 .1 0 .1.1 0 .2l-.9 1.4c-.1-.1-.1-.1-.2-.1z" class="st2"/><path d="M13.9 4.2c-.1 0-.1-.1 0-.2l.9-1.4c0-.1.1-.1.2 0 .1 0 .1.1 0 .2l-.9 1.3c0 .1-.1.1-.2.1zm1-1.5h-.1L13.9 4v.1h.1l1-1.3s0-.1-.1-.1z" class="st3"/><path d="M15.1 3.9s-.1-.1 0-.2l.5-.6h.2s.1.1 0 .2l-.4.6c-.2.1-.3.1-.3 0z" class="st2"/><path d="M15 3.9c-.1 0-.1-.1 0-.2l.5-.6c0-.1.1-.1.2 0 .1 0 .1.1 0 .2l-.5.6c0 .1-.1.1-.2 0 .1 0 .1 0 0 0zm.6-.7h-.1l-.5.6v.1h.1l.5-.6c.1 0 .1-.1 0-.1z" class="st3"/><path d="M15 5.1V5l1.2-1.1h.2v.2l-1.1 1.2c-.2-.2-.3-.2-.3-.2z" class="st2"/><path d="M15 5.1v-.2l1.2-1.2c0-.1.1-.1.2 0 .1 0 .1.1 0 .2L15.2 5c-.1.1-.2.1-.2.1zm1.3-1.3h-.1L15 4.9V5h.1l1.2-1.1v-.1z" class="st3"/><path d="M16.1 5v-.2l.6-.5h.2c.1 0 0 .1 0 .2l-.6.5c0 .1-.1.1-.2 0z" class="st2"/><path d="M16.1 5v-.2l.6-.5h.2v.2l-.6.5c0 .1-.1.1-.2 0zm.8-.6h-.1l-.6.5V5h.1l.6-.5v-.1z" class="st3"/><path d="M15.8 6.1V6l1.4-.9h.2v.1l-1.4 1c-.1 0-.1 0-.2-.1z" class="st2"/><path d="M15.8 6.1v-.2l1.4-.9h.2v.2l-1.4 1c-.1 0-.1 0-.2-.1zm1.6-1s-.1-.1-.1 0l-1.4.9s-.1.1 0 .2h.1l1.4-.9v-.2z" class="st3"/><path d="M17 6.3v-.2l.6-.4h.2v.2l-.6.4c-.1.1-.2.1-.2 0z" class="st2"/><path d="M17 6.3v-.2l.6-.4h.2v.2l-.6.4c-.1.1-.2.1-.2 0zm.8-.5s-.1-.1-.1 0l-.7.4s-.1.1 0 .1c0 0 .1.1.1 0l.7-.3v-.2z" class="st3"/><path d="M16.5 7.3v-.1l1.5-.6c.1 0 .1 0 .1.1s0 .1-.1.1l-1.5.6c.1 0 0 0 0-.1z" class="st2"/><path d="M16.5 7.4c0-.1 0-.1.1-.2l1.4-.6c.1 0 .1 0 .2.1 0 .1 0 .1-.1.2l-1.5.6c0-.1-.1-.1-.1-.1zm1.7-.8c0-.1-.1-.1-.1-.1l-1.5.6c-.1 0-.1.1-.1.1 0 .1.1.1.1.1l1.5-.6c.1.1.1 0 .1-.1z" class="st3"/><path d="M17.6 7.7c0-.1 0-.1.1-.1l.7-.2c.1 0 .1 0 .1.1s0 .1-.1.1l-.7.2s-.1 0-.1-.1z" class="st2"/><path d="M17.6 7.7c0-.1 0-.1.1-.1l.7-.2c.1 0 .1 0 .2.1 0 .1 0 .1-.1.2l-.7.2c-.1-.1-.2-.1-.2-.2zm.9-.3c0-.1-.1-.1-.1-.1l-.7.2c-.1 0-.1.1-.1.1 0 .1.1.1.1.1l.7-.2c.1.1.1 0 .1-.1z" class="st3"/><path d="M16.9 8.7c0-.1 0-.1.1-.1l1.6-.3c.1 0 .1 0 .1.1s0 .1-.1.1l-1.6.3c-.1 0-.1-.1-.1-.1z" class="st2"/><path d="M16.9 8.7c0-.1 0-.1.1-.1l1.6-.3c.1 0 .1 0 .1.1s0 .1-.1.1l-1.6.3c-.1 0-.1-.1-.1-.1zm1.8-.4c0-.1-.1-.1-.1-.1l-1.6.3c-.1 0-.1.1-.1.1 0 .1.1.1.1.1l1.6-.3c.1 0 .1 0 .1-.1z" class="st3"/><path d="M17.9 9.3c0-.1 0-.1.1-.1l.7-.1c.1 0 .1 0 .1.1s0 .1-.1.1l-.7.1c-.1 0-.1-.1-.1-.1z" class="st2"/><path d="M17.9 9.3c0-.1 0-.1.1-.1l.7-.2c.1 0 .1 0 .1.1s0 .1-.1.1l-.7.2c-.1 0-.1-.1-.1-.1zm.9-.1c0-.1-.1-.1-.1-.1l-.7.1c-.1 0-.1.1-.1.1 0 .1.1.1.1.1l.7-.1c.1 0 .1-.1.1-.1z" class="st3"/><path d="M17 10c0-.1 0-.1.1-.1h1.6c.1 0 .1.1.1.1 0 .1 0 .1-.1.1h-1.6c-.1 0-.1 0-.1-.1z" class="st2"/><path d="M17 10c0-.1 0-.1.1-.1h1.6c.1 0 .1.1.1.1 0 .1 0 .1-.1.1h-1.6c-.1 0-.1 0-.1-.1zm1.8 0c0-.1 0-.1-.1-.1h-1.6l-.1.1c0 .1 0 .1.1.1h1.6c.1 0 .1 0 .1-.1z" class="st3"/><path d="M17.9 10.8c0-.1.1-.1.1-.1l.7.1c.1 0 .1.1.1.1 0 .1-.1.1-.1.1l-.7-.1c-.1 0-.1 0-.1-.1z" class="st2"/><path d="M17.9 10.8c0-.1.1-.1.1-.1l.7.1c.1 0 .1.1.1.1 0 .1-.1.1-.1.1l-.7-.1c-.1 0-.1 0-.1-.1zm.9.1c0-.1 0-.1-.1-.1l-.7-.1c-.1 0-.1 0-.1.1s0 .1.1.1l.7.1c.1 0 .1-.1.1-.1z" class="st3"/><path d="M16.9 11.4c0-.1.1-.1.1-.1l1.6.3c.1 0 .1.1.1.1 0 .1-.1.1-.1.1l-1.6-.3c-.1 0-.1-.1-.1-.1z" class="st2"/><path d="M16.9 11.4c0-.1.1-.1.1-.1l1.6.3c.1 0 .1.1.1.1 0 .1-.1.1-.1.1l-1.6-.3c-.1 0-.2 0-.1-.1zm1.8.4c0-.1 0-.1-.1-.1l-1.6-.4c-.1 0-.1 0-.1.1s0 .1.1.1l1.6.3h.1z" class="st3"/><path d="M17.6 12.3c0-.1.1-.1.1-.1l.7.2c.1 0 .1.1.1.2s-.1.1-.1.1l-.7-.2c-.1-.1-.2-.1-.1-.2z" class="st2"/><path d="M17.6 12.3c0-.1.1-.1.2-.1l.7.2c.1 0 .1.1.1.1 0 .1-.1.1-.1.1l-.7-.2c-.2.1-.3 0-.2-.1zm.9.3c0-.1 0-.1-.1-.1l-.7-.2c-.1 0-.1 0-.1.1s0 .1.1.1l.7.2.1-.1z" class="st3"/><path d="M16.5 12.7c0-.1.1-.1.1-.1l1.5.6c.1 0 .1.1.1.1 0 .1-.1.1-.1.1l-1.5-.6c-.1 0-.2 0-.1-.1z" class="st2"/><path d="M16.5 12.7c0-.1.1-.1.2-.1l1.5.6c.1 0 .1.1.1.2s-.1.1-.2.1l-1.5-.6c-.1-.1-.2-.1-.1-.2zm1.7.7c0-.1 0-.1-.1-.1l-1.5-.6c-.1 0-.1 0-.1.1s0 .1.1.1l1.5.6.1-.1z" class="st3"/><path d="M17 13.8c0-.1.1-.1.1-.1l.6.3c.1 0 .1.1.1.1 0 .1-.1.1-.1.1l-.7-.3s-.1-.1 0-.1z" class="st2"/><path d="M17 13.8c0-.1.1-.1.2-.1l.6.3c.1 0 .1.1.1.2s-.1.1-.2.1l-.7-.4s-.1-.1 0-.1zm.8.4v-.1l-.7-.3H17v.1l.6.3h.2z" class="st3"/><path d="M15.8 13.9c0-.1.1-.1.1 0l1.4.9c.1 0 .1.1 0 .2 0 .1-.1.1-.1 0l-1.4-.9v-.2z" class="st2"/><path d="M15.8 13.9c0-.1.1-.1.2 0l1.4.9c.1 0 .1.1 0 .2 0 .1-.1.1-.2 0l-1.4-.9v-.2zm1.6 1v-.1l-1.4-.9h-.1v.1l1.4.9c0 .1 0 .1.1 0z" class="st3"/><path d="M16.1 15s.1-.1.2 0l.6.4v.2s-.1.1-.2 0l-.6-.4V15z" class="st2"/><path d="M16.1 15c0-.1.1-.1.2 0l.6.4c.1 0 .1.1 0 .2 0 .1-.1.1-.2 0l-.6-.5V15zm.8.6v-.1l-.6-.5h-.1v.1l.6.4c0 .2 0 .1.1.1z" class="st3"/><path d="M14.9 15h.1l1.1 1.1v.1h-.2l-1.2-1.1c.2 0 .2-.1.2-.1z" class="st2"/><path d="M14.9 14.9h.2l1.2 1.1v.2h-.2l-1.2-1.1v-.2c0 .1 0 .1 0 0zm1.3 1.3v-.1L15.1 15H15v.1l1.2 1.1c-.1.1 0 .1 0 0 0 .1 0 .1 0 0z" class="st3"/><path d="M15 16.1h.2l.5.5v.2h-.2l-.5-.5v-.2z" class="st2"/><path d="M15 16.1h.2l.5.5v.2h-.2l-.5-.5v-.2zm.6.7v-.1l-.5-.5H15v.1l.5.5c0 .1.1.1.1 0z" class="st3"/><path d="M13.9 15.8h.1l.9 1.4v.2h-.1l-.9-1.4c-.1-.1-.1-.1 0-.2z" class="st2"/><path d="M13.9 15.8h.2l.9 1.3v.2h-.2l-.9-1.3c-.1-.1-.1-.2 0-.2zm1 1.6s.1-.1 0-.1l-.9-1.4s-.1-.1-.1 0c0 0-.1.1 0 .1l.9 1.3c0 .1.1.1.1.1z" class="st3"/><path d="M13.7 17h.2l.4.6v.2h-.2l-.4-.6V17z" class="st2"/><path d="M13.7 17h.2l.4.6v.2h-.2l-.4-.6c-.1-.1 0-.2 0-.2zm.5.8s.1-.1 0-.1l-.3-.7s-.1-.1-.1 0c0 0-.1.1 0 .1l.4.6c-.1.1-.1.1 0 .1z" class="st3"/><path d="M12.7 16.5c.1 0 .1 0 .1.1l.6 1.5c0 .1 0 .1-.1.1s-.1 0-.1-.1l-.6-1.5s0-.1.1-.1z" class="st2"/><path d="M12.7 16.5c.1 0 .1 0 .2.1l.6 1.5c0 .1 0 .1-.1.2-.1 0-.1 0-.2-.1l-.6-1.5c0-.2 0-.2.1-.2zm.7 1.7c.1 0 .1-.1.1-.1l-.6-1.5c0-.1-.1-.1-.1-.1-.1 0-.1.1-.1.1l.6 1.5c0 .1 0 .1.1.1z" class="st3"/><path d="M12.3 17.6c.1 0 .1 0 .1.1l.2.7c0 .1 0 .1-.1.1s-.1 0-.1-.1l-.2-.7s0-.1.1-.1z" class="st2"/><path d="M12.3 17.6c.1 0 .1 0 .2.1l.2.7c0 .1 0 .1-.1.2-.1 0-.1 0-.2-.1l-.2-.7c0-.1 0-.2.1-.2zm.3.9c.1 0 .1-.1.1-.1l-.2-.7c0-.1-.1-.1-.1-.1-.1 0-.1.1-.1.1l.2.7c0 .1 0 .1.1.1z" class="st3"/><path d="M11.4 16.9c.1 0 .1 0 .1.1l.3 1.6c0 .1 0 .1-.1.1s-.1 0-.1-.1l-.3-1.6c0-.1 0-.1.1-.1z" class="st2"/><path d="M11.4 16.8c.1 0 .1 0 .1.1l.3 1.6c0 .1 0 .1-.1.1s-.1 0-.1-.1l-.3-1.5c0-.1 0-.1.1-.2 0 .1 0 .1 0 0zm.4 1.9c.1 0 .1-.1.1-.1l-.3-1.6c0-.1-.1-.1-.1-.1-.1 0-.1.1-.1.1l.3 1.6c-.1 0 0 .1.1.1z" class="st3"/><path d="M10.8 17.9c.1 0 .1 0 .1.1l.1.7c0 .1 0 .1-.1.1s-.1 0-.1-.1l-.1-.7c0-.1 0-.1.1-.1z" class="st2"/><path d="M10.8 17.9c.1 0 .1 0 .1.1l.1.7c0 .1 0 .1-.1.1s-.1 0-.1-.1l-.1-.7c0-.1 0-.1.1-.1zm.1.9c.1 0 .1-.1.1-.1l-.1-.7c0-.1-.1-.1-.1-.1-.1 0-.1.1-.1.1l.1.7c0 .1 0 .1.1.1z" class="st3"/><path d="M10 17c.1 0 .1 0 .1.1v1.6c0 .1-.1.1-.1.1-.1 0-.1 0-.1-.1v-1.6c0-.1 0-.1.1-.1z" class="st2"/><path d="M10 17c.1 0 .1.1.1.1v1.6c0 .1-.1.1-.1.1-.1 0-.1-.1-.1-.1v-1.6c0-.1 0-.1.1-.1zm0 1.8s.1 0 0 0l.1-1.7c0-.1 0-.1-.1-.1s-.1 0-.1.1v1.6c0 .1 0 .1.1.1z" class="st3"/><path d="M9.2 17.9c.1 0 .1.1.1.1l-.1.7c0 .1-.1.1-.1.1-.1 0-.1-.1-.1-.1l.1-.7c0-.1 0-.1.1-.1z" class="st2"/><path d="M9.2 17.9c.1 0 .1.1.1.1l-.1.7c0 .1-.1.1-.1.1-.1 0-.1-.1-.1-.1V18c.1-.1.1-.1.2-.1zm-.1.9c.1 0 .1 0 .1-.1l.1-.7c0-.1 0-.1-.1-.1s-.1 0-.1.1l-.1.7c0 .1.1.1.1.1z" class="st3"/><path d="M8.6 16.9c.1 0 .1.1.1.1l-.3 1.6c0 .1-.1.1-.1.1-.1 0-.1-.1-.1-.1l.3-1.6c0-.1.1-.1.1-.1z" class="st2"/><path d="M8.6 16.8c.1 0 .1.1.1.1l-.3 1.6c0 .1-.1.1-.2.1s-.1-.1-.1-.1l.3-1.6c.1 0 .1-.1.2-.1zm-.4 1.9c.1 0 .1 0 .1-.1l.4-1.6c0-.1 0-.1-.1-.1 0 0-.1 0-.1.1l-.3 1.6v.1z" class="st3"/><path d="M7.7 17.6c.1 0 .1.1.1.1l-.2.7c0 .1-.1.1-.1.1-.1 0-.1-.1-.1-.1l.2-.7c0-.1 0-.2.1-.1z" class="st2"/><path d="M7.7 17.6c.1 0 .1.1.1.1l-.2.7c0 .1-.1.1-.1.1-.1 0-.1-.1-.1-.1l.2-.7c-.1-.1 0-.2.1-.1zm-.3.9c.1 0 .1 0 .1-.1l.2-.7c0-.1 0-.1-.1-.1s-.1 0-.1.1l-.2.7.1.1z" class="st3"/><path d="M7.3 16.5c.1 0 .1.1.1.1l-.6 1.5c0 .1-.1.1-.1.1-.1 0-.1-.1-.1-.1l.6-1.5c0-.1 0-.2.1-.1z" class="st2"/><path d="M7.3 16.5c.1 0 .1.1.1.2l-.6 1.5c0 .1-.1.1-.2.1s-.1-.1-.1-.1l.6-1.5c.1-.2.1-.3.2-.2zm-.7 1.7c.1 0 .1 0 .1-.1l.6-1.5c0-.1 0-.1-.1-.1s-.1 0-.1.1L6.5 18c0 .1 0 .1.1.2z" class="st3"/><path d="M6.2 17c.1 0 .1.1.1.1l-.3.7c0 .1-.1.1-.2 0-.1 0-.1-.1-.1-.1l.4-.7s.1-.1.1 0z" class="st2"/><path d="M6.2 17c.1 0 .1.1.1.2l-.3.6c0 .1-.1.1-.2.1s-.1-.1-.1-.2l.4-.7s.1-.1.1 0zm-.4.8h.1l.3-.7V17h-.1l-.3.6v.2z" class="st3"/><path d="M6.1 15.8c.1 0 .1.1 0 .2l-.9 1.3c0 .1-.1.1-.2 0-.1 0-.1-.1 0-.1l.9-1.4h.2z" class="st2"/><path d="M6.1 15.8c.1 0 .1.1 0 .2l-.9 1.4c0 .1-.1.1-.2 0-.1 0-.1-.1 0-.2l.9-1.4h.2zm-1 1.5h.1l.9-1.3v-.1H6l-1 1.3s0 .1.1.1z" class="st3"/><path d="M4.9 16.1s.1.1 0 .2l-.5.6s-.1.1-.2 0c0 0-.1-.1 0-.2l.5-.6h.2z" class="st2"/><path d="M5 16.1c.1 0 .1.1 0 .2l-.5.6s-.1.1-.2 0c-.1 0-.1-.1 0-.2l.5-.6c0-.1.1-.1.2 0-.1 0 0 0 0 0zm-.6.7h.1l.5-.6v-.1h-.1l-.5.6c-.1 0-.1.1 0 .1z" class="st3"/><path d="M5 14.9v.1l-1.2 1.1h-.2v-.2l1.1-1.2c.2.2.3.2.3.2z" class="st2"/><path d="M5 14.9v.2l-1.2 1.2h-.2v-.2L4.8 15c.1-.1.2-.1.2-.1zm-1.3 1.3h.1L5 15.1V15h-.1l-1.2 1.1v.1z" class="st3"/><path d="M3.9 15v.2l-.6.5h-.2v-.1l.6-.6c0-.1.1 0 .2 0z" class="st2"/><path d="M3.9 15v.2l-.6.5s-.1.1-.2 0v-.2l.6-.5c0-.1.1-.1.2 0-.1 0-.1 0 0 0zm-.8.6s.1.1.1 0l.6-.5V15h-.1l-.6.5v.1z" class="st3"/><path d="M4.2 13.9v.1l-1.4.9h-.2v-.1l1.4-1c.1 0 .1 0 .2.1z" class="st2"/><path d="M4.2 13.9v.2l-1.4.9h-.2v-.2l1.4-1c.1 0 .1 0 .2.1zm-1.6 1s.1.1.1 0l1.4-.9s.1-.1 0-.1c0 0-.1-.1-.1 0l-1.4.9v.1z" class="st3"/><path d="M3 13.7v.2l-.6.4h-.2v-.2l.6-.4c.1-.1.2-.1.2 0z" class="st2"/><path d="M3 13.7v.2l-.6.4h-.2v-.2l.6-.4c.1-.1.2-.1.2 0zm-.8.5s.1.1.1 0l.7-.4s.1-.1 0-.1c0 0-.1-.1-.1 0l-.7.3v.2z" class="st3"/><path d="M3.5 12.7c0 .1 0 .1-.1.1l-1.4.6c-.1 0-.1 0-.1-.1v-.1l1.5-.6s.1 0 .1.1z" class="st2"/><path d="M3.5 12.6c0 .1 0 .1-.1.2l-1.4.6c-.1 0-.1 0-.2-.1 0-.1 0-.1.1-.2l1.5-.6c0 .1.1.1.1.1zm-1.7.8c0 .1.1.1.1.1l1.5-.6c.1 0 .1-.1.1-.1 0-.1-.1-.1-.1-.1l-1.5.6c-.1-.1-.1 0-.1.1z" class="st3"/><path d="M2.4 12.3c0 .1 0 .1-.1.1l-.7.2c-.1 0-.1 0-.1-.1s0-.1.1-.1l.7-.2s.1 0 .1.1z" class="st2"/><path d="M2.4 12.3c0 .1 0 .1-.1.2l-.7.2c-.1 0-.1 0-.2-.1 0-.1 0-.1.1-.2l.7-.2c.1 0 .2 0 .2.1zm-.9.3c0 .1.1.1.1.1l.7-.2c.1 0 .1-.1.1-.1 0-.1-.1-.1-.1-.1l-.7.2c-.1-.1-.1 0-.1.1z" class="st3"/><path d="M3.1 11.3c0 .1 0 .1-.1.1l-1.6.3c-.1 0-.1 0-.1-.1s0-.1.1-.1l1.6-.3c.1 0 .1.1.1.1z" class="st2"/><path d="M3.1 11.3c0 .1 0 .1-.1.1l-1.6.3c-.1 0-.1 0-.1-.1s0-.1.1-.1l1.6-.3c.1 0 .1.1.1.1zm-1.8.4c0 .1.1.1.1.1l1.6-.3c.1 0 .1-.1.1-.1l-.1-.1-1.6.3c-.1 0-.1 0-.1.1z" class="st3"/><path d="M2.1 10.7c0 .1 0 .1-.1.1l-.7.1c-.1 0-.1 0-.1-.1s0-.1.1-.1l.7-.1c.1 0 .1.1.1.1z" class="st2"/><path d="M2.1 10.7c0 .1 0 .1-.1.1l-.7.2c-.1 0-.1 0-.1-.1s0-.1.1-.1l.7-.2c.1 0 .1.1.1.1zm-.9.1c0 .1.1.1.1.1H2c.1 0 .1-.1.1-.1 0-.1-.1-.1-.1-.1l-.7.1c-.1-.1-.1 0-.1 0z" class="st3"/><path d="M3 10c0 .1 0 .1-.1.1H1.2c-.1 0-.1-.1-.1-.1 0-.1 0-.1.1-.1h1.6c.2 0 .2 0 .2.1z" class="st2"/><path d="M3 10s0 .1-.1.1H1.2c-.1 0-.1-.1-.1-.1 0-.1.1-.1.1-.1h1.6c.2 0 .2 0 .2.1zm-1.8 0c0 .1 0 .1.1.1h1.6L3 10c0-.1 0-.1-.1-.1H1.2s-.1 0 0 .1z" class="st3"/><path fill="#e2e2e2" d="M2.1 9.2c0 .1-.1.1-.1.1l-.7-.1c-.1 0-.1-.1-.1-.1s0-.1.1-.1l.7.1c.1 0 .1 0 .1.1z"/><path d="M2.1 9.2c0 .1-.1.1-.1.1l-.7-.1c-.1 0-.1-.1-.1-.1s0-.1.1-.1l.7.1c.1 0 .1 0 .1.1zm-.9-.1c0 .1 0 .1.1.1l.7.1c.1 0 .1 0 .1-.1s0-.1-.1-.1L1.3 9l-.1.1z" class="st3"/><path d="M3.1 8.6c0 .1-.1.1-.1.1l-1.6-.3c-.1 0-.1-.1-.1-.1 0-.1.1-.1.1-.1l1.6.3c.1 0 .1 0 .1.1z" class="st2"/><path d="M3.2 8.6c0 .1-.1.1-.1.1l-1.7-.3c-.1 0-.1-.1-.1-.1 0-.1.1-.1.1-.1l1.6.3c.1 0 .2.1.2.1zm-1.9-.4c0 .1 0 .1.1.1l1.6.4c.1 0 .1 0 .1-.1 0 0 0-.1-.1-.1l-1.5-.3h-.2z" class="st3"/><path d="M2.4 7.7c0 .1-.1.1-.1.1l-.7-.2c-.1 0-.1-.1-.1-.2s.1-.1.1-.1l.7.2c.1.1.2.1.1.2z" class="st2"/><path d="M2.4 7.7c0 .1-.1.1-.2.1l-.6-.2c-.1 0-.1-.1-.1-.1 0-.1.1-.1.1-.1l.7.2c.1-.1.2 0 .1.1zm-.9-.3c0 .1 0 .1.1.1l.7.2c.1 0 .1 0 .1-.1s0-.1-.1-.1l-.6-.2c-.1 0-.2.1-.2.1z" class="st3"/><path d="M3.5 7.3c0 .1-.1.1-.1.1l-1.5-.7c-.1 0-.1-.1-.1-.1 0-.1.1-.1.1-.1l1.5.6c.1.1.2.1.1.2z" class="st2"/><path d="M3.5 7.3c0 .1-.1.1-.2.1l-1.4-.6c-.1 0-.1-.1-.1-.2s.1-.1.2-.1l1.5.6c0 .1.1.1 0 .2zm-1.7-.7c0 .1 0 .1.1.1l1.5.6s.1 0 .1-.1 0-.1-.1-.1L2 6.5c-.1 0-.1 0-.2.1z" class="st3"/><path d="M3 6.2c0 .1-.1.1-.1.1L2.2 6c-.1 0-.1-.1 0-.2 0-.1.1-.1.2-.1l.6.4s.1.1 0 .1z" class="st2"/><path d="M3 6.2c0 .1-.1.1-.2.1L2.2 6c-.1 0-.1-.1 0-.2 0-.1.1-.1.2-.1l.6.4s.1.1 0 .1c0 .1 0 .1 0 0zm-.8-.4v.1l.6.3h.1v-.1l-.6-.3h-.1z" class="st3"/><path d="M4.2 6.1c0 .1-.1.1-.1 0l-1.4-.9c-.1 0-.1-.1 0-.2h.1l1.4 1v.1z" class="st2"/><path d="M4.2 6.1c0 .1-.1.1-.2 0l-1.3-.9c-.1 0-.1-.1 0-.2h.1l1.3.9c.1.1.1.1.1.2zm-1.6-1v.1l1.4.9h.1V6L2.8 5c-.1 0-.1 0-.2.1z" class="st3"/><path d="M3.9 5s-.1.1-.1 0l-.6-.4s-.1-.1 0-.2c0 0 .1-.1.2 0l.6.4c-.1.1-.1.1-.1.2z" class="st2"/><path d="M3.9 5h-.2l-.5-.4c-.1 0-.1-.1 0-.2 0-.1.1-.1.2 0l.6.4c-.1 0-.1.1-.1.2zm-.7-.6v.1l.6.5h.1v-.2l-.6-.4c-.1-.1-.1 0-.1 0z" class="st3"/><path d="M5.1 5H5L3.8 3.9v-.1H4L5.2 5c-.1-.1-.1 0-.1 0z" class="st2"/><path d="M5.1 5.1h-.2L3.7 3.9v-.2h.2l1.2 1.1v.3c0-.1 0-.1 0 0zM3.8 3.8v.1L4.9 5H5v-.2l-1.1-1c0-.1-.1-.1-.1 0z" class="st3"/><path d="M5 3.9h-.2l-.4-.6v-.2h.2l.4.6v.2z" class="st2"/><path d="M5 3.9h-.2l-.5-.6v-.2h.2l.5.6v.2zm-.6-.7v.1l.5.5s.1.1.2 0c0 0 .1-.1 0-.2l-.6-.4c0-.1-.1-.1-.1 0z" class="st3"/><path d="M6.1 4.2h-.2L5 2.8v-.2h.2L6.1 4c.1.1.1.2 0 .2z" class="st2"/><path d="M6.1 4.2h-.2L5 2.8v-.2h.2L6.1 4c.1.1.1.2 0 .2zm-1-1.6s-.1.1 0 .1L6 4.1s.1.1.1 0c0 0 .1-.1 0-.1l-.9-1.3c0-.1-.1-.1-.1-.1z" class="st3"/><path d="M6.3 3h-.2l-.3-.6v-.2H6l.4.6c-.1.1-.1.2-.1.2z" class="st2"/><path d="M6.3 3h-.2l-.3-.6v-.2H6l.4.6c0 .1-.1.2-.1.2zm-.5-.8s-.1.1 0 .1l.3.7s.1.1.1 0c0 0 .1-.1 0-.1l-.3-.7h-.1z" class="st3"/><path d="M7.3 3.5c-.1 0-.1 0-.1-.1L6.5 2c0-.1 0-.1.1-.1s.1 0 .1.1l.6 1.5c.1-.1.1 0 0 0z" class="st2"/><path d="M7.3 3.5c-.1 0-.1 0-.2-.1L6.5 2c0-.1 0-.1.1-.2.1 0 .1 0 .2.1l.6 1.5c0 .1 0 .1-.1.1zm-.7-1.7s-.1.1 0 .1l.6 1.5c0 .1.1.1.1.1.1 0 .1-.1.1-.1l-.6-1.5c-.1-.1-.1-.1-.2-.1z" class="st3"/><path d="M7.7 2.4c-.1 0-.1 0-.1-.1l-.3-.6c0-.1 0-.1.1-.1s.1 0 .1.1l.2.7c.1-.1.1 0 0 0z" class="st2"/><path d="M7.7 2.4c-.1 0-.1 0-.2-.1l-.2-.6c0-.1 0-.1.1-.2.1 0 .1 0 .1.1l.2.7c.1 0 .1.1 0 .1zm-.3-.9c-.1 0-.1.1-.1.1l.2.7c0 .1.1.1.1.1.1 0 .1-.1.1-.1l-.2-.7c0-.1 0-.1-.1-.1z" class="st3"/><path d="M8.6 3.1c-.1 0-.1 0-.1-.1l-.3-1.5c0-.1 0-.1.1-.1s.1 0 .1.1L8.7 3c0 .1 0 .1-.1.1z" class="st2"/><path d="M8.6 3.2c-.1 0-.1 0-.1-.1l-.4-1.6c0-.1 0-.1.1-.1s.1 0 .1.1L8.7 3c0 .1 0 .1-.1.2 0-.1 0-.1 0 0zm-.4-1.9c-.1 0-.1.1-.1.1L8.4 3c0 .1.1.1.1.1.1 0 .1-.1.1-.1l-.2-1.6s-.1-.1-.2-.1z" class="st3"/><path d="M9.2 2.1c-.1 0-.1 0-.1-.1L9 1.3c0-.1 0-.1.1-.1s.1 0 .1.1l.1.7c0 .1 0 .1-.1.1z" class="st2"/><path d="M9.2 2.1c-.1 0-.1 0-.1-.1L9 1.3c0-.1 0-.1.1-.1s.1 0 .1.1l.1.7c0 .1 0 .1-.1.1zm-.1-.9c-.1 0-.1.1-.1.1l.1.7c0 .1.1.1.1.1.1 0 .1-.1.1-.1l-.1-.7c0-.1-.1-.1-.1-.1z" class="st3"/><linearGradient id="SVGID_3_" x1="-566.091" x2="-566.091" y1="-1324.47" y2="-1324.467" gradientTransform="translate(1268183.5 2967129) scale(2240.23)" gradientUnits="userSpaceOnUse"><stop offset="0" stop-opacity="0"/><stop offset="1"/></linearGradient><circle cx="10.1" cy="10" r="9.2" fill="url(#SVGID_3_)" fill-opacity=".2"/><path fill-opacity=".05" d="M16.5 4.1L9 8.9l-4.7 7.7 6.8-5.5 5.4-7z"/><path fill="#cd151e" d="M16.3 3.7L8.9 8.9l2.2 2.2 5.2-7.4"/><path fill="#fa5153" d="M9 8.9l1.1 1.1 6.2-6.3L9 8.9z"/><path fill="#acacac" d="M9 8.9l2.2 2.2-7.4 5.2L9 8.9z"/><path fill="#eee" d="M3.8 16.3l6.3-6.3L9 8.9l-5.2 7.4z"/></g></svg>