<svg fill="none" xmlns="http://www.w3.org/2000/svg" viewBox="0 0 74 74">
  <path d="M37.5 74C57.658 74 74 57.658 74 37.5S57.658 1 37.5 1 1 17.342 1 37.5 17.342 74 37.5 74z" fill="#1DA2F8"/>
  <path d="M37.5 6.402a.445.445 0 01-.445-.445V3.92a.445.445 0 01.89 0v2.037c0 .246-.2.445-.445.445zM37.5 71.525a.445.445 0 01-.445-.445v-2.037a.445.445 0 01.89 0v2.037c0 .246-.2.445-.445.445zM32.022 6.882a.445.445 0 01-.438-.368l-.354-2.006a.445.445 0 11.877-.155l.354 2.006a.445.445 0 01-.439.523zM43.33 71.015a.445.445 0 01-.437-.368l-.354-2.006a.445.445 0 11.877-.154l.353 2.005a.445.445 0 01-.438.523zM26.712 8.305a.445.445 0 01-.418-.293l-.697-1.914a.446.446 0 01.836-.305l.697 1.914a.445.445 0 01-.418.598zM48.985 69.5a.445.445 0 01-.418-.293l-.697-1.914a.445.445 0 01.837-.305l.696 1.914a.446.446 0 01-.418.598zM21.729 10.628a.445.445 0 01-.386-.222l-1.018-1.764a.445.445 0 01.77-.446l1.02 1.764a.445.445 0 01-.386.668zM54.29 67.026a.445.445 0 01-.386-.223l-1.018-1.764a.445.445 0 01.771-.445l1.018 1.764a.445.445 0 01-.385.668zM17.225 13.782a.444.444 0 01-.341-.16l-1.31-1.56a.445.445 0 11.682-.572l1.31 1.56a.445.445 0 01-.341.732zM59.085 63.669a.444.444 0 01-.341-.16l-1.31-1.56a.445.445 0 11.683-.572l1.309 1.56a.445.445 0 01-.341.732zM13.337 17.67a.442.442 0 01-.286-.104l-1.56-1.31a.445.445 0 11.572-.682l1.56 1.31a.445.445 0 01-.286.786zM63.223 59.53a.443.443 0 01-.286-.104l-1.56-1.31a.445.445 0 01.572-.682l1.56 1.31a.445.445 0 01-.286.786zM10.183 22.174a.443.443 0 01-.223-.06l-1.764-1.018a.445.445 0 11.446-.771l1.764 1.018a.445.445 0 01-.223.83zM66.58 54.735a.443.443 0 01-.222-.06l-1.764-1.018a.445.445 0 11.446-.77l1.763 1.017a.445.445 0 01-.223.831zM7.86 27.157a.443.443 0 01-.153-.027l-1.914-.697a.445.445 0 01.304-.836l1.915.696a.445.445 0 01-.153.864zM69.055 49.43a.446.446 0 01-.153-.027l-1.914-.697a.445.445 0 01.305-.836l1.914.697a.445.445 0 01-.152.863zM6.437 32.468a.447.447 0 01-.078-.007l-2.006-.354a.445.445 0 01.155-.876l2.006.353a.445.445 0 01-.077.884zM70.57 43.776a.457.457 0 01-.078-.007l-2.006-.353a.445.445 0 11.155-.877l2.006.354a.445.445 0 01-.077.883zM5.957 37.945H3.92a.445.445 0 010-.89h2.037a.445.445 0 010 .89zM71.08 37.945h-2.037a.445.445 0 010-.89h2.037a.445.445 0 010 .89zM4.43 43.776a.445.445 0 01-.077-.883l2.006-.354a.445.445 0 11.155.877l-2.006.353a.45.45 0 01-.078.007zM68.563 32.468a.445.445 0 01-.077-.884l2.006-.353a.445.445 0 11.155.876l-2.006.354a.45.45 0 01-.078.007zM5.945 49.43a.445.445 0 01-.152-.864l1.914-.696a.445.445 0 01.304.837l-1.914.696a.44.44 0 01-.152.027zM67.14 27.157a.445.445 0 01-.152-.864l1.914-.696a.445.445 0 01.305.836l-1.914.697a.446.446 0 01-.152.027zM8.42 54.735a.445.445 0 01-.223-.83l1.763-1.02a.445.445 0 11.446.772l-1.764 1.018a.441.441 0 01-.223.06zM64.818 22.174a.445.445 0 01-.223-.83l1.763-1.02a.445.445 0 11.445.771l-1.763 1.019a.441.441 0 01-.222.06zM11.777 59.53a.444.444 0 01-.286-.786l1.56-1.31a.445.445 0 01.572.682l-1.56 1.31a.443.443 0 01-.286.104zM61.664 17.67a.444.444 0 01-.287-.786l1.56-1.31a.445.445 0 01.573.682l-1.56 1.31a.444.444 0 01-.286.104zM15.915 63.669a.445.445 0 01-.34-.731l1.309-1.56a.445.445 0 01.682.571l-1.31 1.56a.445.445 0 01-.34.16zM57.775 13.782a.445.445 0 01-.34-.731l1.309-1.56a.445.445 0 01.682.572l-1.31 1.56a.445.445 0 01-.34.159zM20.71 67.026a.445.445 0 01-.385-.668l1.018-1.764a.445.445 0 11.771.446l-1.018 1.763a.445.445 0 01-.386.223zM53.271 10.628a.445.445 0 01-.385-.668l1.018-1.763a.444.444 0 11.771.445l-1.018 1.764a.445.445 0 01-.386.222zM26.015 69.5a.445.445 0 01-.418-.598l.697-1.914a.445.445 0 11.836.305l-.697 1.914a.445.445 0 01-.418.293zM48.288 8.305a.444.444 0 01-.418-.598l.697-1.914a.445.445 0 01.836.305l-.697 1.914a.445.445 0 01-.418.293zM31.67 71.015a.447.447 0 01-.44-.523l.354-2.005a.445.445 0 11.877.154l-.354 2.006a.446.446 0 01-.438.368zM42.978 6.882a.445.445 0 01-.439-.522l.354-2.007a.445.445 0 01.877.155l-.354 2.006a.446.446 0 01-.438.368zM35.038 9.814a.445.445 0 01-.442-.406l-.466-5.321a.445.445 0 11.887-.078l.465 5.322a.445.445 0 01-.444.483zM40.426 71.397a.445.445 0 01-.443-.406l-.465-5.321a.445.445 0 11.886-.078l.466 5.321a.445.445 0 01-.444.484zM30.191 10.67a.445.445 0 01-.43-.33L28.38 5.18a.445.445 0 11.86-.23l1.382 5.159a.445.445 0 01-.43.56zM46.19 70.38a.445.445 0 01-.429-.33l-1.382-5.159a.445.445 0 11.86-.23l1.382 5.16a.445.445 0 01-.43.56zM25.566 12.353a.445.445 0 01-.403-.257l-2.258-4.842a.445.445 0 11.807-.376l2.257 4.841a.445.445 0 01-.403.634zM51.692 68.379a.445.445 0 01-.404-.257l-2.257-4.841a.445.445 0 01.806-.377l2.258 4.842a.445.445 0 01-.403.633zM21.304 14.814a.445.445 0 01-.365-.19l-3.064-4.376a.445.445 0 01.73-.51l3.063 4.375a.445.445 0 01-.364.7zM56.761 65.452a.445.445 0 01-.365-.19l-3.064-4.375a.445.445 0 01.73-.51l3.063 4.375a.445.445 0 01-.364.7zM17.532 17.978a.444.444 0 01-.314-.13L13.44 14.07a.445.445 0 01.63-.63l3.776 3.778a.445.445 0 01-.315.76zM61.245 61.69a.444.444 0 01-.315-.13l-3.777-3.778a.445.445 0 01.63-.63l3.776 3.778a.445.445 0 01-.314.76zM14.368 21.748a.443.443 0 01-.255-.08l-4.375-3.064a.445.445 0 01.51-.73l4.376 3.064a.445.445 0 01-.256.81zM65.007 57.206a.443.443 0 01-.255-.08l-4.376-3.064a.445.445 0 01.51-.73l4.376 3.064a.445.445 0 01-.255.81zM11.907 26.011a.44.44 0 01-.188-.042l-4.84-2.257a.445.445 0 11.375-.807l4.842 2.258a.445.445 0 01-.189.848zM67.933 52.137a.443.443 0 01-.188-.042l-4.84-2.258a.445.445 0 11.376-.806l4.84 2.257a.445.445 0 01-.188.849zM10.224 30.637a.438.438 0 01-.115-.016l-5.16-1.382a.445.445 0 11.23-.86l5.16 1.383a.445.445 0 01-.115.875zM69.936 46.636a.442.442 0 01-.116-.015l-5.16-1.383a.445.445 0 11.231-.86l5.16 1.383a.445.445 0 01-.115.875zM9.37 35.484a.4.4 0 01-.04-.002l-5.321-.465a.445.445 0 11.078-.887l5.32.465a.445.445 0 01-.038.889zM70.953 40.872c-.013 0-.026 0-.04-.002l-5.321-.465a.445.445 0 11.078-.887l5.32.465a.445.445 0 01-.037.889zM4.048 40.872a.445.445 0 01-.039-.889l5.321-.465a.445.445 0 11.078.887l-5.321.465a.526.526 0 01-.04.002zM65.63 35.484a.445.445 0 01-.038-.889l5.322-.465a.445.445 0 01.077.887l-5.321.465a.526.526 0 01-.04.002zM5.064 46.636a.445.445 0 01-.115-.875l5.16-1.382a.445.445 0 11.23.86L5.18 46.62a.444.444 0 01-.115.015zM64.776 30.637a.445.445 0 01-.115-.875l5.16-1.383a.445.445 0 11.23.86l-5.16 1.383a.453.453 0 01-.115.015zM7.067 52.137a.445.445 0 01-.189-.849l4.841-2.257a.446.446 0 01.376.806l-4.84 2.258a.442.442 0 01-.188.042zM63.093 26.011a.445.445 0 01-.189-.848l4.841-2.258a.446.446 0 01.377.807L63.28 25.97a.443.443 0 01-.188.042zM9.994 57.206a.445.445 0 01-.256-.81l4.375-3.064a.445.445 0 11.51.73l-4.374 3.063a.444.444 0 01-.255.08zM60.632 21.748a.445.445 0 01-.256-.81l4.375-3.063a.445.445 0 11.511.73l-4.375 3.063a.445.445 0 01-.255.08zM13.756 61.69a.444.444 0 01-.315-.76l3.777-3.777a.445.445 0 01.63.63l-3.778 3.776a.444.444 0 01-.314.13zM57.468 17.978a.444.444 0 01-.315-.76l3.777-3.777a.445.445 0 01.63.63l-3.778 3.777a.446.446 0 01-.314.13zM18.239 65.452a.445.445 0 01-.364-.7l3.064-4.376a.445.445 0 01.729.51l-3.064 4.376a.445.445 0 01-.365.19zM53.696 14.814a.445.445 0 01-.364-.7l3.064-4.376a.445.445 0 01.73.51l-3.064 4.376a.445.445 0 01-.366.19zM23.308 68.379a.445.445 0 01-.403-.633l2.258-4.842a.445.445 0 01.806.376l-2.257 4.841a.444.444 0 01-.404.258zM49.434 12.353a.445.445 0 01-.403-.633l2.257-4.842a.445.445 0 01.807.376l-2.258 4.841a.445.445 0 01-.403.258zM28.81 70.38a.445.445 0 01-.43-.56l1.382-5.16a.445.445 0 11.86.231l-1.383 5.16a.445.445 0 01-.43.33zM44.809 10.67a.445.445 0 01-.43-.56l1.382-5.16a.445.445 0 11.86.23l-1.382 5.16a.445.445 0 01-.43.33zM34.574 71.397c-.013 0-.026 0-.04-.002a.445.445 0 01-.404-.482l.465-5.321a.444.444 0 11.887.078l-.465 5.32a.445.445 0 01-.443.407zM39.962 9.814c-.013 0-.027 0-.04-.002a.445.445 0 01-.404-.482l.465-5.32a.445.445 0 11.887.078l-.466 5.32a.445.445 0 01-.443.406z" fill="#F2F2F2"/>
  <path d="M41.91 41.91l19.668-28.488L33.09 33.09 13.422 61.578 41.91 41.91z" fill="#F2F2F2"/>
  <path d="M41.91 41.91l19.668-28.488-48.156 48.156L41.91 41.91z" fill="#CCC"/>
  <path d="M41.91 41.91l19.668-28.488L33.09 33.09l8.82 8.82z" fill="#FF525D"/>
  <path d="M41.91 41.91l19.668-28.488L37.5 37.5l4.41 4.41z" fill="#EF4152"/>
  <rect x="44.75" y="38" width="22.5" height="36" rx="4" fill="#fff"/>
  <path d="M62.907 40.25H49.093c-1.151 0-2.093.957-2.093 2.128V69.62c0 1.171.942 2.129 2.093 2.129h13.814c1.151 0 2.093-.956 2.093-2.128V42.378c0-1.171-.942-2.128-2.093-2.128zm-1.744 25.16H50.838V46.026h10.325V65.41z" fill="#0A0A0A"/>
  <rect x="52.625" y="42.5" width="6.75" height="1.125" rx=".563" fill="#fff"/>
  <rect x="53.75" y="67.25" width="4.5" height="3.375" rx="1.688" fill="#fff"/>
</svg>