<svg xmlns="http://www.w3.org/2000/svg" version="1.0" viewBox="0 0 500 125"><path d="M500.00001 0v124.99999H0V0h500.00001z"/><path d="M480.48097 68.8401s-.0967.2092-.43518.2092h-26.96561c-.43519 0-.64472.20919-.64472.20919s-.32237.11264-.32237.64366v28.7397c0 .43448-.20953.53103-.20953.53103s-.11283.22528-.43519.22528h-21.43709c-.30625 0-.5319-.22528-.5319-.22528s-.11283-.09655-.11283-.62758V69.78951c0-.30574-.25789-.53102-.25789-.53102s-.16118-.20919-.43519-.20919h-27.6748c-.5319 0-.6286-.11265-.6286-.11265s-.20954-.20919-.20954-.85285V47.052c0-.25747.20954-.53102.20954-.53102s.0967-.09655.32236-.09655h28.25505c.22566 0 .22566-.11265.22566-.11265s.19341-.11264.19341-.32183V20.80651c0-.30574.11283-.53103.11283-.53103s.22565-.11264.85426-.11264h21.01802c.41907 0 .5319.11264.5319.11264s.20953.22529.20953.64367v25.27999h27.46527c.69308 0 .90261.11264.90261.11264s.32237.11265.32237.74022v21.25708c0 .20919-.32237.53102-.32237.53102zm-83.66913 29.60865c-.0967.62758-.20953.83677-.20953.83677s-.11283.22528-.64473.22528h-43.47055c-1.25721 0-1.59569-.33792-1.59569-.33792s-.20954-.41839-.11283-1.36779l10.78302-74.81012c.11283-.90113.32236-1.22296.32236-1.22296h20.9052c.53189 0 .69307.09655.69307.09655s.11283.33792 0 .75631l-8.10741 58.46098c-.11282.62758.20954.69195.20954.69195s.20953.11264 1.07991.11264h21.48545c.46742 0 .6286.1931.6286.1931s.11283.11264.11283.64366l-2.07924 15.72155zm-55.39795 1.1586h-19.3095c-.41908.20919-.75756-.20919-.75756-.20919s-.0967-.11264-.20953-.75631l-2.56278-11.92392c-.20954-.57929-.41907-.90113-.41907-.90113s-.5319-.32183-1.17662-.32183H291.8668c-.48354 0-.8059.32183-.8059.32183s-.41907.37011-.64473 1.01378l-5.70581 12.1492c-.09671.30574-.30624.41838-.30624.41838s-.43519.11264-.64473.11264h-21.75945c-.5319.09655-.69308-.22528-.69308-.22528s-.09671-.20919.16118-.64367l38.34499-76.33882c.20954-.09655.41908-.43447.41908-.43447s.22565-.09655.85426-.09655h23.74198c.53189 0 .83814.32183.83814.32183s.11283.11264.22565.41838l15.94082 76.66066c0 .22528-.11283.33792-.11283.33792s0 .09655-.30624.09655zm-90.50321-.09655H230.97257s-.06447-.11264-.1773-.22528l-26.82054-47.48648c-.20954-.20919-.30625-.20919-.30625-.20919s-.22565 0-.22565.30574l-6.65678 46.64971c-.11283.53103-.22565.62758-.22565.62758s-.20954.11264-.5319.11264h-19.19668c-.30624 0-.53189-.20919-.53189-.20919s-.41907-.43448-.25789-.85286l10.49289-75.48596c.11283-.43448.33848-.53103.33848-.53103s.30624-.33792.62861-.33792h21.43709c.32236 0 .5319.22528.5319.22528s.20953.11264.32236.41838l24.16105 42.33715c.41907.83677.74143.74022.74143.74022s.32237 0 .5319-.9655l6.09265-42.11187c0-.30574.19342-.41838.19342-.41838s.11282-.22528.43519-.22528l20.14764.22528c.43519 0 .54801.11264.54801.11264s.09671.09655.09671.30574l-10.87972 76.12963c-.11283.43448-.30625.75631-.30625.75631s-.11283.11264-.64472.11264zm-84.42668-.22528l-18.76149.11264c-.43519 0-.74143-.22528-.74143-.22528s-.11283-.09655-.22566-.83677l-2.93349-12.1492c0-.25747-.19342-.37011-.19342-.37011H116.79185c-.5319 0-.85426.37011-.85426.37011s-.41907.32183-.74143 1.06205l-5.28674 11.29634c-.20954.43448-.32237.53103-.32237.53103s-.30624.20919-.58025.20919H87.15064c-.64473.11264-.75755-.20919-.75755-.20919s-.11283-.32184.11282-.74022l37.90981-76.03308c.16118-.43447.48354-.53102.48354-.53102h24.90249c.43519 0 .74143.32183.74143.32183s.11283.11264.22565.41838l16.24706 76.24227c0 .32184-.19341.41839-.19341.41839s-.11283.11264-.33848.11264zM309.62897 43.7693s-.11283 0-.22566.41839l-10.54124 23.79956c-.22566.74021-.11283.85285-.11283.85285s.30624.2092.5319.2092l15.61845-.11265h.20953s.11283-.09655 0-.41838l-5.27062-24.44323c-.09671-.30574-.20953-.30574-.20953-.30574zm-175.18779.30574s-.0967 0-.20953.22529l-10.55737 23.89611c-.20953.32183-.11282.53102-.11282.53102s.11282.11264.64472.11264l15.50563.09655c.11282 0 .16118-.09655.16118-.09655s.11283-.11264 0-.43447l-5.3351-24.1053c0-.22529-.09671-.22529-.09671-.22529zM80.38103 96.6304c-.11283.83676-.5319 1.48043-.5319 1.48043s-.4513.43447-1.12827.64366c-10.18664 4.10338-21.45321 2.71949-21.45321 2.71949-18.27794-1.96318-29.85074-13.16297-33.59014-27.5811-5.49628-21.61109 5.39956-36.94644 8.05905-40.24523 6.39889-7.67572 16.42436-13.14688 26.28865-14.43422 12.53989-1.75399 21.82392 1.17469 25.66003 2.46203 0 0 4.20683 1.31951 7.34986 3.4597 1.5957 1.06205 1.82135 1.48044 1.82135 1.48044s.09671.22528-.33848 1.86663L89.55224 43.9624c-.11283.64367-.49966.9655-.49966.9655s-.20954.11264-1.70852-.85286c-9.47746-6.71022-20.56672-5.90563-20.56672-5.90563-8.42977.53102-18.29406 4.95623-21.22755 16.12384-2.61114 9.91246.11282 18.21575 6.01205 23.15589 4.01341 3.52407 10.25112 5.27806 16.8112 4.97232 7.14032-.53102 12.84613-3.36315 12.42706-3.15396 0 0 .30625-.11264.64473-.20919 1.48286-.74022 1.80522-.64367 1.80522-.64367s.32237.32183.09671 1.28733L80.38103 96.6304" fill="#fff"/><path d="M609.63514-268.45244h2.382-2.382"/><path d="M612.01714-269.34544v.248-.248" fill="#de6a06"/></svg>