<svg xmlns="http://www.w3.org/2000/svg" data-name="Layer 1" viewBox="0 0 501.34426489 501.19672346"><rect width="100%" height="100%" fill="none"/><g class="currentLayer"><path d="M500.81967902.72705889v500h-500v-500z"/><path d="M480.88984344 245.97689494a.45.45 0 01-.43.21h-27a.9.9 0 00-.64.21s-.33.11-.33.64v28.74c0 .44-.21.53-.21.53a.47.47 0 01-.43.23h-21.44a.84.84 0 01-.53-.23s-.11-.09-.11-.62v-28.76a.78.78 0 00-.26-.53.59.59 0 00-.44-.21h-27.66c-.53 0-.63-.11-.63-.11a1.26 1.26 0 01-.21-.86v-21a1 1 0 01.21-.53.46.46 0 01.32-.1h28.31c.22 0 .22-.11.22-.11a.4.4 0 00.2-.32v-25.21a1.29 1.29 0 01.11-.53 2 2 0 01.85-.12h21c.42 0 .53.12.53.12a1 1 0 01.21.64v25.28h27.47a2.25 2.25 0 01.9.11s.32.11.32.74v21.26c-.01.21-.33.53-.33.53zm-83.67 29.61a2.69 2.69 0 01-.21.84s-.11.22-.64.22h-43.47c-1.26 0-1.6-.34-1.6-.34a2.67 2.67 0 01-.11-1.36l10.78-74.81a3.15 3.15 0 01.32-1.22h20.91a1.48 1.48 0 01.69.1 1.45 1.45 0 010 .75l-8.11 58.47c-.11.62.21.69.21.69a2.9 2.9 0 001.08.11h21.49a.83.83 0 01.63.19s.11.12.11.65l-2.08 15.72zm-55.4 1.16h-19.31a.65.65 0 01-.75-.21 1.92 1.92 0 01-.21-.76l-2.57-11.92a5.19 5.19 0 00-.41-.9 2.53 2.53 0 00-1.18-.33h-25.11a1.22 1.22 0 00-.81.33 2.56 2.56 0 00-.64 1l-5.71 12.18a.73.73 0 01-.31.42 3.73 3.73 0 01-.64.11h-21.76c-.53.1-.69-.22-.69-.22s-.1-.21.16-.65l38.34-76.36a1.3 1.3 0 00.42-.43 2.45 2.45 0 01.86-.1h23.74a1.23 1.23 0 01.84.32 1.36 1.36 0 01.22.42l15.94 76.66a.49.49 0 01-.11.34s0 .1-.31.1zm-90.5-.1h-19.91a1.08 1.08 0 00-.17-.22l-26.83-47.49c-.2-.21-.3-.21-.3-.21s-.23 0-.23.31l-6.65 46.65c-.12.53-.23.62-.23.62a1.15 1.15 0 01-.53.12h-19.2a.88.88 0 01-.53-.21s-.42-.44-.26-.86l10.49-75.48c.12-.44.34-.53.34-.53a1.06 1.06 0 01.63-.34h21.44a.79.79 0 01.53.22.83.83 0 01.32.42l24.18 42.34c.42.84.75.74.75.74s.32 0 .53-1l6.09-42.11a.71.71 0 01.63-.64l20.15.22c.43 0 .54.12.54.12a.41.41 0 01.1.3l-10.93 76.16a3.13 3.13 0 01-.3.76s-.12.11-.65.11zm-84.43-.22l-18.76.11a1.35 1.35 0 01-.74-.23s-.11-.09-.22-.83l-2.94-12.15a.43.43 0 00-.19-.37h-26.84a1.2 1.2 0 00-.85.37 2.78 2.78 0 00-.74 1.06l-5.29 11.3a2 2 0 01-.32.53 1.27 1.27 0 01-.58.21h-21.86c-.64.11-.76-.21-.76-.21a1 1 0 01.12-.74l37.91-76a.85.85 0 01.48-.53h24.9a1.11 1.11 0 01.74.32 1.23 1.23 0 01.23.42l16.23 76.2a.43.43 0 01-.2.42.47.47 0 01-.32.12zm143.15-55.52s-.11 0-.23.42l-10.54 23.81c-.22.74-.11.85-.11.85a1.26 1.26 0 00.53.21l15.62-.11h.21s.11-.1 0-.42l-5.27-24.44c-.1-.32-.21-.32-.21-.32zm-175.19.31s-.1 0-.21.22l-10.56 23.9a.57.57 0 00-.11.53s.11.11.65.11l15.5.1a.19.19 0 00.16-.1s.12-.11 0-.43l-5.33-24.11c0-.22-.1-.22-.1-.22zm-54.06 52.55a3.92 3.92 0 01-.53 1.48 3 3 0 01-1.13.64c-10.19 4.11-21.45 2.72-21.45 2.72-18.27-1.96-29.85-13.16-33.59-27.58a46.67 46.67 0 018.06-40.24 42.61 42.61 0 0126.26-14.44 54.8 54.8 0 0125.66 2.47 32.18 32.18 0 017.34 3.46 6.47 6.47 0 011.82 1.48 5.18 5.18 0 01-.34 1.86l-2.93 15.52a1.67 1.67 0 01-.5 1s-.21.11-1.71-.85c-9.47-6.72-20.56-5.91-20.56-5.91-8.43.53-18.3 5-21.23 16.12-2.61 9.92.11 18.22 6 23.16 4 3.52 10.25 5.28 16.81 5a39.12 39.12 0 0012.44-3.25s.31-.12.64-.21c1.49-.74 1.81-.65 1.81-.65s.32.33.1 1.29l-3 16.93" fill="#fff"/><path d="M609.64.9000061"/><path d="M612 .0000061" fill="#de6a06"/></g></svg>