<svg xmlns="http://www.w3.org/2000/svg" xmlns:xlink="http://www.w3.org/1999/xlink" viewBox="0 0 20 20"><defs><linearGradient id="b" x1="6.1" x2="10.12" y1="3.66" y2="3.66" gradientUnits="userSpaceOnUse"><stop offset="0" stop-color="#00a1e5"/><stop offset="1" stop-color="#66d9ff"/></linearGradient><linearGradient id="a" x1="9.2" x2="4.72" y1="7.25" y2="7.25" gradientUnits="userSpaceOnUse"><stop offset="0"/><stop offset="1" stop-color="#677784"/></linearGradient><linearGradient id="c" x1="12.6" x2="12.6" y1="9.68" y2="4.68" xlink:href="#a"/><linearGradient id="d" x1="13.01" x2="20" y1="6.98" y2="6.98" xlink:href="#b"/><linearGradient id="e" x2="5.69" y1="10.13" y2="10.13" xlink:href="#b"/><linearGradient id="f" x1="5.83" x2="5.83" y1="11.31" y2="15.33" xlink:href="#a"/><linearGradient id="g" x1="11.35" x2="17.49" y1="11.47" y2="11.47" xlink:href="#a"/><linearGradient id="h" x1="13.42" x2="17.69" y1="15.87" y2="15.87" xlink:href="#b"/><linearGradient id="i" x1="8.84" x2="12.61" y1="14.58" y2="16.76" xlink:href="#a"/><linearGradient id="j" x1="4.08" x2="9.83" y1="17.5" y2="17.5" xlink:href="#b"/></defs><path fill="url(#b)" d="M9.78.33h-.07c-1.26.79-3.09 1.87-3.53 3.18a1.53 1.53 0 000 1 6.14 6.14 0 00.67 1.39A7.66 7.66 0 007.69 7a15.45 15.45 0 002.43-1.83V2.9C10.12 1 10.1.62 10 .46a.24.24 0 00-.22-.13z"/><path fill="url(#a)" d="M5.85 4.13s-.11.17-.15.37c-.11.53-.59 2.42-.8 3.15A2.72 2.72 0 004.77 9a16.78 16.78 0 003.11 1.13c.87.27 1 .26 1.18 0 .27-.47.31-.39-1.36-2.67C6.38 5.65 6.2 5.35 6 4.54c0-.23-.1-.41-.15-.41z"/><path fill="url(#c)" d="M15 4.68h-.21c-.54.07-2.48.2-3.24.22a2.69 2.69 0 00-1.37.31A18.17 18.17 0 0010 8.53c0 .9.06 1 .41 1.1.53.11.46.18 2.12-2.12C13.88 5.7 14.11 5.44 14.82 5c.2-.12.36-.25.34-.29s-.08-.02-.16-.03z"/><path fill="url(#d)" d="M15.85 4.85a1.49 1.49 0 00-.9.29 6.42 6.42 0 00-1.16 1.08A8.37 8.37 0 0013 7.36a15.11 15.11 0 002.5 1.74l2.15-.69c1.81-.59 2.17-.73 2.28-.88a.26.26 0 00.07-.24v-.06c-1.12-1-2.71-2.37-4.1-2.38z"/><path fill="url(#e)" d="M.3 7.69H.2a.23.23 0 00-.2.17.22.22 0 000 .08c.35 1.43.8 3.51 1.92 4.33a1.53 1.53 0 00.9.3 6.59 6.59 0 001.58-.19 8.09 8.09 0 001.29-.47A14.72 14.72 0 004.7 9l-2.14-.7A12.27 12.27 0 00.3 7.69z"/><path fill="url(#f)" d="M8.67 11.31a13.38 13.38 0 00-2.53.74c-2.12.7-2.46.77-3.29.69h-.44c-.01 0 .12.16.3.26.47.27 2.12 1.3 2.75 1.73a2.75 2.75 0 001.29.56 19.11 19.11 0 002-2.62c.52-.74.56-.87.32-1.13s-.19-.22-.4-.23z"/><path fill="url(#g)" d="M15.43 9.16a22.32 22.32 0 00-3.14.92c-.87.3-1 .38-.93.73.06.54 0 .5 2.67 1.36 2.13.68 2.45.83 3.07 1.37.17.16.34.26.38.24s0-.21-.09-.4c-.23-.49-.95-2.29-1.21-3a2.87 2.87 0 00-.71-1.21z"/><path fill="url(#h)" d="M14.32 12.54a15.83 15.83 0 00-.89 2.9l1.33 1.83c1.12 1.54 1.36 1.84 1.54 1.9a.23.23 0 00.24 0 .12.12 0 000-.05c.56-1.37 1.42-3.32 1-4.64a1.47 1.47 0 00-.54-.78 6.08 6.08 0 00-1.39-.77 9.9 9.9 0 00-1.31-.39z"/><path fill="url(#i)" d="M10.72 12a.48.48 0 00-.21.06c-.49.22-.47.13-.46 3 0 2.23 0 2.58-.36 3.34-.09.21-.14.41-.1.44s.19-.07.34-.21c.4-.37 1.89-1.61 2.49-2.08s.92-.86.93-1.05a17.17 17.17 0 00-1.86-2.74c-.41-.55-.57-.73-.77-.72z"/><path fill="url(#j)" d="M8.24 15.32a10.27 10.27 0 00-1.5.11l-1.33 1.82c-1.12 1.55-1.33 1.86-1.33 2.05a.27.27 0 00.09.23h.07c1.47.11 3.59.32 4.71-.49a1.4 1.4 0 00.56-.77 6.25 6.25 0 00.31-1.55 7.63 7.63 0 000-1.37c-.5 0-1-.06-1.54-.06z"/></svg>