<svg width="124" height="124" fill="none" xmlns="http://www.w3.org/2000/svg"><path d="M2.436 123.638a2.436 2.436 0 10.002-4.872 2.436 2.436 0 00-.002 4.872zM64.665 61.842a2.432 2.432 0 100-4.863 2.432 2.432 0 000 4.863zM96.507 28.586a10.28 10.28 0 00-7.318-3.031 10.283 10.283 0 00-7.318 3.03c-4.035 4.036-4.035 10.602 0 14.637a10.317 10.317 0 007.318 3.026c2.65 0 5.3-1.009 7.318-3.026 4.035-4.035 4.035-10.601 0-14.636zm-3.438 11.197a5.493 5.493 0 01-7.76 0 5.492 5.492 0 010-7.759 5.45 5.45 0 013.88-1.607 5.45 5.45 0 013.88 1.607 5.493 5.493 0 010 7.76zM30.373 99.648a2.431 2.431 0 00-3.26 1.093l-2.897 5.816a8.025 8.025 0 01-6.61 4.413l-3.369.23a1.424 1.424 0 01-1.117-.419 1.425 1.425 0 01-.418-1.117l.23-3.368a8.027 8.027 0 014.412-6.61l5.816-2.897a2.431 2.431 0 10-2.167-4.353l-5.816 2.896a12.906 12.906 0 00-7.097 10.632l-.23 3.368a6.301 6.301 0 006.72 6.72l3.368-.231a12.903 12.903 0 0010.631-7.097l2.896-5.815a2.431 2.431 0 00-1.092-3.26z" fill="#000" fill-opacity=".12"/><path d="M122.322 1.981a5.63 5.63 0 00-4.309-1.608l-2.264.145C95.449 1.814 76.451 11.612 63.626 27.4l-5.329 6.561-13.946-.41h-.071c-11.06 0-21.459 4.307-29.28 12.127L.718 59.963a2.432 2.432 0 001.594 4.148l30.236 1.553-1.233 1.518a2.431 2.431 0 00-.248 2.695c.474.87.97 1.728 1.488 2.571l-7.17 8.512a2.433 2.433 0 00-.339 2.607 31.855 31.855 0 006.18 8.838 31.835 31.835 0 009.02 6.363 2.428 2.428 0 002.573-.31c1.544-1.253 3.325-2.74 5.048-4.176 1.227-1.025 2.483-2.073 3.657-3.04.7.422 1.41.831 2.13 1.223a2.428 2.428 0 002.653-.215l1.657-1.286 1.56 30.363a2.432 2.432 0 004.147 1.595l14.284-14.284c7.821-7.821 12.128-18.22 12.128-29.28V66.04l5.635-4.373A73.07 73.07 0 00123.935 7.45l.058-1.184a5.635 5.635 0 00-1.671-4.285zM8.022 59.535L18.44 49.118c6.894-6.894 16.058-10.694 25.806-10.704l10.192.3L36.344 60.99 8.021 59.535zM44.75 90.548c-1.27 1.059-2.57 2.145-3.778 3.138a26.843 26.843 0 01-6.295-4.705 26.863 26.863 0 01-4.538-6.118l5.25-6.232a56.375 56.375 0 005.201 6.036l.005.004.001.002.003.002a56.38 56.38 0 006.694 5.755c-.839.696-1.698 1.413-2.543 2.118zm40.47-11.19c0 9.762-3.801 18.939-10.704 25.841L64.1 115.616l-1.453-28.285L85.22 69.813v9.545zm33.859-72.146a68.216 68.216 0 01-26.342 50.613L54.602 87.417a51.486 51.486 0 01-8.808-6.502L58.65 68.06a2.432 2.432 0 00-3.44-3.44L42.368 77.466a51.477 51.477 0 01-6.234-8.502l31.268-38.496c11.972-14.74 29.707-23.886 48.657-25.096l2.264-.144a.764.764 0 01.815.802l-.058 1.183z" fill="#000" fill-opacity=".12"/></svg>