<svg width="124" height="124" fill="none" xmlns="http://www.w3.org/2000/svg"><g clip-path="url(#clip0)"><path d="M123.662 29.107L112.049 2.862A4.213 4.213 0 00109.7.621a4.214 4.214 0 00-3.245.077L87.353 9.152a4.275 4.275 0 00-2.192 5.596L44.992 32.522a4.276 4.276 0 00-2.177 5.634l.455 1.03-10.677 4.725a1.817 1.817 0 00-.927 2.397c.673.73.78 1.356 2.397.927l10.678-4.725 4.312 9.745-4.771 2.111a8.332 8.332 0 00-6.783.001 8.365 8.365 0 00-4.558 5.017L8.019 70.412a.121.121 0 01-.16-.061l-4.214-9.524a.122.122 0 01.061-.16l22.666-10.03a1.817 1.817 0 10-1.47-3.323l-4.141 1.832-6.125-13.841a3.76 3.76 0 00-4.954-1.915L3.35 36.192a3.76 3.76 0 00-1.914 4.954L7.56 54.987l-5.324 2.356A3.76 3.76 0 00.32 62.298l4.214 9.523c.777 1.621 2.734 2.825 4.955 1.915l23.145-10.242a8.37 8.37 0 00.589 1.934c1.384 3.129 4.46 4.992 7.68 4.992a8.34 8.34 0 003.381-.717c4.228-1.87 6.146-6.833 4.275-11.06a8.436 8.436 0 00-1.033-1.738l2.997-1.326.456 1.03c.64 1.344 2.034 2.53 3.908 2.545.289 0 .578-.03.862-.09l-28.739 56.45a5.57 5.57 0 00-.335 4.277 5.681 5.681 0 005.321 3.871 5.61 5.61 0 005.005-3.062l22.403-44.005v41.462a5.612 5.612 0 005.605 5.606 5.612 5.612 0 005.606-5.606V111.4a1.817 1.817 0 10-3.635 0v6.657a1.973 1.973 0 01-1.97 1.971 1.973 1.973 0 01-1.971-1.971V55.943L66.98 54.2v49.195a1.818 1.818 0 003.635 0V76.595l22.402 44.006a5.585 5.585 0 004.999 3.063c2.035.059 4.64-1.515 5.328-3.872a5.566 5.566 0 00-.336-4.277l-32.1-63.054 25.872-11.448a4.247 4.247 0 005.589 2.153l19.131-8.465c1.936-.836 3.116-3.292 2.161-5.594zM4.759 39.676a.12.12 0 01.062-.16l6.332-2.801a.122.122 0 01.16.061l6.124 13.841-6.553 2.9-6.125-13.841zM42.814 66.38a4.756 4.756 0 01-6.267-2.422 4.756 4.756 0 012.422-6.267c1.991-.973 5.233-.068 6.267 2.422a4.756 4.756 0 01-2.422 6.267zm11.842-10.906a.635.635 0 01-.353-.336l-8.165-18.452a.635.635 0 01.325-.84l40.166-17.774 8.68 19.618-40.166 17.773a.633.633 0 01-.487.011zm4.648 13.31l-25.54 50.168a1.974 1.974 0 01-2.651.862 1.957 1.957 0 01-.98-1.147 1.956 1.956 0 01.117-1.503l29.155-57.268v8.714c-.036.055-.07.113-.102.174zm40.585 49.883a1.96 1.96 0 01-.98 1.147 1.965 1.965 0 01-2.65-.863L70.722 68.793a1.843 1.843 0 00-.107-.18v-8.717l29.155 57.268a1.96 1.96 0 01.118 1.503zm20.461-87.626a.607.607 0 01-.32.336l-19.131 8.465a.607.607 0 01-.799-.31L88.5 13.317a.638.638 0 01.324-.84l19.102-8.453a.605.605 0 01.799.309l11.614 26.245a.61.61 0 01.011.464z" fill="#000" fill-opacity=".12"/></g><defs><clipPath id="clip0"><path fill="#fff" d="M0 0h124v124H0z"/></clipPath></defs></svg>