<svg version="1.1" id="_x2014_ÎÓÈ_x5F_1" xmlns="http://www.w3.org/2000/svg" x="0" y="0" viewBox="0 0 680 562" xml:space="preserve"><path d="M492.2 308.7c8.4 0 15.2-6.8 15.2-15.2 0-8.4-6.8-15.2-15.2-15.2-8.4 0-15.2 6.8-15.2 15.2 0 8.4 6.8 15.2 15.2 15.2zm-242.8 13.1c-4.9 0-8.8 3.9-8.8 8.8s3.9 8.8 8.8 8.8 8.8-3.9 8.8-8.8-4-8.8-8.8-8.8zm-9.8-86.8c4.8-13.2 7.5-27.5 7.5-42.4 0-68.1-55.4-123.6-123.5-123.6S0 124.5 0 192.6s55.4 123.6 123.5 123.6c49.5 0 92.3-29.3 112-71.4h.7c3 0 5.5-2.5 5.5-5.5 0-1.7-.8-3.3-2.1-4.3zm-3.4-1.2c-3 0-5.5 2.5-5.5 5.5 0 2.1 1.2 3.9 2.9 4.8-19.4 41.3-61.5 70-110.1 70C56.5 314.2 2 259.6 2 192.6S56.5 71 123.5 71 245 125.5 245 192.6c0 14.6-2.6 28.5-7.3 41.5-.4-.2-.9-.3-1.5-.3zM680 184.6C680 82.8 597.2 0 495.5 0 393.7 0 310.9 82.8 310.9 184.6c0 40 12.8 77.1 34.5 107.3-35.4 27.1-58.2 69.8-58.2 117.8 0 8.7.8 17.2 2.2 25.4-10.3 2.3-18 11.5-18 22.5 0 12.8 10.3 23.1 23.1 23.1 3.5 0 6.7-.8 9.7-2.1C329 525.7 378.5 558 435.3 558c.7 2.3 2.8 4 5.3 4 2.6 0 4.9-1.9 5.4-4.4 76.9-5.4 137.8-69.7 137.8-147.9 0-20.3-4.1-39.6-11.5-57.2C635.8 323.2 680 259 680 184.6zm-98.3 225.1c0 77.1-60 140.5-135.7 145.9-.4-2.6-2.7-4.6-5.4-4.6-2.9 0-5.2 2.2-5.5 5-56-.1-104.7-31.9-129.2-78.3 6.9-4 11.6-11.5 11.6-20 0-12.8-10.3-23.1-23.1-23.1-1.1 0-2.1.1-3.2.2-1.4-8.2-2.2-16.5-2.2-25.1 0-47.3 22.5-89.4 57.4-116.1 33.6 45.8 87.8 75.6 148.9 75.6 26.7 0 52-5.7 75-15.9 7.4 17.3 11.4 36.4 11.4 56.4zM348.2 292.3c24.4-18.2 54.6-29 87.3-29 60 0 111.6 36.3 134.2 88.1-22.7 10.1-47.8 15.8-74.2 15.8-60.4 0-114.1-29.5-147.3-74.9zm223.2 58.3c-22.9-52.5-75.2-89.2-136-89.2-33.1 0-63.7 10.9-88.5 29.4-21.4-29.9-34.1-66.6-34.1-106.1C312.9 83.9 394.8 2 495.5 2 596.1 2 678 83.9 678 184.6c0 73.6-43.7 137.1-106.6 166z" fill="#011627"/></svg>