<svg version="1.1" id="_x2014_ÎÓÈ_x5F_1" xmlns="http://www.w3.org/2000/svg" x="0" y="0" viewBox="0 0 440 444" xml:space="preserve"><path d="M411.1 192.8c-19.6-21.9-48.4-39-85.3-50.6l-.7-.2-1.6 4.9c-2.8-1.4-5.4-2.8-8-4-13-6.3-58.8-23.5-61.4-19.1-.5.7-.4 1.3-.3 1.7-8-2.2-14.2-3.3-16-.7l-.3.6c-2.2-1.5-3.3-2-4-1.6-.2.1-.6.4-.6 1.1-.4 6.8 14 17.2 23.6 24.1.8.6 1.5 1.1 2.1 1.6-3.1-1.3-6.1-2.6-8.7-3.8-10.5-4.6-14.9-6.4-16.3-5-.8.8-.2 2 0 2.4 2.6 5.7 28.8 20 29.9 20.6 4.9 2.7 7.9 7.1 8 11.7.1 4-2 7.6-5.9 10.1-2.2 1.3-6 2.3-9.3 3.2-4.8 1.3-7.8 2.1-8.6 3.6-.2.4-.2.9-.1 1.3.5 1.5 4.5 4.4 29.9.6 6.7-1 13.7.6 19.4 4.4l7.8 5.5-2.2 6.9-.1.5.4.3c35.6 32.7 53.9 71.8 54.1 88.7-3.1-1.7-6.2-3.4-9.2-5-27.8-15.2-54.1-29.6-106.8-42.8-2.5-.8-4.9-1.4-7.6-1.8h-.1l-2-15.4c.6-.5 1.1-1.2 1.3-2l.2-.4c.6-1.8 1.6-3.6 3.2-5.4 2.9-3.3 4.2-11 2.5-14.6l-9-20.6c-.9-2.2-3-3.5-6-3.5-1.5 0-3.1.3-4.5 1l-.6.3-.6-1.5c-.7-1.7-2.4-2.8-4.6-3.2l-10.3-37.2c5.5-4.7 8.7-9.7 7.8-12.7-.4-1.5-3.4-12.9-29.2-108.7C177.3 12 162.9 0 145.8 0c-19.9 0-36 16.2-36 36 0 5.3 1.1 10.3 3.2 14.8l32.5 83.3c-8.5 3.2-15.8 6.3-20.9 8.7-2.6 1.3-5.5 2.7-8.4 4.2l-1.2-3.6-.7.2c-37 11.6-65.7 28.7-85.4 50.6C10 215.6.3 240.4.3 268c0 37.4 12.9 67.5 36.4 84.7 28.5 20.9 72 23 126 6.1l6.8 85.2 1.5-.1-7-87.1-.9.3c-54 17-97.4 15.1-125.6-5.6C14.5 334.6 1.8 305 1.8 268c0-27.3 9.5-51.8 28.4-72.8 19.4-21.6 47.6-38.4 84-50l22.1 68.3c-36.6 33.6-55 74.3-54.2 90.8l.1 1.2 1-.6c3.4-1.8 6.8-3.7 10.1-5.5 29.4-16.1 57.2-31.4 113.2-44.8.2 0 .4-.1.6-.1l2.5-.6 23.1-.5c2.4.4 4.8 1 7.3 1.8 52.6 13.1 78.8 27.4 106.5 42.6 3.4 1.9 6.8 3.7 10.3 5.6l1 .6.1-1.2c.8-16.4-17.6-57-54.2-90.8l22.1-68.3c36.4 11.6 64.6 28.4 84 50 18.8 21 28.3 45.5 28.2 72.8 0 36.7-12.5 66.3-35.3 83.2-27.4 20.4-69.6 22.9-121.9 7.2l-.9-.3-7 87.2 1.5.1 6.8-85.4c52.4 15.6 94.7 12.9 122.3-7.7 23.1-17.2 35.9-47.2 35.9-84.4.4-27.5-9.2-52.3-28.3-73.6zm-195.2-2.4l.9 2.3c.1.2.2.3.4.4.2.1.4.1.6 0l1.3-.6c1.2-.5 2.6-.8 3.9-.8 2.3 0 3.9.9 4.6 2.6l9 20.6c1.4 3.1.2 10.1-2.3 13-1.7 2-2.8 3.9-3.4 5.9l-.2.4c-.4 1.2-1.4 2-2.5 2l-1.1-.1c-1.2-.5-1.9-2-1.6-3.5l.3-1.3.1-.5c.1-.2.1-.3 0-.5l-4.2-10.3-.5-1.1c-.1-.3-.4-.5-.8-.4l-1.3.2c-.3.1-.7.1-1.1.1-.6 0-1 0-1.5-.1l-.5-.1c-1.5-.4-3.2-.9-5-2.1-.2-.1-.4-.2-.7-.1-.2.1-.4.2-.5.4l-3 7.7-4.4-10.5h.3c.7 0 1.4-.1 2.2-.3 1.8-.6 3.6-1.9 4-3 .1-.3.1-.6.1-.8 0-.1 0-.2-.1-.3l-1.7-6.3c3.4-2 5.9-4.6 6.9-6.6.5-.9.6-1.8.4-2.4 0-.2-.1-.3-.2-.4l-1.5-5.4c1.7.1 2.7.9 3.1 1.9zM202 212.3l-2.6-6.1c.9-.2 1.9-.4 2.9-.7 1.4-.4 2.6-1 3.8-1.6l1 3.8.6 2.4c-.2.4-1.4 1.5-3.1 2.1-1 .2-2 .2-2.6.1zm11.2-18.3c0 .2.1.3.2.4 0 .2.1.6-.3 1.3-1.3 2.7-5.9 6.5-11.2 8.2-6.7 2.2-12.5.3-13.7-1l-12.6-31.6-3.9-9.8c4.1-.1 8.6-.8 13.2-2.3 6.1-2.1 11.8-5.3 16.2-8.8l12.1 43.6zm-32.2-5c-2.5-.7-4.8-1.5-6.3-2.4-3.5-2.2-5.6-5.3-5.9-8.9-.3-3.5 1.1-7 3.8-9.8L181 189zM113.4 47.6c-1.3-3.6-2-7.5-2-11.6 0-19 15.5-34.5 34.5-34.5 15.4 0 28.4 10.1 32.9 24.1 0 .1.3 1.1.8 2.9.5 2.4.8 5 .8 7.5 0 19-15.5 34.5-34.5 34.5-14 0-26-8.3-31.4-20.3l-1.1-2.6zm4.1 10.6c6.6 8.4 16.8 13.8 28.3 13.8 19.5 0 35.4-15.6 36-35 7.5 28 26.2 97.3 26.9 100v.1c1.2 3.8-9 15.5-24.3 20.7-14.3 4.7-26.4 1-29-2.4l-37.9-97.2zm-.8 90.3c3-1.6 5.9-3 8.6-4.3 5-2.4 12.3-5.5 20.8-8.6l8.1 20.7.1.2c2 2.8 8.1 5.1 15.9 5.2l1.9 4.9c-3.4 3.2-5.1 7.4-4.7 11.5.4 4 2.7 7.6 6.6 10 1.8 1.1 4.4 1.9 7.8 2.8l2 5c-5.2 0-12.4-.6-20.7-1.8-7-1.1-14.5.6-20.5 4.6l-7.8 5.5-18.1-55.7zm91.7 104.2l-1.3.3c-.2 0-.4.1-.6.1h-.2c-56.3 13.5-84.2 28.8-113.7 45-3 1.6-6 3.3-9 4.9.2-17 18.5-56.1 54.1-88.7l.4-.3-2.8-8.5 8.2-5.8c5.7-3.8 12.8-5.4 19.4-4.4 8.6 1.3 16.2 1.9 21.5 1.8l2.5 6.4.1.2c1.1 1.4 4.5 2.7 8.6 2.7.6 0 1.2 0 1.9-.1l2.4 6.2c0 .1.1.1.1.2.2.3.5.5.9.7l5 11.9c.1.4.3.6.4.9l-1.5 3.8c-.9 2.5.3 5.2 2.7 6.1l1 .4-.1 16.2zm1.5-.3l.1-16.9-2-.8c-1.7-.6-2.4-2.4-1.8-4.1l1.6-4.2.1-.2 2.9-7.5.3-.6c1.7 1 3.3 1.5 4.6 1.8l.5.1c.7.2 1.2.2 1.8.2.5 0 1 0 1.4-.2l.6-.1 4.3 10.2.1.2-.4 1.6c-.6 2.2.6 4.5 2.6 5.2h.2l1.3.2c.4 0 .9-.1 1.3-.2l1.9 14.7-21.4.6zm95.1-48.6l-7.4-5.3c-6-4-13.5-5.7-20.5-4.6-17.7 2.6-27.6 2.2-28.3.2.5-1 4.5-2 7.7-2.8 3.6-1 7.4-1.9 9.7-3.4 4.4-2.8 6.8-6.8 6.6-11.4-.1-5.2-3.4-10-8.8-13-7.5-4.1-27.2-15.5-29.2-19.9-.2-.5-.2-.7-.3-.8 1.1-.6 8 2.4 14.6 5.3 3.5 1.5 7.5 3.3 11.8 5 .5.2 1 .1 1.3-.3.3-.5.3-1.1-.2-1.5-1.2-.9-2.9-2.1-4.8-3.5-8-5.8-22.8-16.4-22.9-22.6.9.3 2.9 1.7 4.6 3 6.5 4.5 17.5 12.2 28.7 11.9.6 0 1.1-.4 1.2-1 .1-.6-.2-1.1-.7-1.3-1.8-.7-4.7-1.7-8.1-2.8-7.6-2.5-20.2-6.7-21-9.1v-.2c1.7-2.5 12.5.7 22 3.5 4.4 1.3 9 2.6 13.1 3.6l.4-1.4c-4.4-1.7-8.7-2.8-12.1-3.7-3.4-.9-6.9-1.7-7.2-2.6 0-.1 0-.2.1-.4 2.6-2 41 10.6 59.5 19.6 2.6 1.3 5.3 2.6 8.2 4.1l-18 55.4zm-57-71.5c3.3 1.3 7.3 2.6 11.5 4 2.5.8 4.8 1.6 6.5 2.2-6.4-.3-12.7-3.1-18-6.2zM145.8 62.9c14.9 0 27-12.1 27-27s-12.1-27-27-27-27 12.1-27 27 12.1 27 27 27zm0-52.5c14.1 0 25.5 11.4 25.5 25.5s-11.4 25.5-25.5 25.5-25.5-11.4-25.5-25.5 11.4-25.5 25.5-25.5zm1.1 169.5c.1 0 8.8-2.3 15.4 2.2.1.1.3.1.4.1.2 0 .5-.1.6-.3.2-.3.1-.8-.2-1-7.2-4.8-16.3-2.5-16.7-2.4-.4.1-.6.5-.5.9.2.4.6.6 1 .5zm147.2-4.9c-8.3-2.3-16.2 2.7-16.5 2.9-.3.2-.4.7-.2 1 .1.2.4.3.6.3.1 0 .3 0 .4-.1.1 0 7.6-4.9 15.3-2.8.4.1.8-.1.9-.5.1-.3-.1-.7-.5-.8z" fill="#011627"/></svg>