<svg fill="none" xmlns="http://www.w3.org/2000/svg" viewBox="0 0 534 506">
    <path d="M258.1 295L138.6 441.4h126.1c0 35.5-28.8 64.3-64.3 64.3H40.8v-63.8l132.4-149.1H94.5c-33.4 0-60.5-27.1-60.5-60.5h224.1V295zM362.7 232.5H534c0 33.4-27.1 60.5-60.5 60.5H302.1c0-33.4 27.1-60.5 60.6-60.5z" fill="#fff"/>
    <path fill-rule="evenodd" clip-rule="evenodd" d="M362.7 333.5H534c0 33.4-27.1 60.5-60.5 60.5H302.1c0-33.4 27.1-60.5 60.6-60.5zM362.7 434H534c0 33.4-27.1 60.5-60.5 60.5H302.1c0-33.4 27.1-60.5 60.6-60.5z" fill="#fff"/>
    <path d="M44.3 147.517S65.736 63.741 151.498 28.644c0 0 33.781-48.73 139.034-18.845 0 0 31.188 20.793 36.387 32.479 0 0 46.125 7.803 46.125 61.074 0 0 9.093 13.647 6.501 47.428l7.146 72.116-34.44 26.636-1.947-12.989s-33.137-50.034-35.084-65.615c0 0-9.094-7.146-9.094 10.396l9.094 27.28-252.735-19.581L44.3 147.517z" fill="#E14B4B"/>
    <path d="M328.696 109.169c-7.409-32.82-18.239-64.865-32.439-95.435 6.633 4.75 17.621 13.015 24.635 20.424 4.764 24.714 7.33 49.823 7.804 75.011zM233.024 37.277c2.882-.158 5.383 1.013 7.567 2.882-2.487-1.014-5.066-1.948-7.567-2.882zM315.128 170.836c-.934-.632-8.882-6.001-8.961 10.291-3.514-4.672-6.475-9.975-9.831-14.739-9.356-13.41-22.924-23.306-36.176-32.979-25.346-18.476-51.455-37.268-81.552-46.151 14.818-.777 29.242 4.527 43.033 9.896 27.293 10.607 55.429 22.845 73.445 45.849-.079-15.437-8.343-29.478-16.371-42.651-10.528-17.305-21.056-34.624-31.583-51.929-1.79-2.96-3.975-6.159-6.554-8.264 11.699 4.448 23.003 9.896 31.807 18.634 11.699 11.62 17.542 27.675 22.688 43.349a1088.01 1088.01 0 0120.055 68.694z" fill="#D03F3E"/>
    <path d="M.28 234.608c0-10.146-.092 1.5-.185-2.75-.368 11.409-.131-51.455 9.58-58.088 6.95-6.987 13.305-28.175 18.872-20.055 4.75-3.961 8.067 1.882 10.738-5.106 2.672-1.395 4.698-7.699 6.857-.987 2.158-1.553 4.46 4.54 7.685 2.671 3.224 4.817 7.356 1.869 13.212 5.856 0 4.567 2.172-5.487 5.449-.631 3.29 4.185 7.685.868 12.16-1.829 4.474-4.685 9.027-7.33 12.593-2.909 2.685 3.145 6.422 3.935 10.541-.671 4.106-3.816 8.594-2.461 12.726 1.829 4.145 5.764 7.948 6.199 10.725 2.474 2.777 4.08 4.501-1.329 4.501 1.237 0 .185 1.052 3.922 2.948-.118 1.895-1.04 4.605 2.119 7.935-.184 3.329 4.803 7.264-.856 11.567.013 4.317-4.369 9.002-7.896 13.845.46 4.842-3.632 9.83-2.447 14.752 1.172 4.921-1.566 9.764-.408 14.318 2.145 4.54-1.04 8.79 6.422 12.501 3.355 3.725-3.632 6.909-6.83 9.344 4.843 0-2.421 1.145 3.343 3.198.764 2.053 1.289 5-1.251 8.606 2.145 3.606-.277 7.857 1.645 12.528 3.303 4.659-5.001 9.725 3.316 14.95 4.263 5.224 2.672 10.607 9.107 15.884 4.988 5.29-5.145 10.475 2.514 15.331 5.501 4.856 9.304 9.37 2.105 13.291 5.803 3.922 1.935 7.265.645 9.752 5.883 0 .118 2.119 6.922 2.487 7.251.684 1.053 1.435 9.054 2.158 8.475 2.935 7.909 4.646 43.388-.25 57.363 0-.039-.579-2.447-1.763 2.053-1.185.816-2.974-1.816-5.369 4.356-2.395 3.356-5.422 1.422-9.067 3.909-3.646 6.145-7.936 3.448-12.858.724-4.921-2.751-10.501-4.896-16.739-5.199 0-6.224-.368-1.921-1.079-.368-.711 3.264-1.777-3.119-3.172-1.027-1.394-7.948-3.118.882-5.145-1.579-2.04-2.171-4.382.092-7.027-2-2.646 6.514-5.58-2.619-8.791-2.316-3.211-4.685-6.712-8.396-10.462-2.527-3.751.645-7.765-7.396-12.015-2.605-4.251-4.277-8.751 4.316-13.476-2.58-4.724 1.908-9.672-3.803-14.818-2.434-5.158-1.974-10.514 1.092-16.068-2.172-5.553.395-11.291 1.461-17.2-1.803-5.909-.697-12.002-4.803-18.239-1.302-6.238-2.58-12.634-.711-19.161-.698-6.527-2.303-13.199-.829-19.99.013-11.857-2.987-22.266-.737-31.386.171-9.12 1.027-16.95-.816-23.675-.895-6.724-1.618-12.343-2.303-17.041-1.605-4.698 5.593-8.475-2.421-11.502-2-3.027-.869-5.317-5.935-7.04-2.093-1.725-.171-2.896-4.948-3.685-1.882-.79-.921-1.198.724-1.409-1.355-.21 2.698-.223 6.435-.223-.526 0 8.264-2.316 1.895-4.988-2.251-2.698.553-5.75 4.896-7.211-8.475z" fill="#DAE5EF"/>
    <path d="M.095 231.858c.093 4.25.185-7.396.185 2.75 1.46 13.371 4.513 9.028 7.211 8.475 2.672 4.146 4.988 10.515 4.988 2.251 0 6.961.013 3.224.224.526.21 2.079.618.434 1.408 1.355.79-3.066 1.96 1.711 3.684 1.882 1.724-3.842 4.014 1.224 7.04 2.093 3.028-.421 6.805 7.593 11.503 2 4.698-.698 10.317-.013 17.041 1.605 6.725.079 14.555 1.922 23.675.895 9.12-.908 19.53-3.158 31.386-.171 6.791-.842 13.463-2.316 19.99-.013 6.527-.013 12.923-1.882 19.161.698 6.237-3.501 12.33.605 18.239 1.302 5.909 3.264 11.647 2.198 17.2 1.803 5.554 3.264 10.91.198 16.068 2.172 5.146-1.369 10.094 4.342 14.818 2.434 4.725 6.896 9.225-1.697 13.476 2.58 4.25-4.791 8.264 3.25 12.015 2.605 3.75-5.869 7.251-2.158 10.462 2.527 3.211-.303 6.145 8.83 8.791 2.316 2.645 2.092 4.987-.171 7.027 2 2.027 2.461 3.751-6.369 5.145 1.579 1.395-2.092 2.461 4.291 3.172 1.027.711-1.553 1.079-5.856 1.079.368 6.238.303 11.818 2.448 16.739 5.199 4.922 2.724 9.212 5.421 12.858-.724 3.645-2.487 6.672-.553 9.067-3.909 2.395-6.172 4.184-3.54 5.369-4.356 1.184-4.5 1.763-2.092 1.763-2.053 1.672-4.772 2.573-12.051 2.919-19.884-15.745-5.156-35.675-17.073-88.298-27.69-19.948-4.025-94.436-2.293-118-6-85.728-13.486-101.85-15.295-116.195-12.264-1.43 16.093-1.403 30.619-1.21 24.622z" fill="#AAC2D9"/>
    <path d="M415.748 234.819c11.607 18.358 2.882 46.375-15.476 57.982-18.357 11.607-42.651 6.119-54.258-12.239-11.606-18.358-6.119-42.651 12.239-54.258 18.345-11.607 45.888-9.856 57.495 8.515z" fill="#DAE5EF"/>
    <path d="M414.301 277.615c-3.422 6.185-8.291 11.449-14.081 15.133-18.292 11.713-42.638 6.185-54.219-12.238-11.58-18.292-6.185-42.638 12.239-54.219.921-.526 1.711-1.053 2.632-1.447-6.317 11.975-6.185 26.977 1.579 39.216 11.054 17.634 33.952 23.424 51.85 13.555zM362.675 225.646c.158-.526.079-1.066-.092-1.579-.066.027-.119.066-.185.092l.277 1.487z" fill="#AAC2D9"/>
</svg>
