<svg fill="none" xmlns="http://www.w3.org/2000/svg" viewBox="0 0 146 143">
    <g clip-path="url(#clip0)">
        <path d="M91.744 127.845l5.375-54.31-10.106-4.445-4.97 58.084 9.701.671z" fill="#fff"/>
        <path fill-rule="evenodd" clip-rule="evenodd" d="M101.176 143.423h-37.75c.81-1.633 1.503-2.706 2.727-4.231 1.258-1.568 1.328-1.797 1.277-4.152-.071-3.222.107-4.572.669-5.083.473-.429 1.04-.414 2.228.06.577.23 1.642.58 2.369.778a58.75 58.75 0 012.524.758c.663.22 1.911.53 2.775.689.863.159 2.348.453 3.3.654.95.201 2.255.385 2.897.41.643.025 1.571.139 2.063.254 3.35.778 7.095.852 16.022.315 4.317-.26 6.571-.348 6.693-.26 1.023.732-2.315 5.525-5.734 8.231-.485.384-1.054.848-1.266 1.032-.094.081-.385.28-.794.545zM3.77 19.288c-2.348-3.272-1.466-6.325 2.238-7.752.498-.192 3.24-.376 3.828-.256 1.215.246 2.499 1.478 3.058 2.936.582 1.516 1.14 1.743 2.227.903 1.785-1.377 2.892.823 1.513 3.005-.294.464-.74 1.207-.991 1.65-.65 1.148-.897 1.266-3.215 1.542-1.613.193-2.205.326-3.353.754-1.069.4-1.699.637-2.255.52-.804-.168-1.453-1.076-3.05-3.302zm5.858 9.78c.207-.613.804-.882 3.05-1.372 2.756-.602 2.96-.567 3.788.64.282.41.768 1.093 1.082 1.52.313.427.716 1.061.894 1.408.178.347.59 1.023.915 1.501.325.478 1.095 1.63 1.711 2.56 1.525 2.3 3.124 4.28 4.06 5.027 2.702 2.156 9.299 5.478 13.025 6.559.697.202 1.707.5 2.243.66.536.162 1.501.371 2.145.466a21.8 21.8 0 011.994.392c3.197.855 12.533.66 16.598-.346 5.43-1.345 9.42-1.33 12.826.047.772.311 1.806.633 2.3.714 1.474.242 1.89.442 2.432 1.166l.49.656.192 2.577c.168 2.257.24 2.709.578 3.639.212.584.513 1.604.668 2.267.415 1.77.888 3.036 1.685 4.51.39.721.85 1.577 1.025 1.902.789 1.473 2.317 3.267 4.18 4.91 2.362 2.082 2.608 2.713 2.02 5.161-.166.686-.282 1.7-.289 2.512-.006.75-.07 1.796-.14 2.325-.07.53-.161 1.577-.202 2.33-.041.75-.183 1.877-.314 2.503-.132.625-.25 1.491-.263 1.925a60.625 60.625 0 01-.16 2.431 83.637 83.637 0 00-.194 3.078c-.031.788-.158 2.023-.283 2.743-.125.72-.243 1.617-.262 1.993a92.741 92.741 0 01-.176 2.327 167.92 167.92 0 00-.236 3.135c-.112 1.76-.228 1.953-1.326 2.213-1.83.433-2.35 1.098-2.35 3.012 0 .722-.086 1.931-.192 2.688-.419 2.985-.5 3.398-.353 3.7.041.085.1.161.174.283.169.276.766.823 1.328 1.217.39.273.667.432.855.663.492.607.366 1.716.027 6.724-.193 2.851-.655 4.129-1.516 4.194-.537.041-4.146-.534-5.457-.869-3.442-.881-4.818-1.269-5.45-1.536a25.892 25.892 0 00-1.81-.65c-.593-.189-1.243-.442-1.444-.563-.201-.122-.837-.417-1.413-.656-2.555-1.062-5.78-3.276-7.288-5.004-.52-.595-1.202-1.324-1.515-1.619-.658-.618-.793-1.326-.522-2.725.177-.916.15-1.454-.124-2.433-.241-.862-.054-2.981.425-4.801.148-.563.255-1.211.238-1.44-.038-.525-1.001-4.95-1.213-5.575-.344-1.011-.784-3.33-.877-4.625-.054-.75-.24-2.028-.415-2.84-.437-2.037-.872-5.522-1.358-10.864-.31-3.42-.37-4.76-1.067-5.374-.514-.453-1.372-.513-2.93-.721-1.337-.179-2.365-.405-3.116-.687a37.048 37.048 0 00-1.967-.674c-4.636-1.382-11.656-5.9-17.157-11.038-2.111-1.974-6.05-6.154-7.257-7.704-1.99-2.556-3.873-5.088-4.522-6.083-.435-.667-.854-1.309-.932-1.426a24.109 24.109 0 01-.617-1.12 16.344 16.344 0 00-.902-1.501 11.356 11.356 0 01-.803-1.388 24.959 24.959 0 00-.84-1.574c-.662-1.124-2.687-6.113-2.92-7.193a24.485 24.485 0 00-.464-1.769c-.343-1.098-.524-3.478-.312-4.107zm70.429-2.3c1.467-1.537 2.146-2.063 3.304-2.56 3.977-1.706 10.777 1.446 13.307 5.551.408.662-.2 1.352-1.149 1.304a8.281 8.281 0 01-.621-.084c-.854-.132-2.263-.35-2.98-.132-.452.137-1.657.435-2.677.661-1.02.226-2.275.56-2.786.742a20.46 20.46 0 01-1.861.544c-3.256.75-5.92 2.276-7.052 4.038-1.17 1.824-2.239 1.552-6.429-1.636-1.255-.955-2.18-1.216-3.738-1.055-2.137.22-2.71.28-3.238.152-.197-.048-.388-.123-.651-.225-.501-.194-1.438-.739-2.081-1.21-.704-.516-1.805-1.137-2.766-1.56-3.711-1.635-4.755-2.494-4.036-3.322.36-.415 1.007-.413 2.128.007.897.337 1.102.358 2.936.305 2.095-.061 2.32-.02 5.8 1.071 1.635.512 2.322.375 4.568-.912 2.46-1.41 2.981-1.488 4.23-.64 1.373.933 1.564 1.003 2.538.926 1.229-.097 1.797-.44 3.254-1.966zm38.068 24.436c6.897-.49 12.205.521 17.841 4.018 9.256 5.743 13.06 8.37 16.224 18.861.518 1.718.665 8.028.22 9.45-.096.305-.336 1.326-.534 2.268a30.404 30.404 0 01-.913 3.264c-.304.854-.61 1.8-.68 2.106-.154.666-1.67 4.48-2.368 5.954-.274.581-.89 1.912-1.367 2.957-.931 2.036-1.23 2.614-3.43 6.613-4.153 7.55-5.1 8.945-6.002 8.842-.545-.063-3.757-1.92-4.533-2.621-.767-.693-.773-2.047-.018-3.843.159-.378.437-1.229.618-1.892.181-.663.562-1.742.846-2.399.518-1.196.974-2.452 1.978-5.45.295-.883.771-2.203 1.057-2.935 1.403-3.587 1.59-4.188 2.65-8.494 2.496-6.716-13.64-17.33-14.709-16.478-1.533 1.222-1.577 2.062-1.595 4.099-.008.857-.065 1.777-.127 2.043-.063.267-.133 1.046-.156 1.73a10.551 10.551 0 01-.38 2.41c-.186.64-.494 1.994-.685 3.007-.192 1.014-.452 2.135-.579 2.492-.127.357-.413 1.336-.637 2.176-.224.84-.638 2.125-.921 2.856-.283.732-.571 1.58-.641 1.884-.146.633-1.104 3.25-1.946 5.312-.315.771-.78 1.938-1.033 2.592-.545 1.408-1.601 3.835-2.804 6.444-.495 1.076-.722 1.508-.764 1.957-.039.413.079.841.289 1.798.065.298.035.784-.077 1.223a23.918 23.918 0 00-.352 1.769 15.591 15.591 0 01-.363 1.682c-.195.631-.191.663.217 1.891.54 1.621.992 5.938.71 6.775-.671 1.992-7.799 3.372-17.834 3.453-2.514.02-4.212-.308-4.664-.901-.31-.406-.273-3.367.067-5.35.136-.796.295-2.061.354-2.811.165-2.098.357-2.405 1.7-2.723 1.567-.371 2.132-1.198 2.238-3.276.043-.849.24-2.281.437-3.183.606-2.769.364-3.652-1.206-4.411-1.897-.918-2.092-1.376-1.642-3.851a28.9 28.9 0 00.308-2.405c.055-.694.15-1.817.213-2.496.062-.678.134-1.97.158-2.87.048-1.754.097-2.2.408-3.706.11-.531.182-1.268.16-1.637-.022-.368.033-1.322.122-2.119.088-.797.202-2.218.253-3.157.05-.94.18-2.084.29-2.542.109-.458.213-1.2.231-1.65.018-.45.11-1.417.201-2.15.093-.732.157-1.49.144-1.684-.07-.965.343-1.318 1.647-1.414 1.823-.133 5.583-1.635 7.545-3.014 4.824-3.39 5.821-7.868 3.078-13.827-.495-1.075-.705-2.052-.55-2.56l.117-.382 1.407-.066 1.407-.065 1.365-1.05c.338-.26.605-.494.848-.706 1.128-.986 1.706-1.492 6.162-1.808zm4.591 69.312c.227-.673.698-1.001 2.625-1.827 2.178-.933 2.743-.998 3.594-.409 1.35.935 3.122 1.895 4.518 2.445 1.083.428 1.627.634 1.914 1.027.298.408.32 1.018.384 2.288.2 4.03-1.39 6.857-3.962 7.043-4.121.298-7.716-3.228-6.732-6.602.369-1.264.408-1.505.301-1.831-.122-.371-.703-.591-1.422-.54-.905.064-1.512-.729-1.22-1.594z" fill="#D80E0E"/>
        <path d="M11.778 21.756c-2.404.443-3.075.604-4.794 1.566-1.132.876-1.862 2.456-.543 3.851 1.13 1.196 1.97 1.468 3.383 1.336.956-.089 1.957-.535 2.868-.81.73-.222 1.44-.376 2.142-.69 1.392-.62 1.855-.8 1.986-2.479.078-.996-.167-1.946-1.061-2.375-2.001-.962-1.313-.588-3.98-.399z" fill="#fff"/>
        <ellipse rx="3.534" ry="3.531" transform="matrix(0.99746 -0.0707675 0.0710816 0.997436 52.5404 25.8081)" fill="#fff"/>
        <path d="M58.51 109.826c.024-1.197.359-1.972.504-2.481 6.106-.161 19.728.584 30 1.268 10.273.684 20.473 2.396 24.154 3.176.29.252.077 1.082-.367 2.472-.283.882-.442 2.069-.368 2.471-4.251-.514-16.483-2.363-27.294-3.361-8.896-.822-24.516-1.25-26.455-1.112-.074-.402-.197-1.236-.173-2.433z" fill="#1D1B1B"/>
        <path fill-rule="evenodd" clip-rule="evenodd" d="M87.744 105.766a5.305 5.305 0 00-5.662 4.924 5.307 5.307 0 004.938 5.651l3.703.254a5.305 5.305 0 005.662-4.924c.2-2.92-2.01-5.45-4.937-5.651l-3.704-.254zm.006 2.005a3.304 3.304 0 00-3.525 3.066 3.304 3.304 0 003.074 3.518l3.417.235a3.304 3.304 0 003.525-3.066 3.304 3.304 0 00-3.074-3.518l-3.417-.235z" fill="#FDCB3F"/>
        <path d="M80.667 46.658c-.066-.918.003-1.827-.062-2.74-.065-.912-.095-2.431.675-1.861.234-.69.829-.855 1.358-1.397.439-.45 1.032-.727 1.573-1.032.613-.345 1.217-.75 1.871-1.013.677-.273 1.48-.295 2.19-.433 1.047-.203 2.102-.387 3.164-.487.709-.066 1.589-.231 2.3-.122.959.146 1.918.592 2.83.905.377.129.828.242 1.166.464.39.257.774.22 1.212.332.49.126.807.208 1.097.64.211.316.202.733.38 1.071.348.664.587 1.3 1.063 1.892.451.561.792 1.394.982 2.083.18.656.286 1.39.608 1.995.194.364.142.56.036.96v.002c-.271 1.023-.999 2.105-1.772 2.83-.666.624-1.45 1.029-2.281 1.382-.527.224-1.02.514-1.56.71-1.333.482-2.68.924-4.03 1.354-1.463.467-2.88.605-4.403.709-1.406.095-2.8.121-4.208.102-.393-.005-.791-.018-1.172-.128-1.31-.378-2.264-1.382-2.362-2.768-.07-.987-.069-2.01-.264-2.977-.08-.395-.024-.813-.105-1.206-.089-.431-.255-.821-.286-1.267z" fill="#F0A48A"/>
        <path d="M77.078 36.51c-.698 1.06-1.038 2.06-1.12 3.368-.44 1.388-.04 2.663.793 3.882.567.831 2.673 1.901 3.542 1.075.413-.393.702-.792 1.245-1.053.427-.205.67-.49.895-.888.276-.49 1.159-.938 1.64-1.16.84-.39 1.859-.7 2.75-.965.8-.24 1.756-.165 2.589-.224.58-.041 1.137-.379 1.681-.57.947-.33 1.957-.339 2.927-.567.957-.224 1.958-.229 2.937-.298.836-.06 1.772.193 2.576.489.443.163.027.197.46.355.245.09.591-1.731.569-2.041l-.115-1.616c-.103-1.45-.46-2.752-1.34-3.968-.513-.71-1.063-1.051-1.756-1.595-.677-.53-1.71-.258-2.496-.203-1.144.082-2.215.338-3.375.42-.72.05-1.371-.031-2.085.128-1.088.242-2.162.585-3.261.826-.538.118-.927.176-1.429.356-.545.195-1.091.475-1.627.705-.788.338-1.5.814-2.302 1.128-.39.153-.702.311-1.031.568-.371.29-.794.456-1.165.717-.534.377-1.132.57-1.502 1.131z" fill="#fff"/>
        <path fill-rule="evenodd" clip-rule="evenodd" d="M80.8 43.615c.424.292.817.607 1.113 1.042.15.22.244.462.34.705.057.147.115.295.185.438.162.33.26.691.343 1.047.026.111.058.223.09.335.066.225.132.452.149.682.014.198.06.4.108.602.037.162.075.324.096.485l.014.11c.05.39.106.816.21 1.188.076.268.16.616.18.894.018.263.377-.137.45-.224.37-.434.762-.787 1.32-.98.796-.275 1.594-.58 2.373-.902l.481-.203c.451-.192.904-.385 1.368-.54.58-.194 1.221-.287 1.83-.34.34-.03.678-.084 1.015-.139a17.8 17.8 0 01.8-.117c.53-.061 1.08-.15 1.607-.245a5.24 5.24 0 011.003-.065c.121.001.243-.004.364-.01.135-.006.27-.012.406-.01a2.08 2.08 0 00.292-.024c.153-.02.309-.04.445-.01 1.306.286 2.606.476 3.948.533.099.004.132.009.139-.002.007-.014-.028-.051-.034-.144-.01-.141.001-.278.011-.415.01-.116.019-.232.015-.351-.016-.543-.048-1.11-.147-1.645a29.202 29.202 0 01-.167-1.047c-.171-1.158-.346-2.346-.945-3.33-.065-.108-.158-.17-.249-.231-.06-.042-.121-.082-.172-.136a5.292 5.292 0 01-.522-.691c-.06-.09-.12-.179-.181-.266-.08-.111-.153-.221-.225-.328a17.603 17.603 0 00-.161-.24c.367.16.726.334 1.073.526.579.319.868.944 1.149 1.548.112.242.223.481.35.696.071.12.096.26.121.4.016.093.033.187.063.275.046.132.103.26.16.388.058.132.117.264.163.4.062.184.139.367.217.55.122.289.245.579.31.877l.004.017c.121.55.244 1.11.461 1.629.084.2.195.389.306.577.12.205.241.41.326.631.076.197.173.378.271.56.113.208.226.419.31.658.054.156.097.314.141.472.049.182.099.363.165.54.083.222.182.438.28.654.137.297.273.595.368.91.086.285.144.564.201.838.117.564.23 1.107.577 1.652.136.213.277.42.418.627.206.304.412.607.603.93.331.559.579 1.1.842 1.693.072.162.165.309.258.454.163.257.323.508.353.827.033.356.175.848.402 1.13.209.26.251.676.288 1.049.014.139.027.272.049.389.102.567.205 1.191.2 1.768-.002.23-.03.46-.057.69-.021.172-.042.343-.052.512-.014.244-.005.492.005.741.019.482.038.966-.117 1.42-.181.528-.392 1.062-.724 1.515-.242.33-.387.773-.52 1.177l-.078.236c-.173.505-.282.763-.658 1.163-.519.554-1.077 1.129-1.778 1.451a2.426 2.426 0 00-.487.323l-.129.1a6.297 6.297 0 01-1.591.883 4.563 4.563 0 00-.357.159c-.225.107-.454.216-.686.253-.426.066-.866.315-1.277.547-.16.09-.315.177-.463.251l-.179.092c-.218.115-.437.23-.682.275-.107.019-.22.022-.333.026-.156.004-.312.009-.454.055-.88.288-1.77.349-2.682.412l-.254.017c-.225.016-.429-.069-.633-.154a5.566 5.566 0 00-.153-.063c-.615-.237-1.218-.441-1.867-.575a50.662 50.662 0 00-.258-.052c-.65-.13-1.147-.23-1.761-.61-.29-.179-.593-.334-.897-.49-.525-.27-1.05-.538-1.495-.924-.982-.852-1.933-1.7-2.754-2.714-.112-.138-.231-.272-.351-.406-.33-.37-.66-.737-.829-1.205-.126-.349-.375-.65-.623-.952-.2-.243-.4-.485-.535-.751-.21-.414-.453-.794-.697-1.176-.141-.222-.283-.444-.42-.673-.232-.393-.363-.894-.4-1.342-.05-.613-.262-1.1-.493-1.635-.058-.134-.118-.272-.177-.415-.118-.288-.24-.577-.361-.866-.286-.677-.573-1.356-.814-2.044-.148-.421-.193-.85-.238-1.282a11.08 11.08 0 00-.147-1.04c-.119-.696-.237-1.39-.252-2.1-.004-.188.054-.525.16-.683.075-.113.176-.159.274-.203.065-.03.128-.058.184-.105.212-.179.466-.197.737-.215l.047-.003c.233-.017.459-.114.683-.21.135-.058.27-.116.405-.157.411-.122.319-.755.251-1.216a4.397 4.397 0 01-.037-.295c-.044-.62-.119-1.222-.318-1.815-.065-.197-.103-.402-.14-.606-.041-.22-.081-.44-.157-.646-.045-.124-.047-.276-.05-.42 0-.06-.001-.118-.005-.173-.007-.094-.04-.157-.075-.223-.024-.045-.048-.09-.065-.147-.044-.147-.214-.218-.379-.286a1.007 1.007 0 01-.265-.14 1.35 1.35 0 00-.33-.189c-.12-.054-.242-.11-.348-.197-.243-.199-.245-.323-.25-.57 0-.066-.002-.142-.008-.23.246-.017.351-.267.46-.523.096-.229.195-.463.397-.546.055-.023.13-.067.215-.122z" fill="#fff"/>
        <path d="M78.547 46.632c.284-.783 1.104-.868 1.848-.777.51-.036 1.068.677 1.106 1.212l.164 2.298c.05.707.071 1.255.269 1.916.057.192-.089.434-.086.652.003.216-.764.11-.88.062-.38-.158-.791-.176-1.148-.428-.327-.23-.513-.674-.655-1.04-.252-.65-.711-1.388-.76-2.085-.047-.651-.08-1.198.142-1.81zM102.782 42.366c-.076-1.072-1.444-1.872-2.386-2.005.026.363.255.746.43 1.056.174.308.359.544.555.84.25.378.338.833.449 1.27.053.206.239.403.344.58.044.075.188.297.247.349.121.104.389-.747.383-.835-.029-.407.009-.824-.022-1.255zM93.133 51.162c-.781.056-1.392-.612-2.147-.678-.18.432-.351.737.089 1.202.13.139.376.286.555.336.2.055.399.199.603.212.725.044 1.47-.33 2.013-.801.285-.247.98-.64.973-1.074-.006-.43-.594.058-.73.16-.438.332-.782.602-1.356.643zM95.501 47.489c-.586.17-.873.22-1.222-.321-.617-.954-.701-1.853-1.147-2.868.045-.176.199-.404.336-.526.06-.055.326-.241.41-.117a.244.244 0 00.157.098c.035.008.076.154.107.188.172.192.232.486.44.666.163.142.385.235.59.315.302.118.483.368.726.563.147.119.3.315.412.469.253.35.23.558.174.94-.07.47-.493.45-.983.593z" fill="#EF7D73"/>
        <path d="M81.472 44.306c.114-.36.089-.267.39-.288 1.4-.1 2.93-.136 4.03-.162.693-.016 1.408-.318 2.09-.421 3.372-.51 6.918-1.46 10.131-2.589.47-.164 1.065-.602 1.56-.637.056-.004.275.672.309.73.494.857.559 3.03-.289 3.762-.4.346-1.194.6-1.711.642-1.6.129-2.366-.875-3.792-1.312-.246-.076-.41-.241-.687-.222-.174.013-.379.068-.387.264-.048 1.133-1.218 2.409-2.14 3.002-.341.22-.776.325-1.177.353-.39.028-.828.08-1.208-.03-.987-.287-1.979-.591-2.406-1.565a1.453 1.453 0 01-.126-.531c-.002-.094.073-.305-.08-.226-.269.14-.767-.01-1.066.011l-.95.067c-.667.048-1.598-.091-2.294-.042-.154-.177-.262-.601-.197-.806z" fill="#000"/>
        <path d="M135.743 113.872c.302.216 2.279 1.475 2.575 1.703 1.521 1.17 2.274 2.217.985 4.277-.94 1.501-2.222 2.382-3.663 2.026-1.747-.432-4.808-2.027-6.177-3.213-1.163-1.008-2.177-1.059-2.528-2.554-.208-.89 1.035-2.801 1.654-3.514 1.078-1.242 2.171-.953 3.519-.571 1.278.362 2.561 1.079 3.635 1.846zM86.372 126.867c-17.151-1.065-26.134-8.696-28.48-12.378-.464-.783-4.78.475.916 7.134 7.119 8.325 12.935 9.814 21.225 11.671 8.29 1.857 25.434.776 28.725.543 6.45-.458 7.249-9.58 4.707-8.349-1.971.955-9.941 2.444-27.093 1.379z" fill="#fff"/>
    </g>
    <defs>
        <clipPath id="clip0">
            <path fill="#fff" d="M0 0h146v143H0z"/>
        </clipPath>
    </defs>
</svg>
