<svg fill="none" xmlns="http://www.w3.org/2000/svg" viewBox="0 0 463 480">
    <circle cx="245" cy="280.444" r="179" fill="#96CFDC"/>
    <path d="M266.473 371.395l15.579-157.772-29.292-12.913-14.405 168.738 28.118 1.947z" fill="#fff"/>
    <path fill-rule="evenodd" clip-rule="evenodd" d="M281.204 455.485a179.82 179.82 0 01-36.381 3.699c-23.458 0-45.862-4.512-66.391-12.716-.071-11.223 1.875-21.503 5.822-29.539 2.407-4.9 4.424-8.053 8.039-12.567 3.648-4.556 3.852-5.22 3.701-12.061-.205-9.361.311-13.285 1.94-14.767 1.372-1.248 3.015-1.204 6.46.174 1.671.668 4.76 1.684 6.864 2.258 2.105.574 5.398 1.566 7.318 2.205 1.92.638 5.539 1.538 8.042 2 2.504.462 6.807 1.316 9.565 1.9 2.757.583 6.537 1.119 8.4 1.192 1.863.073 4.553.404 5.977.736 9.71 2.262 20.566 2.476 46.443.915 12.512-.755 19.045-1.009 19.401-.754 2.964 2.127-6.712 16.049-16.622 23.912-1.404 1.114-3.056 2.463-3.669 2.997-.614.534-4.184 2.83-7.933 5.102-9.348 5.664-9.4 5.731-9.808 12.5-.48 7.987.451 15.506 2.832 22.814zM11.469 56.032c-6.804-9.505-4.25-18.373 6.488-22.518 1.445-.558 9.39-1.093 11.096-.746 3.523.715 7.244 4.295 8.864 8.53 1.686 4.405 3.303 5.062 6.455 2.624 5.174-4.001 8.384 2.39 4.385 8.729a140.307 140.307 0 00-2.872 4.794c-1.885 3.334-2.6 3.678-9.318 4.48-4.676.559-6.393.946-9.718 2.191-3.098 1.16-4.924 1.85-6.535 1.512-2.331-.489-4.212-3.126-8.845-9.596zm16.982 28.415c.6-1.784 2.33-2.565 8.841-3.989 7.989-1.747 8.577-1.647 10.98 1.86a209.332 209.332 0 003.135 4.417c.909 1.24 2.075 3.08 2.592 4.09.517 1.008 1.71 2.97 2.652 4.36.942 1.39 3.174 4.736 4.96 7.437 4.42 6.682 9.056 12.435 11.768 14.604 7.832 6.262 26.954 15.912 37.754 19.053 2.021.588 4.947 1.452 6.501 1.92 1.554.469 4.352 1.077 6.219 1.352 1.866.274 4.466.787 5.779 1.139 9.266 2.484 36.328 1.918 48.111-1.006 15.742-3.906 27.306-3.864 37.177.135 2.237.907 5.236 1.841 6.665 2.076 4.274.704 5.483 1.284 7.05 3.386l1.422 1.907.557 7.486c.488 6.557.696 7.87 1.675 10.571.615 1.697 1.486 4.661 1.936 6.587 1.203 5.142 2.573 8.818 4.883 13.101a2226.03 2226.03 0 012.971 5.525c2.287 4.279 6.716 9.493 12.119 14.267 6.843 6.046 7.559 7.878 5.852 14.99-.479 1.994-.816 4.938-.836 7.299-.019 2.177-.202 5.216-.406 6.753-.204 1.538-.468 4.583-.586 6.767-.119 2.183-.529 5.457-.911 7.273-.383 1.816-.725 4.333-.762 5.592-.036 1.259-.246 4.438-.465 7.064-.22 2.626-.472 6.649-.561 8.94-.089 2.29-.458 5.877-.82 7.969-.363 2.093-.704 4.698-.759 5.79-.055 1.091-.284 4.134-.51 6.76a492.168 492.168 0 00-.685 9.109c-.324 5.113-.659 5.674-3.844 6.428-5.305 1.256-6.81 3.191-6.81 8.75 0 2.097-.251 5.61-.558 7.808-1.212 8.675-1.446 9.872-1.022 10.751.119.246.29.467.505.82.488.801 2.22 2.392 3.849 3.536 1.128.792 1.931 1.252 2.475 1.923 1.43 1.763 1.065 4.983.081 19.535-.559 8.284-1.897 11.996-4.393 12.186-1.558.119-12.018-1.551-15.82-2.526-9.975-2.558-13.964-3.685-15.798-4.461-1.162-.493-3.521-1.343-5.243-1.89-1.721-.546-3.605-1.282-4.188-1.635-.583-.353-2.426-1.211-4.096-1.906-7.406-3.085-16.753-9.517-21.123-14.535-1.507-1.73-3.484-3.848-4.393-4.704-1.906-1.796-2.299-3.852-1.513-7.915.514-2.663.435-4.226-.359-7.071-.699-2.504-.155-8.66 1.231-13.947.429-1.634.74-3.516.692-4.181-.111-1.525-2.904-14.381-3.518-16.195-.997-2.94-2.27-9.677-2.541-13.437-.157-2.18-.698-5.893-1.202-8.25-1.267-5.919-2.529-16.042-3.936-31.562-.901-9.941-1.073-13.83-3.099-15.615-1.489-1.311-3.977-1.487-8.49-2.091-3.874-.519-6.854-1.177-9.029-1.997-1.786-.672-4.352-1.552-5.703-1.956-13.437-4.017-33.787-17.139-49.73-32.068-6.122-5.733-17.535-17.876-21.036-22.381-5.77-7.424-11.225-14.779-13.109-17.671-1.26-1.936-2.476-3.801-2.699-4.143-.224-.342-1.029-1.805-1.79-3.25-.76-1.446-1.937-3.409-2.614-4.363-.678-.955-1.725-2.768-2.327-4.031a72.835 72.835 0 00-2.435-4.573c-1.919-3.265-7.789-17.758-8.463-20.898a71.207 71.207 0 00-1.345-5.138c-.994-3.19-1.52-10.105-.905-11.931zm204.145-6.686c4.251-4.462 6.219-5.99 9.576-7.433 11.529-4.96 31.24 4.2 38.574 16.124 1.181 1.922-.582 3.926-3.331 3.787-.335-.017-.98-.117-1.802-.244-2.475-.382-6.559-1.013-8.634-.382-1.312.399-4.806 1.263-7.764 1.92s-6.592 1.627-8.075 2.154c-1.483.528-3.91 1.24-5.394 1.582-9.437 2.178-17.161 6.61-20.44 11.73-3.394 5.299-6.49 4.51-18.634-4.752-3.64-2.775-6.32-3.534-10.837-3.067-6.193.64-7.855.816-9.384.442-.572-.14-1.124-.355-1.888-.652-1.453-.565-4.167-2.147-6.032-3.516-2.042-1.498-5.233-3.302-8.018-4.532-10.757-4.75-13.782-7.244-11.699-9.649 1.046-1.207 2.919-1.201 6.168.02 2.601.977 3.194 1.039 8.512.884 6.073-.176 6.723-.056 16.811 3.113 4.739 1.488 6.731 1.09 13.242-2.649 7.132-4.095 8.64-4.324 12.259-1.86 3.982 2.71 4.534 2.912 7.358 2.69 3.562-.281 5.209-1.278 9.432-5.71zm110.344 70.991c19.993-1.422 35.377 1.513 51.715 11.672 26.828 16.683 37.855 24.313 47.026 54.793 1.501 4.988 1.927 23.321.637 27.451-.277.886-.974 3.852-1.548 6.589-.574 2.737-1.765 7.005-2.646 9.484-.882 2.478-1.769 5.23-1.972 6.115-.446 1.938-4.841 13.018-6.862 17.298a947.379 947.379 0 00-3.964 8.589c-2.697 5.917-3.565 7.594-9.941 19.212-12.038 21.934-14.784 25.987-17.398 25.686-1.58-.182-10.891-5.577-13.139-7.612-2.224-2.014-2.242-5.949-.052-11.166.461-1.098 1.266-3.571 1.791-5.496.524-1.925 1.628-5.061 2.452-6.968 1.502-3.475 2.823-7.125 5.733-15.835.856-2.562 2.236-6.398 3.065-8.524 4.065-10.42 4.609-12.167 7.682-24.675 7.234-19.513-39.538-50.348-42.638-47.871-4.442 3.549-4.57 5.99-4.622 11.907-.022 2.491-.188 5.162-.369 5.937-.181.774-.385 3.036-.452 5.027-.076 2.241-.495 4.905-1.102 7-.538 1.86-1.432 5.791-1.985 8.735-.555 2.945-1.309 6.203-1.676 7.239-.369 1.037-1.2 3.881-1.849 6.321-.649 2.439-1.85 6.173-2.669 8.298s-1.656 4.588-1.859 5.472c-.422 1.839-3.2 9.44-5.64 15.432a544.345 544.345 0 00-2.994 7.531c-1.578 4.088-4.641 11.141-8.126 18.719-1.437 3.124-2.095 4.379-2.216 5.685-.112 1.201.23 2.444.838 5.223.19.867.1 2.279-.224 3.555-.297 1.163-.755 3.476-1.019 5.138-.264 1.662-.738 3.861-1.054 4.887-.563 1.833-.553 1.924.631 5.492 1.563 4.71 2.873 17.251 2.056 19.682-1.945 5.787-22.606 9.796-51.693 10.03-7.287.059-12.207-.894-13.518-2.616-.897-1.18-.791-9.783.193-15.543.395-2.312.857-5.987 1.028-8.166.477-6.095 1.032-6.986 4.925-7.909 4.543-1.078 6.183-3.482 6.489-9.518.126-2.466.696-6.627 1.267-9.246 1.755-8.045 1.056-10.609-3.497-12.816-5.497-2.665-6.063-3.998-4.758-11.187.332-1.825.733-4.968.891-6.985.159-2.017.437-5.28.618-7.251s.387-5.724.459-8.339c.14-5.096.282-6.39 1.183-10.764.318-1.546.527-3.686.463-4.756-.063-1.07.095-3.84.352-6.156s.587-6.444.733-9.174c.146-2.729.524-6.052.84-7.382.317-1.331.619-3.488.672-4.795.053-1.306.316-4.116.584-6.243.268-2.128.454-4.33.414-4.895-.199-2.801.996-3.829 4.777-4.106 5.283-.388 16.18-4.751 21.869-8.757 13.983-9.847 16.872-22.856 8.921-40.169-1.435-3.123-2.043-5.961-1.594-7.434l.34-1.113 4.077-.19 4.078-.191 3.958-3.05a48.447 48.447 0 002.458-2.05c3.269-2.866 4.944-4.333 17.861-5.251zm13.307 201.353c.657-1.953 2.024-2.907 7.609-5.306 6.314-2.712 7.952-2.899 10.417-1.188 3.913 2.716 9.051 5.503 13.096 7.104 3.138 1.242 4.714 1.839 5.547 2.98.866 1.185.93 2.957 1.113 6.649.582 11.708-4.026 19.919-11.482 20.459-11.945.866-22.367-9.376-19.514-19.178 1.069-3.671 1.184-4.371.872-5.321-.352-1.075-2.036-1.716-4.122-1.568-2.623.187-4.381-2.116-3.536-4.631z" fill="#D80E0E"/>
    <path d="M34.683 63.202c-6.97 1.287-8.914 1.752-13.897 4.548-3.282 2.546-5.396 7.135-1.575 11.188 3.276 3.473 5.714 4.263 9.806 3.88 2.773-.259 5.673-1.553 8.314-2.355 2.115-.642 4.174-1.091 6.208-2 4.036-1.803 5.377-2.326 5.757-7.202.226-2.895-.485-5.654-3.076-6.901-5.8-2.793-3.805-1.708-11.537-1.158z" fill="#fff"/>
    <ellipse cx="152.836" cy="74.974" rx="10.244" ry="10.258" transform="rotate(-4.06722 152.836 74.9738)" fill="#fff"/>
    <path d="M170.143 319.052c.068-3.478 1.038-5.73 1.458-7.207 17.7-.469 57.183 1.695 86.959 3.682 29.776 1.987 59.343 6.961 70.013 9.228.84.73.224 3.141-1.066 7.179-.818 2.563-1.279 6.01-1.065 7.179-12.323-1.491-47.778-6.863-79.116-9.765-25.785-2.387-71.06-3.628-76.68-3.229-.215-1.168-.571-3.59-.503-7.067z" fill="#1D1B1B"/>
    <path fill-rule="evenodd" clip-rule="evenodd" d="M246.501 306.681a6.997 6.997 0 00-7.461 6.503l-1.145 16.754a7.003 7.003 0 006.506 7.464l27.492 1.89a6.997 6.997 0 007.461-6.504l1.145-16.754a7.002 7.002 0 00-6.506-7.463l-27.492-1.89zm4.819 6.155a5.998 5.998 0 00-6.395 5.575l-.489 7.155a6.002 6.002 0 005.576 6.397l17.062 1.173a5.998 5.998 0 006.395-5.575l.489-7.154a6.002 6.002 0 00-5.576-6.398l-17.062-1.173z" fill="#FDCB3F"/>
    <path d="M234.364 135.546c-.19-2.667.009-5.308-.18-7.959-.188-2.651-.275-7.065 1.957-5.409.679-2.002 2.402-2.483 3.936-4.057 1.273-1.306 2.994-2.114 4.562-2.999 1.775-1.003 3.527-2.178 5.423-2.943 1.962-.791 4.288-.856 6.348-1.257 3.033-.591 6.092-1.125 9.17-1.415 2.055-.194 4.606-.673 6.67-.356 2.776.425 5.558 1.721 8.201 2.629 1.091.375 2.4.704 3.38 1.35 1.132.746 2.244.639 3.512.964 1.42.364 2.341.604 3.18 1.858.613.918.585 2.129 1.101 3.113 1.011 1.929 1.704 3.776 3.084 5.497 1.306 1.629 2.294 4.047 2.844 6.051.523 1.905.829 4.036 1.764 5.794.562 1.057.41 1.63.104 2.79l-.002.007c-.785 2.972-2.894 6.114-5.134 8.219-1.931 1.815-4.202 2.989-6.614 4.016-1.528.651-2.954 1.494-4.52 2.062-3.866 1.401-7.768 2.685-11.683 3.936-4.24 1.354-8.346 1.757-12.762 2.057-4.075.276-8.118.353-12.199.298-1.139-.016-2.292-.052-3.395-.371-3.797-1.098-6.563-4.018-6.849-8.044-.204-2.865-.197-5.836-.765-8.648-.232-1.148-.067-2.361-.303-3.503-.258-1.253-.738-2.385-.83-3.68z" fill="#F0A48A"/>
    <path d="M223.962 106.065c-2.022 3.075-3.007 5.983-3.246 9.784-1.275 4.031-.114 7.735 2.298 11.277 1.643 2.414 7.749 5.522 10.268 3.122 1.197-1.141 2.034-2.3 3.609-3.058 1.237-.596 1.941-1.423 2.593-2.58.8-1.422 3.359-2.725 4.751-3.372 2.438-1.134 5.39-2.032 7.972-2.803 2.321-.693 5.091-.478 7.505-.65 1.68-.119 3.296-1.1 4.874-1.653 2.746-.962 5.672-.987 8.485-1.649 2.772-.652 5.675-.665 8.512-.866 2.424-.173 5.137.561 7.466 1.42 1.286.473.081.573 1.334 1.032.71.26 1.714-5.03 1.65-5.93l-.334-4.695c-.299-4.21-1.332-7.994-3.884-11.527-1.488-2.061-3.081-3.052-5.09-4.632-1.961-1.542-4.958-.751-7.235-.59-3.315.236-6.421.98-9.781 1.219-2.09.148-3.976-.09-6.044.371-3.154.704-6.267 1.7-9.453 2.4-1.559.343-2.686.513-4.141 1.035-1.581.567-3.164 1.381-4.717 2.049-2.284.982-4.348 2.363-6.671 3.276-1.132.445-2.036.905-2.99 1.65-1.077.841-2.302 1.324-3.376 2.084-1.549 1.095-3.282 1.654-4.355 3.286z" fill="#fff"/>
    <path fill-rule="evenodd" clip-rule="evenodd" d="M234.749 126.705c1.229.848 2.371 1.764 3.229 3.028.432.637.708 1.34.984 2.047.167.427.335.856.538 1.272.469.959.752 2.008.993 3.042.076.323.17.648.265.974.189.654.38 1.314.428 1.981.04.574.177 1.161.313 1.749.109.47.219.942.28 1.408l.041.319c.146 1.134.306 2.371.608 3.451.219.78.463 1.792.52 2.599.054.763 1.094-.398 1.307-.649 1.069-1.263 2.207-2.288 3.823-2.848a123.34 123.34 0 006.88-2.622c.465-.193.929-.391 1.395-.589 1.308-.558 2.621-1.118 3.964-1.569 1.681-.564 3.54-.833 5.308-.988.985-.086 1.962-.245 2.941-.403.77-.125 1.542-.25 2.317-.34a75.02 75.02 0 004.658-.713c1.003-.181 1.895-.193 2.907-.187.353.002.705-.014 1.056-.03.392-.017.784-.035 1.177-.028.266.005.554-.032.846-.07.443-.057.896-.115 1.291-.028 3.785.828 7.552 1.381 11.443 1.547.286.012.384.026.402-.006.023-.039-.079-.149-.098-.418-.029-.41.002-.807.034-1.205.026-.337.053-.675.043-1.021-.047-1.578-.14-3.227-.427-4.778a82.681 82.681 0 01-.485-3.042c-.495-3.363-1.002-6.815-2.737-9.674-.19-.314-.459-.495-.722-.673-.177-.12-.352-.238-.499-.394-.57-.604-1.043-1.309-1.513-2.007-.174-.26-.348-.519-.527-.772a45.356 45.356 0 01-.649-.955c-.158-.236-.312-.468-.469-.694a36.81 36.81 0 013.109 1.523c1.676.927 2.517 2.744 3.329 4.5.325.703.646 1.397 1.015 2.02.206.348.278.755.35 1.162.049.272.097.544.185.799.133.384.297.757.462 1.129.169.383.339.766.473 1.162.181.534.404 1.064.628 1.595.355.84.71 1.683.901 2.55l.011.051c.35 1.594.707 3.221 1.336 4.729.244.585.565 1.131.885 1.677.351.597.7 1.192.947 1.834.22.572.502 1.097.786 1.625.326.606.655 1.218.897 1.914.157.451.283.911.409 1.371.144.527.287 1.053.478 1.565.241.647.527 1.275.813 1.902.395.864.789 1.728 1.064 2.643.25.83.418 1.64.583 2.435.34 1.638.667 3.216 1.674 4.798.395.622.803 1.223 1.21 1.824.598.883 1.195 1.763 1.749 2.701.96 1.623 1.679 3.195 2.441 4.919.207.47.479.897.747 1.319.474.745.937 1.475 1.024 2.403.097 1.032.507 2.462 1.166 3.284.605.754.726 1.961.834 3.044.041.404.08.791.141 1.131.298 1.647.596 3.461.582 5.136-.006.666-.087 1.337-.168 2.007-.06.497-.12.993-.149 1.486-.041.707-.013 1.429.015 2.152.054 1.401.109 2.807-.341 4.124-.524 1.536-1.135 3.086-2.098 4.403-.701.959-1.121 2.244-1.506 3.418-.076.234-.151.464-.227.685-.5 1.467-.818 2.217-1.907 3.38-1.505 1.609-3.122 3.278-5.154 4.215-.534.246-.962.584-1.412.939-.123.096-.246.194-.374.291a18.157 18.157 0 01-4.612 2.563c-.34.13-.686.295-1.035.462-.651.311-1.315.628-1.988.734-1.235.194-2.509.915-3.702 1.591-.462.261-.911.515-1.341.73-.174.086-.346.176-.518.267-.632.333-1.268.668-1.978.797a6.733 6.733 0 01-.964.075c-.452.014-.906.028-1.317.162-2.551.835-5.13 1.013-7.773 1.195l-.737.052c-.653.046-1.242-.201-1.834-.45-.147-.061-.295-.123-.443-.181-1.785-.689-3.533-1.282-5.412-1.671l-.749-.152c-1.881-.377-3.326-.667-5.105-1.771-.837-.519-1.719-.972-2.6-1.425-1.521-.781-3.04-1.562-4.332-2.684-2.847-2.473-5.602-4.939-7.982-7.883a30.605 30.605 0 00-1.019-1.179c-.959-1.074-1.914-2.143-2.403-3.501-.365-1.013-1.086-1.891-1.807-2.767-.579-.705-1.158-1.409-1.549-2.181-.61-1.203-1.313-2.307-2.02-3.417a68.173 68.173 0 01-1.216-1.956c-.674-1.14-1.055-2.594-1.162-3.897-.147-1.78-.759-3.198-1.429-4.749-.169-.391-.341-.79-.511-1.206-.342-.838-.696-1.677-1.049-2.517-.829-1.967-1.66-3.939-2.359-5.936-.428-1.224-.559-2.47-.69-3.726a32.132 32.132 0 00-.238-1.904c-.061-.373-.124-.745-.187-1.116-.344-2.022-.687-4.041-.731-6.1-.011-.547.156-1.527.462-1.985.22-.33.511-.462.797-.591.186-.085.371-.168.533-.305.615-.519 1.351-.57 2.136-.624l.136-.01c.676-.048 1.329-.329 1.981-.61.39-.168.78-.336 1.174-.453 1.191-.356.923-2.195.727-3.534-.047-.325-.09-.621-.107-.858-.128-1.798-.346-3.55-.921-5.273-.191-.57-.3-1.166-.409-1.759-.118-.64-.235-1.278-.452-1.877-.132-.361-.138-.8-.144-1.219-.003-.174-.005-.345-.017-.505-.019-.271-.117-.456-.218-.647a2.242 2.242 0 01-.188-.427c-.127-.427-.621-.632-1.098-.829-.292-.121-.579-.24-.77-.406-.272-.237-.61-.392-.956-.551-.346-.158-.7-.321-1.007-.573-.705-.578-.711-.939-.724-1.654a11.732 11.732 0 00-.025-.669c.713-.051 1.018-.775 1.332-1.521.279-.662.566-1.343 1.152-1.586.16-.066.379-.194.625-.352z" fill="#fff"/>
    <path d="M228.22 135.468c.822-2.275 3.199-2.52 5.357-2.255 1.48-.106 3.095 1.966 3.206 3.521l.474 6.674c.146 2.056.207 3.646.779 5.568.166.557-.256 1.26-.248 1.892.007.628-2.214.321-2.549.182-1.106-.459-2.295-.513-3.329-1.243-.948-.671-1.489-1.959-1.9-3.022-.731-1.889-2.06-4.033-2.204-6.059-.135-1.89-.229-3.479.414-5.258zM298.468 123.074c-.221-3.114-4.185-5.437-6.916-5.823.075 1.055.74 2.167 1.247 3.069.503.893 1.041 1.58 1.608 2.44.724 1.097.979 2.418 1.302 3.689.152.597.691 1.169.996 1.683.129.218.545.862.717 1.012.348.302 1.127-2.167 1.109-2.425-.084-1.183.027-2.391-.063-3.645zM270.499 148.629c-2.265.161-4.035-1.778-6.224-1.969-.519 1.254-1.017 2.139.258 3.491.38.402 1.091.829 1.608.974.579.161 1.157.579 1.748.616 2.102.13 4.261-.959 5.835-2.326.826-.717 2.84-1.86 2.82-3.12-.019-1.247-1.721.17-2.114.468-1.27.961-2.268 1.747-3.931 1.866zM277.362 137.955c-1.699.493-2.529.638-3.542-.932-1.788-2.769-2.032-5.38-3.324-8.329.13-.511.577-1.172.974-1.529.175-.158.945-.7 1.186-.34.109.164.28.249.459.287.101.021.218.445.308.545.501.558.672 1.41 1.277 1.936.471.409 1.114.682 1.707.913.877.343 1.402 1.07 2.105 1.637.427.344.871.913 1.194 1.361.734 1.018.669 1.621.505 2.728-.203 1.369-1.429 1.311-2.849 1.723z" fill="#EF7D73"/>
    <path d="M236.698 128.713c.331-1.049.258-.775 1.131-.837 4.058-.289 8.494-.395 11.684-.471 2.006-.048 4.08-.925 6.056-1.224 9.774-1.48 20.053-4.24 29.367-7.519 1.361-.48 3.087-1.751 4.522-1.854.161-.011.798 1.953.895 2.122 1.431 2.49 1.62 8.801-.838 10.929-1.16 1.005-3.459 1.745-4.96 1.866-4.637.374-6.859-2.542-10.991-3.813-.712-.219-1.186-.7-1.991-.643-.506.036-1.098.197-1.122.765-.139 3.293-3.53 6.999-6.202 8.721-.99.638-2.251.944-3.412 1.027-1.134.08-2.402.233-3.503-.087-2.86-.833-5.736-1.718-6.974-4.547a4.233 4.233 0 01-.364-1.543c-.006-.272.21-.886-.231-.656-.781.408-2.224-.03-3.092.032l-2.752.196c-1.936.137-4.634-.267-6.651-.123-.446-.515-.76-1.748-.572-2.341z" fill="#000"/>
    <path d="M394.008 330.805c.876.627 6.605 4.284 7.463 4.946 4.408 3.401 6.592 6.441 2.854 12.425-2.725 4.362-6.44 6.919-10.616 5.885-5.063-1.253-13.936-5.888-17.903-9.333-3.373-2.929-6.31-3.077-7.327-7.42-.605-2.584 2.998-8.135 4.791-10.206 3.126-3.61 6.293-2.769 10.2-1.659 3.705 1.052 7.425 3.134 10.538 5.362zM250.902 368.556c-49.716-3.094-75.752-25.262-82.555-35.959-1.343-2.273-13.852 1.379 2.656 20.726 20.635 24.183 37.494 28.509 61.522 33.903 24.029 5.395 73.723 2.256 83.263 1.578 18.695-1.33 21.011-27.829 13.644-24.253-5.714 2.774-28.814 7.1-78.53 4.005z" fill="#fff"/>
</svg>
