<svg fill="none" xmlns="http://www.w3.org/2000/svg" viewBox="0 0 144 135">
    <g clip-path="url(#clip0)">
        <path d="M86.4 120.692l5.062-51.271-9.517-4.197-4.68 54.836 9.136.632z" fill="#fff"/>
        <path fill-rule="evenodd" clip-rule="evenodd" d="M95.284 135.399H59.733c.762-1.541 1.415-2.555 2.567-3.994 1.185-1.48 1.252-1.696 1.203-3.919-.067-3.042.1-4.317.63-4.799.446-.406.98-.391 2.099.056a24.66 24.66 0 002.23.734c.684.187 1.754.509 2.377.717.624.207 1.8.5 2.613.65.814.15 2.212.428 3.108.617.896.19 2.124.364 2.73.388.604.023 1.478.131 1.941.239 3.155.735 6.682.804 15.09.297 4.065-.245 6.187-.328 6.303-.245.963.691-2.181 5.216-5.4 7.771-.457.362-.993.8-1.193.974a10.24 10.24 0 01-.747.514zM3.55 18.209c-2.21-3.089-1.38-5.971 2.108-7.318.47-.181 3.051-.355 3.605-.242 1.145.232 2.354 1.396 2.88 2.772.548 1.431 1.073 1.645 2.097.852 1.681-1.3 2.724.777 1.425 2.837-.276.438-.696 1.14-.933 1.558-.612 1.084-.845 1.195-3.027 1.456-1.52.181-2.077.307-3.158.712-1.006.377-1.6.6-2.123.491-.757-.159-1.369-1.016-2.874-3.118zm5.518 9.234c.194-.58.757-.834 2.872-1.297 2.596-.567 2.787-.535 3.568.605a68.02 68.02 0 001.018 1.435c.295.403.674 1.001.842 1.33.168.327.556.965.862 1.416.306.452 1.031 1.54 1.611 2.417 1.436 2.172 2.942 4.041 3.824 4.746 2.544 2.035 8.757 5.17 12.266 6.191.657.192 1.607.472 2.112.625.505.152 1.414.35 2.02.439.607.089 1.452.256 1.878.37 3.011.807 11.803.623 15.632-.327 5.114-1.27 8.871-1.256 12.079.044.726.294 1.7.598 2.165.675 1.389.228 1.781.417 2.29 1.1l.463.62.18 2.432c.159 2.131.227 2.558.545 3.436.2.551.483 1.514.629 2.14.39 1.671.836 2.866 1.586 4.258.367.68.802 1.488.966 1.795.743 1.39 2.182 3.085 3.937 4.636 2.224 1.965 2.456 2.56 1.901 4.872-.155.648-.265 1.604-.271 2.372a22.112 22.112 0 01-.132 2.194c-.066.5-.152 1.49-.19 2.199a18.94 18.94 0 01-.297 2.364c-.124.59-.235 1.408-.247 1.817-.012.409-.08 1.442-.151 2.296-.072.853-.153 2.16-.182 2.905-.03.744-.15 1.91-.267 2.59-.118.68-.229 1.526-.246 1.88a87.546 87.546 0 01-.166 2.198c-.074.854-.174 2.185-.223 2.96-.105 1.661-.214 1.844-1.249 2.089-1.723.408-2.212 1.037-2.212 2.843 0 .682-.082 1.823-.181 2.538-.394 2.819-.47 3.208-.332 3.493.038.08.094.152.164.267.158.26.72.777 1.25 1.149.366.258.627.407.804.625.465.573.346 1.619.027 6.348-.182 2.692-.617 3.898-1.428 3.96-.506.039-3.904-.504-5.14-.821-3.24-.831-4.536-1.197-5.132-1.449a23.875 23.875 0 00-1.704-.614c-.559-.178-1.171-.417-1.36-.532-.19-.115-.789-.393-1.331-.619-2.407-1.003-5.443-3.093-6.863-4.724-.49-.562-1.132-1.25-1.428-1.528-.619-.584-.746-1.252-.491-2.573.167-.865.141-1.373-.117-2.297-.227-.814-.05-2.814.4-4.533.14-.531.24-1.142.225-1.358-.036-.496-.943-4.674-1.143-5.263-.324-.956-.738-3.145-.826-4.367a23.664 23.664 0 00-.39-2.68c-.412-1.924-.822-5.214-1.279-10.257-.293-3.231-.349-4.495-1.007-5.075-.484-.426-1.292-.483-2.758-.68-1.259-.168-2.227-.382-2.934-.648a34.842 34.842 0 00-1.853-.636c-4.365-1.305-10.977-5.57-16.157-10.421-1.989-1.863-5.697-5.81-6.835-7.273-1.874-2.413-3.647-4.803-4.259-5.743l-.877-1.346a22.636 22.636 0 01-.581-1.056c-.247-.47-.63-1.108-.85-1.418-.22-.31-.56-.9-.756-1.31-.195-.41-.551-1.08-.79-1.486-.624-1.061-2.531-5.771-2.75-6.791a23.147 23.147 0 00-.437-1.67c-.323-1.037-.494-3.284-.294-3.877zm66.326-2.173c1.382-1.45 2.021-1.947 3.112-2.416 3.746-1.611 10.15 1.365 12.533 5.24.383.625-.19 1.276-1.083 1.23-.109-.005-.318-.037-.585-.078-.804-.125-2.131-.33-2.805-.125-.427.13-1.562.411-2.523.625-.96.213-2.142.528-2.623.7a19.21 19.21 0 01-1.753.514c-3.066.707-5.576 2.148-6.64 3.811-1.104 1.722-2.11 1.466-6.055-1.544-1.183-.902-2.053-1.148-3.521-.996-2.012.208-2.552.264-3.049.143-.186-.045-.365-.115-.614-.212-.471-.183-1.353-.698-1.96-1.142-.663-.487-1.7-1.073-2.604-1.473-3.495-1.544-4.478-2.354-3.801-3.136.34-.392.948-.39 2.004.007.845.317 1.038.337 2.765.287 1.974-.057 2.184-.018 5.462 1.012 1.54.483 2.187.354 4.303-.861 2.317-1.331 2.807-1.405 3.982-.605 1.294.881 1.474.947 2.391.874 1.157-.09 1.693-.415 3.064-1.855zm35.851 23.07c6.496-.462 11.494.492 16.803 3.793 8.716 5.421 12.299 7.901 15.279 17.806.487 1.621.625 7.578.206 8.92-.09.289-.316 1.252-.502 2.142-.187.89-.574 2.276-.86 3.082-.287.805-.575 1.7-.641 1.987-.145.63-1.573 4.23-2.229 5.622a284.26 284.26 0 00-1.288 2.79c-.876 1.923-1.158 2.468-3.23 6.244-3.911 7.128-4.803 8.445-5.653 8.347-.513-.059-3.538-1.812-4.269-2.474-.722-.654-.728-1.933-.016-3.628.149-.357.411-1.161.581-1.786.171-.626.529-1.645.797-2.265.488-1.129.917-2.315 1.863-5.145.278-.833.726-2.08.995-2.77 1.321-3.387 1.498-3.954 2.496-8.02 2.351-6.34-12.845-16.36-13.853-15.556-1.443 1.154-1.484 1.947-1.501 3.87-.008.81-.062 1.677-.12 1.929-.059.252-.125.987-.147 1.633a10.002 10.002 0 01-.358 2.275c-.175.605-.465 1.882-.645 2.84-.18.956-.425 2.015-.545 2.352-.119.337-.39 1.26-.6 2.053a31.993 31.993 0 01-.867 2.697c-.267.69-.539 1.491-.605 1.778-.137.598-1.039 3.068-1.832 5.015-.296.728-.734 1.83-.973 2.448-.513 1.328-1.507 3.62-2.64 6.083-.467 1.015-.68 1.423-.72 1.847-.036.39.075.794.272 1.697.062.282.033.741-.072 1.156a22.197 22.197 0 00-.331 1.669c-.086.541-.24 1.255-.343 1.588-.183.596-.18.626.205 1.786.508 1.53.934 5.605.668 6.395-.632 1.881-7.345 3.184-16.795 3.26-2.367.019-3.966-.291-4.392-.85-.291-.384-.257-3.179.063-5.051.128-.752.278-1.946.334-2.654.155-1.981.335-2.27 1.6-2.57 1.476-.35 2.009-1.132 2.108-3.093.041-.802.226-2.154.412-3.005.57-2.614.343-3.447-1.137-4.165-1.785-.866-1.97-1.299-1.545-3.635a27.39 27.39 0 00.29-2.27c.05-.656.141-1.716.2-2.356.059-.64.126-1.86.15-2.71.044-1.656.09-2.077.383-3.498.104-.503.172-1.198.15-1.546-.02-.348.032-1.248.115-2 .084-.753.191-2.094.239-2.982.047-.887.17-1.966.272-2.399a9.862 9.862 0 00.219-1.558c.017-.424.102-1.337.19-2.028.087-.692.147-1.408.134-1.591-.065-.91.324-1.245 1.552-1.335 1.717-.126 5.257-1.544 7.105-2.845 4.543-3.2 5.482-7.428 2.899-13.054-.467-1.015-.664-1.937-.518-2.416l.11-.361 1.325-.062 1.325-.062 1.286-.992c.318-.244.57-.466.798-.666 1.063-.931 1.607-1.408 5.803-1.706zm4.324 65.433c.213-.634.658-.944 2.472-1.724 2.052-.881 2.584-.942 3.384-.386 1.272.883 2.941 1.789 4.255 2.309 1.02.403 1.532.597 1.803.968.281.385.302.961.361 2.161.189 3.805-1.308 6.473-3.73 6.648-3.881.282-7.267-3.047-6.34-6.232.347-1.193.384-1.42.283-1.729-.114-.35-.662-.558-1.339-.51-.853.061-1.424-.687-1.149-1.505z" fill="#D80E0E"/>
        <path d="M11.093 20.54c-2.265.417-2.897.569-4.516 1.477-1.066.828-1.753 2.32-.511 3.636 1.064 1.129 1.856 1.386 3.185 1.261.902-.084 1.844-.505 2.702-.765.687-.209 1.356-.355 2.017-.65 1.311-.586 1.747-.756 1.87-2.34.074-.942-.157-1.838-.999-2.244-1.884-.907-1.236-.554-3.748-.376z" fill="#fff"/>
        <ellipse rx="3.328" ry="3.334" transform="matrix(0.99745 -0.0709394 0.0709096 0.99745 49.4806 24.3643)" fill="#fff"/>
        <path d="M55.103 103.682c.022-1.13.337-1.862.474-2.342 5.75-.153 18.578.551 28.253 1.197 9.674.645 19.28 2.262 22.747 2.998.273.238.073 1.021-.346 2.333-.266.833-.416 1.954-.346 2.333-4.004-.484-15.523-2.23-25.705-3.173-8.378-.776-23.088-1.179-24.914-1.049-.07-.38-.185-1.167-.163-2.297z" fill="#1D1B1B"/>
        <path fill-rule="evenodd" clip-rule="evenodd" d="M82.646 99.85a5.006 5.006 0 00-5.344 4.647 5.011 5.011 0 004.661 5.336l3.465.238a5.006 5.006 0 005.344-4.647 5.012 5.012 0 00-4.662-5.336l-3.464-.238zm0 1.893a3.116 3.116 0 00-3.326 2.893 3.12 3.12 0 002.902 3.322l3.204.221a3.118 3.118 0 003.327-2.894 3.12 3.12 0 00-2.902-3.322l-3.204-.22z" fill="#FDCB3F"/>
        <path d="M75.969 44.048c-.062-.867.003-1.725-.059-2.586-.061-.862-.089-2.296.636-1.758.22-.65.78-.807 1.279-1.318.413-.425.972-.688 1.482-.975.577-.326 1.146-.708 1.762-.956.637-.258 1.393-.279 2.062-.409.986-.192 1.98-.365 2.98-.46.667-.063 1.496-.218 2.166-.115.902.138 1.806.559 2.665.854.355.122.78.229 1.098.439.368.242.73.207 1.141.313.462.118.76.196 1.033.604.2.298.19.692.358 1.011.328.627.554 1.227 1.002 1.787.424.529.745 1.315.924 1.966.17.62.27 1.312.573 1.883.183.343.133.53.034.906v.003c-.256.965-.94 1.986-1.669 2.67-.627.59-1.365.972-2.148 1.306-.497.211-.96.485-1.47.67a104.02 104.02 0 01-3.795 1.279c-1.377.44-2.711.57-4.146.668a48.71 48.71 0 01-3.963.097c-.37-.005-.745-.017-1.104-.12-1.233-.358-2.132-1.306-2.225-2.615-.066-.93-.064-1.896-.248-2.81-.076-.373-.022-.767-.099-1.138-.084-.407-.24-.775-.27-1.196z" fill="#F0A48A"/>
        <path d="M72.589 34.468c-.657 1-.977 1.944-1.055 3.18-.414 1.31-.037 2.513.747 3.664.534.785 2.517 1.795 3.336 1.015.389-.371.66-.748 1.172-.994.402-.194.631-.463.843-.839.26-.462 1.091-.885 1.544-1.095.791-.369 1.75-.66 2.59-.911.754-.226 1.654-.156 2.438-.211.546-.04 1.07-.358 1.584-.538.892-.312 1.842-.32 2.757-.535.9-.212 1.843-.217 2.765-.282.787-.056 1.669.182 2.426.461.417.154.026.187.433.336.23.084.557-1.635.536-1.927l-.108-1.526c-.098-1.368-.433-2.598-1.262-3.746-.484-.67-1.001-.992-1.654-1.505-.637-.501-1.61-.244-2.35-.192-1.078.077-2.087.319-3.179.396-.679.048-1.291-.029-1.963.121-1.025.229-2.037.552-3.072.78-.506.111-.872.167-1.345.336-.514.184-1.028.449-1.532.666-.743.319-1.413.768-2.168 1.065a3.64 3.64 0 00-.972.536c-.35.273-.747.43-1.096.677-.504.356-1.067.538-1.415 1.068z" fill="#fff"/>
        <path fill-rule="evenodd" clip-rule="evenodd" d="M76.094 41.175c.399.276.77.573 1.048.984.14.207.23.435.32.665.054.139.109.278.175.413.152.312.244.653.322.989.025.105.055.21.086.317.062.212.124.426.14.643.013.187.057.377.101.569.036.152.071.306.091.457l.013.104c.048.368.1.77.198 1.121.071.254.15.583.169.845.018.248.355-.13.424-.211.348-.41.718-.744 1.243-.925a40.237 40.237 0 002.688-1.044 17.5 17.5 0 011.288-.51c.546-.183 1.15-.27 1.724-.32.32-.029.638-.08.956-.132.25-.04.5-.081.753-.11a24.46 24.46 0 001.513-.232c.326-.059.616-.063.945-.06.114 0 .229-.005.343-.01.127-.006.254-.012.382-.01.087.002.18-.01.275-.022.144-.019.291-.038.42-.01 1.23.27 2.453.45 3.717.503.093.004.125.009.13-.002.008-.012-.025-.048-.03-.136-.01-.133 0-.262.01-.391.008-.11.017-.22.014-.332-.015-.513-.046-1.049-.139-1.553-.06-.322-.108-.654-.157-.988-.161-1.093-.326-2.215-.89-3.144-.061-.102-.149-.16-.234-.219a.93.93 0 01-.162-.127c-.186-.197-.34-.426-.492-.653a13.444 13.444 0 00-.17-.25 14.243 14.243 0 01-.212-.31 16.91 16.91 0 00-.152-.226c.345.15.683.314 1.01.495.545.301.818.892 1.082 1.462.106.229.21.454.33.657.067.113.09.245.114.377.016.089.031.177.06.26.043.125.096.246.15.367.055.124.11.249.154.377.058.174.131.346.204.519.115.273.23.547.292.828l.004.017c.114.518.23 1.047.434 1.537.08.19.184.367.288.545.114.194.227.387.307.596.072.186.163.356.256.528.106.197.212.396.291.622.051.146.092.296.133.445.047.171.093.343.155.509.079.21.172.414.265.618.128.28.256.562.345.859.081.27.136.533.19.791.11.532.216 1.045.543 1.56.129.201.261.397.394.592.194.287.388.573.568.878.312.527.545 1.038.793 1.598.067.153.155.292.242.429.154.242.305.48.333.78.032.336.165.8.379 1.068.197.245.236.637.271.99.013.13.026.256.046.367.097.535.193 1.124.189 1.669a5.762 5.762 0 01-.055.652c-.019.162-.039.323-.048.483-.013.23-.004.464.005.7.017.454.035.912-.111 1.34-.17.499-.369 1.002-.682 1.43-.227.312-.364.73-.489 1.11-.025.077-.049.152-.074.224-.162.477-.266.72-.619 1.098-.489.523-1.014 1.065-1.675 1.37-.173.08-.313.19-.459.305l-.121.095a5.905 5.905 0 01-1.499.833c-.11.042-.222.095-.336.15-.211.1-.427.204-.646.238-.4.063-.815.298-1.203.517-.15.085-.295.168-.435.237a8.654 8.654 0 00-.168.087c-.206.108-.412.217-.643.259-.1.018-.207.021-.313.025-.147.004-.295.008-.428.052-.83.272-1.667.33-2.526.389l-.24.016c-.211.015-.403-.065-.595-.146l-.144-.059a11.032 11.032 0 00-1.758-.543l-.244-.049c-.61-.123-1.08-.217-1.658-.575-.272-.17-.559-.317-.845-.464-.494-.254-.988-.507-1.407-.872-.926-.804-1.82-1.605-2.594-2.562-.106-.13-.218-.257-.33-.383-.312-.349-.623-.696-.782-1.137-.118-.33-.353-.615-.587-.9-.188-.229-.376-.458-.503-.709-.198-.39-.427-.75-.656-1.11a22.221 22.221 0 01-.395-.635c-.22-.371-.343-.844-.378-1.267-.048-.578-.247-1.039-.464-1.543-.055-.127-.111-.257-.166-.392-.111-.273-.226-.545-.341-.818-.27-.64-.54-1.28-.766-1.929-.14-.398-.182-.803-.225-1.21-.021-.206-.043-.413-.077-.62l-.06-.362c-.112-.657-.224-1.314-.238-1.983-.004-.177.05-.496.15-.645a.544.544 0 01.259-.192c.06-.027.12-.055.173-.099.2-.169.439-.185.694-.203.015 0 .03-.002.044-.003.22-.015.432-.107.644-.198.127-.055.253-.11.381-.147.387-.116.3-.714.237-1.149a4.098 4.098 0 01-.035-.279c-.042-.584-.113-1.153-.3-1.713a4.166 4.166 0 01-.132-.572c-.039-.208-.077-.415-.148-.61-.042-.117-.044-.26-.046-.396-.001-.056-.002-.112-.005-.164a.495.495 0 00-.072-.21c-.022-.042-.044-.085-.06-.139-.042-.139-.202-.205-.357-.27-.095-.039-.188-.077-.25-.131-.089-.077-.199-.128-.311-.18a1.46 1.46 0 01-.327-.186c-.23-.187-.231-.305-.235-.537a3.91 3.91 0 00-.009-.218c.232-.016.331-.251.433-.494.09-.215.184-.436.374-.515.052-.022.124-.063.204-.115z" fill="#fff"/>
        <path d="M73.972 44.023c.267-.74 1.04-.819 1.74-.733.481-.034 1.006.639 1.042 1.144l.154 2.17c.048.667.068 1.184.254 1.809.053.18-.084.409-.081.614.002.204-.72.104-.828.06-.36-.15-.746-.167-1.082-.405-.308-.218-.484-.636-.617-.982-.237-.613-.67-1.31-.716-1.969-.044-.614-.074-1.13.134-1.708zM96.796 39.995c-.072-1.011-1.36-1.767-2.247-1.892.024.343.24.704.405.997.164.29.338.514.522.793.236.357.319.786.424 1.2.049.194.224.38.323.546.042.072.177.28.233.33.113.098.366-.705.36-.789-.027-.384.01-.777-.02-1.185zM87.709 48.3c-.736.052-1.311-.578-2.023-.64-.168.408-.33.695.084 1.135.124.13.355.27.523.316.188.053.376.189.568.2.683.043 1.385-.311 1.896-.755.268-.234.923-.605.916-1.015-.006-.405-.559.056-.687.152-.412.313-.737.569-1.277.607zM89.94 44.832c-.553.16-.823.207-1.152-.303-.581-.9-.66-1.749-1.08-2.707a1.18 1.18 0 01.316-.497c.057-.052.307-.228.386-.11a.23.23 0 00.149.092c.033.007.07.145.1.178.163.181.218.458.415.629.153.133.362.222.555.297.285.111.455.347.684.532.138.111.283.297.388.442.238.331.217.527.164.887-.066.445-.465.426-.926.56z" fill="#EF7D73"/>
        <path d="M76.727 41.828c.108-.341.084-.252.367-.272 1.319-.094 2.76-.129 3.796-.153.652-.016 1.326-.301 1.968-.398 3.175-.481 6.515-1.378 9.541-2.444.442-.155 1.003-.569 1.47-.602.052-.004.258.635.29.69.465.809.526 2.86-.272 3.551-.377.327-1.124.567-1.612.606-1.506.122-2.228-.826-3.57-1.239-.232-.07-.386-.227-.647-.209-.165.012-.357.064-.365.249-.045 1.07-1.147 2.274-2.015 2.834-.322.207-.731.307-1.108.334-.369.026-.78.075-1.139-.029-.929-.27-1.863-.558-2.265-1.477a1.37 1.37 0 01-.119-.502c-.002-.088.069-.288-.075-.213-.254.133-.722-.01-1.004.01l-.894.064c-.63.045-1.506-.086-2.161-.04-.145-.167-.247-.568-.186-.76z" fill="#000"/>
        <path d="M127.837 107.502c.285.203 2.146 1.392 2.425 1.607 1.432 1.105 2.142 2.093.927 4.038-.885 1.417-2.092 2.248-3.449 1.912-1.645-.407-4.528-1.913-5.817-3.032-1.096-.952-2.05-1.001-2.38-2.412-.197-.84.974-2.644 1.556-3.317 1.016-1.173 2.045-.9 3.315-.539 1.203.342 2.412 1.018 3.423 1.743zM81.342 119.77c-16.153-1.006-24.612-8.21-26.822-11.686-.437-.739-4.5.448.863 6.735 6.704 7.859 12.182 9.265 19.988 11.018 7.807 1.753 23.953.733 27.053.512 6.074-.432 6.826-9.043 4.433-7.881-1.857.901-9.362 2.307-25.515 1.302z" fill="#fff"/>
    </g>
    <defs>
        <clipPath id="clip0">
            <path fill="#fff" d="M0 0h144v135H0z"/>
        </clipPath>
    </defs>
</svg>
