<svg width="500" height="274" viewBox="0 0 500 274" fill="none" xmlns="http://www.w3.org/2000/svg">
<path d="M224.1 63L104.6 209.4H230.7C230.7 244.9 201.9 273.7 166.4 273.7H6.8V209.9L139.2 60.8H60.5C27.1 60.8 0 33.7 0 0.299988H224.1V63Z" fill="#26A69A"/>
<path d="M328.6 0.499969H499.9C499.9 36.9363 472.8 66.5 439.4 66.5H268C268 30.0636 295.1 0.499969 328.6 0.499969Z" fill="#26A69A"/>
<path fill-rule="evenodd" clip-rule="evenodd" d="M328.6 104H499.9C499.9 140.436 472.8 170 439.4 170H268C268 133.564 295.1 104 328.6 104Z" fill="#26A69A"/>
<path fill-rule="evenodd" clip-rule="evenodd" d="M328.626 208H500C500 244.436 472.888 274 439.474 274H268C268 237.564 295.112 208 328.626 208Z" fill="#26A69A"/>
</svg>
