<svg version="1.1" id="Layer_1" xmlns="http://www.w3.org/2000/svg" x="0" y="0" viewBox="0 0 24 18" xml:space="preserve"><path d="M200.4 3h2.6c.8 0 1.3.3 1.6.8.3.5.5 1.3.5 2.2 0 1-.2 1.8-.5 2.2-.4.5-.9.8-1.6.8h-2.6V3zm2.4 4.7c.3 0 .5-.1.7-.4.1-.3.2-.7.2-1.3 0-.5 0-.8-.1-1.1s-.2-.4-.3-.5c-.1-.1-.3-.1-.5-.1h-1v3.5h1zm4.4 1.1c-.4-.2-.6-.5-.8-.9-.2-.4-.3-1.1-.3-1.9s.1-1.5.3-1.9c.2-.4.4-.7.8-.9s.8-.2 1.4-.2c.6 0 1.1.1 1.4.2.4.2.6.5.8.9.2.4.3 1.1.3 1.9s-.1 1.4-.3 1.9c-.2.4-.4.7-.8.9-.4.2-.8.2-1.4.2-.6 0-1.1-.1-1.4-.2zm2.1-1.2c.2-.1.3-.3.3-.5.1-.3.1-.6.1-1.1 0-.5 0-.9-.1-1.1-.1-.2-.2-.4-.3-.5s-.4-.1-.7-.1c-.3 0-.5 0-.7.1s-.3.3-.3.5c-.1.3-.1.6-.1 1.1 0 .5 0 .9.1 1.1.1.2.2.4.3.5.2.1.4.1.7.1.3.1.5 0 .7-.1zm3.8 1.2c-.3-.2-.5-.5-.7-.9-.2-.4-.3-1.1-.3-1.9 0-.8.1-1.4.3-1.8.2-.4.4-.7.7-.9s.7-.3 1.2-.3c.4 0 .8 0 1.1.1.3.1.6.1.8.2v1.1c-.5-.1-1-.1-1.6-.1-.3 0-.5 0-.7.1-.1.1-.3.3-.3.5-.1.3-.1.6-.1 1.1 0 .5 0 .9.1 1.1s.2.4.3.5c.2.1.4.1.7.1.7 0 1.3 0 1.6-.1v1.1c-.5.2-1.1.2-1.9.2-.5.1-.9 0-1.2-.1z"/><path d="M214.3-3h-16c-1.1 0-2 .9-2 2v14c0 1.1.9 2 2 2h20c1.1 0 2-.9 2-2V3l-6-6zm-16 16V-1h15l5 5v9h-20zM4.6 10.6V7.4c0-.5.1-.9.4-1.1.3-.2.6-.3 1-.3.9 0 1.7 0 2.6.1v1.2H6.4c-.1 0-.3 0-.3.1s-.2.2-.2.3v.7l2.2.1v1.1H5.9v.6c0 .2 0 .3.1.4.1.1.2.1.3.1h2.2v1.2c-.6 0-1.4.1-2.4.1s-1.5-.5-1.5-1.4zM12.8 9l1.8 2.9h-1.5L12 10.1l-1 1.8H9.4l1.8-3L9.4 6h1.5l1.2 1.9 1-1.9h1.5l-1.8 3zm2.6 1.6V7.4c0-.5.1-.9.4-1.1.3-.2.6-.3 1-.3.9 0 1.7 0 2.6.1v1.2h-2.2c-.1 0-.3 0-.3.1s-.1.2-.1.3v.7l2.2.1v1.1l-2.2.1v.6c0 .2 0 .3.1.4.1.1.2.1.3.1h2.2V12c-.6-.1-1.4 0-2.5 0-1 0-1.5-.5-1.5-1.4z"/><path d="M22 0H2C.9 0 0 .9 0 2v14c0 1.1.9 2 2 2h20c1.1 0 2-.9 2-2V2c0-1.1-.9-2-2-2zm0 16H2V2h20v14z"/></svg>