<svg version="1.1" id="Layer_1" xmlns="http://www.w3.org/2000/svg" x="0" y="0" viewBox="0 0 24 18" xml:space="preserve"><path d="M200.4 3h2.6c.8 0 1.3.3 1.6.8.3.5.5 1.3.5 2.2 0 1-.2 1.8-.5 2.2-.4.5-.9.8-1.6.8h-2.6V3zm2.4 4.7c.3 0 .5-.1.7-.4.1-.3.2-.7.2-1.3 0-.5 0-.8-.1-1.1s-.2-.4-.3-.5c-.1-.1-.3-.1-.5-.1h-1v3.5h1zm4.4 1.1c-.4-.2-.6-.5-.8-.9-.2-.4-.3-1.1-.3-1.9s.1-1.5.3-1.9c.2-.4.4-.7.8-.9s.8-.2 1.4-.2c.6 0 1.1.1 1.4.2.4.2.6.5.8.9.2.4.3 1.1.3 1.9s-.1 1.4-.3 1.9c-.2.4-.4.7-.8.9-.4.2-.8.2-1.4.2-.6 0-1.1-.1-1.4-.2zm2.1-1.2c.2-.1.3-.3.3-.5.1-.3.1-.6.1-1.1 0-.5 0-.9-.1-1.1-.1-.2-.2-.4-.3-.5s-.4-.1-.7-.1c-.3 0-.5 0-.7.1s-.3.3-.3.5c-.1.3-.1.6-.1 1.1 0 .5 0 .9.1 1.1.1.2.2.4.3.5.2.1.4.1.7.1.3.1.5 0 .7-.1zm3.8 1.2c-.3-.2-.5-.5-.7-.9-.2-.4-.3-1.1-.3-1.9 0-.8.1-1.4.3-1.8.2-.4.4-.7.7-.9s.7-.3 1.2-.3c.4 0 .8 0 1.1.1.3.1.6.1.8.2v1.1c-.5-.1-1-.1-1.6-.1-.3 0-.5 0-.7.1-.1.1-.3.3-.3.5-.1.3-.1.6-.1 1.1 0 .5 0 .9.1 1.1s.2.4.3.5c.2.1.4.1.7.1.7 0 1.3 0 1.6-.1v1.1c-.5.2-1.1.2-1.9.2-.5.1-.9 0-1.2-.1z"/><path d="M214.3-3h-16c-1.1 0-2 .9-2 2v14c0 1.1.9 2 2 2h20c1.1 0 2-.9 2-2V3l-6-6zm-16 16V-1h15l5 5v9h-20zM4.3 6h2.6c.5 0 .9.1 1.3.4.3.3.5.8.5 1.7 0 .8-.2 1.4-.5 1.7-.3.3-.7.4-1.2.4-.2 0-.5 0-.8-.1-.3 0-.4-.1-.5-.1v2H4.3V6zm2.4 3c.2 0 .4 0 .4-.2s.1-.4.1-.7c0-.6-.2-.9-.5-.9h-1V9h1zm3.1-3h2.6c.8 0 1.3.3 1.6.8.3.5.5 1.3.5 2.2 0 1-.2 1.8-.5 2.2-.4.5-1 .8-1.7.8H9.8V6zm2.4 4.7c.3 0 .5-.1.7-.4.1-.3.2-.7.2-1.3 0-.5 0-.8-.1-1.1-.1-.3-.2-.4-.3-.5-.1-.1-.3-.1-.5-.1h-1v3.5h1zm3.4-3.2c0-.5.1-.9.4-1.1.3-.2.6-.3 1-.3h.2c1 0 1.8.1 2.4.1v1.2h-2.2c-.1 0-.2 0-.3.1 0 0-.1.1-.1.2v.8l2.2.1v1.1l-2.2.1V12h-1.4V7.5z"/><path d="M18 0H2C.9 0 0 .9 0 2v14c0 1.1.9 2 2 2h20c1.1 0 2-.9 2-2V6l-6-6zM2 16V2h15l5 5v9H2z"/></svg>